<svg width="86" height="90" viewBox="0 0 86 90" fill="none" xmlns="http://www.w3.org/2000/svg">
<path d="M64.6431 27.4119C67.3898 27.4119 70.0237 28.5037 71.9663 30.446C73.9085 32.3883 75.0003 35.0236 75.0005 37.7703V56.0632C75.0005 58.81 73.9086 61.4458 71.9663 63.3884C70.024 65.3306 67.3898 66.4216 64.6431 66.4216H56.7925C55.3906 66.4406 54.0964 65.6744 53.439 64.4373L37.6382 32.8357V32.8376C37.0529 31.6752 37.1118 30.2917 37.7964 29.1853C38.481 28.0791 39.6908 27.4065 40.9917 27.4119H64.6431Z" fill="url(#paint0_linear_220_119)"/>
<path d="M19.209 25.3267C20.6137 25.3103 21.9082 26.0835 22.5615 27.3276L38.3623 58.9282C38.949 60.0893 38.8888 61.4728 38.2041 62.5796C37.5208 63.686 36.309 64.3585 35.0078 64.353H16.8291C14.0824 64.3529 11.4474 63.2611 9.50488 61.3188C7.56262 59.3766 6.47082 56.7428 6.4707 53.9946V35.7017C6.46662 32.9521 7.55567 30.3122 9.49805 28.3657C11.4417 26.4194 14.0786 25.3268 16.8291 25.3267H19.209Z" fill="url(#paint1_linear_220_119)"/>
<path d="M32.4729 22.4636C31.396 23.0439 30.1505 23.1363 29.0103 22.7222C27.8714 22.3068 26.9308 21.4183 26.3991 20.2511L22.3715 11.5058H22.3702C21.2412 9.08156 22.1422 6.12518 24.3841 4.90319C26.6272 3.68237 29.3613 4.65661 30.4901 7.08218L34.5178 15.8275C35.0705 16.9988 35.1647 18.3616 34.7805 19.6091C34.3963 20.8567 33.5647 21.8847 32.4729 22.4636Z" fill="url(#paint2_linear_220_119)"/>
<path d="M45.9564 70.4386C47.8972 69.4676 50.2489 70.2692 51.2146 72.232L55.3653 80.6382V80.6371C56.3588 82.5913 55.6003 84.9907 53.6702 85.9965C51.7413 87.0023 49.3714 86.2333 48.3777 84.2802L44.227 75.874C43.7281 74.9246 43.6294 73.8102 43.9556 72.786C44.2817 71.7618 45.0037 70.9155 45.9564 70.4386Z" fill="url(#paint3_linear_220_119)"/>
<defs>
<linearGradient id="paint0_linear_220_119" x1="48.088" y1="16.2232" x2="68.2671" y2="75.2546" gradientUnits="userSpaceOnUse">
<stop offset="0.115385" stop-color="#60CDC0"/>
<stop offset="0.658654" stop-color="#1E7594"/>
</linearGradient>
<linearGradient id="paint1_linear_220_119" x1="22.6171" y1="25.3267" x2="22.6171" y2="64.3533" gradientUnits="userSpaceOnUse">
<stop offset="0.192308" stop-color="#744EFF"/>
<stop offset="0.774038" stop-color="#462F99"/>
</linearGradient>
<linearGradient id="paint2_linear_220_119" x1="21.465" y1="-3.1638" x2="37.1005" y2="21.6242" gradientUnits="userSpaceOnUse">
<stop stop-color="#DA6BE2"/>
<stop offset="1" stop-color="#5D3697"/>
</linearGradient>
<linearGradient id="paint3_linear_220_119" x1="49.7842" y1="70.0261" x2="49.7842" y2="86.4385" gradientUnits="userSpaceOnUse">
<stop stop-color="#5AB1D3"/>
<stop offset="1" stop-color="#195B53"/>
</linearGradient>
</defs>
</svg>
