<svg width="269" height="84" viewBox="0 0 269 84" fill="none" xmlns="http://www.w3.org/2000/svg">
<path d="M258.736 25.2256C261.246 25.2258 263.653 26.2232 265.429 27.998C267.204 29.7732 268.202 32.1821 268.202 34.6924V51.4111C268.202 53.9215 267.204 56.33 265.429 58.1055C263.654 59.8804 261.247 60.8777 258.736 60.8779H254.354C255.222 60.6996 256.047 60.469 256.826 60.1855C258.94 59.4085 260.663 58.329 261.995 56.9463C263.342 55.5503 264.232 53.9169 264.666 52.0469L256.109 51.5332C255.791 52.2971 255.327 52.9419 254.719 53.4688C254.111 53.9955 253.38 54.3909 252.525 54.6543C251.671 54.9177 250.73 55.0498 249.702 55.0498C248.153 55.0498 246.813 54.7528 245.684 54.1602C244.554 53.5675 243.678 52.7248 243.056 51.6318C242.448 50.5388 242.144 49.2415 242.144 47.7402V47.7207H264.862V45.4092C264.862 42.8278 264.463 40.5752 263.667 38.6523C262.871 36.7166 261.756 35.1094 260.322 33.832C258.903 32.5547 257.238 31.5999 255.327 30.9678C253.43 30.3225 251.381 30 249.181 30C245.908 30 243.056 30.6586 240.623 31.9756C238.205 33.2926 236.33 35.1299 234.998 37.4873C234.826 37.791 234.665 38.1006 234.516 38.417L230.399 30.1826V30.1836C229.865 29.1213 229.918 27.8578 230.544 26.8467C231.17 25.8354 232.276 25.2206 233.465 25.2256H258.736ZM249.333 36.2822C250.679 36.2823 251.86 36.5519 252.873 37.0918C253.901 37.6186 254.705 38.3501 255.284 39.2852C255.863 40.2201 256.152 41.2934 256.152 42.5049H242.155C242.211 41.4156 242.516 40.4213 243.077 39.5225C243.685 38.5348 244.525 37.7504 245.597 37.1709C246.683 36.5782 247.928 36.2822 249.333 36.2822Z" fill="url(#paint0_linear_205_118)"/>
<path d="M216.298 25.1473C217.582 25.1324 218.765 25.8385 219.362 26.9755L233.803 55.8573C234.339 56.9184 234.284 58.1827 233.658 59.1942C233.034 60.2055 231.927 60.8203 230.737 60.8153H205.467C202.957 60.8152 200.549 59.8169 198.773 58.0419C196.998 56.2666 196 53.8593 196 51.3475V34.6298C195.996 32.117 196.992 29.7046 198.767 27.9257C200.543 26.1468 202.953 25.1475 205.467 25.1473H216.298Z" fill="url(#paint1_linear_205_118)"/>
<path d="M220.05 18.7904C218.969 19.3291 217.719 19.4149 216.574 19.0305C215.431 18.6449 214.487 17.8201 213.953 16.7365L209.91 8.61805H209.909C208.775 6.3676 209.68 3.62314 211.93 2.48874C214.182 1.35543 216.926 2.25984 218.06 4.51154L222.103 12.63C222.657 13.7173 222.752 14.9825 222.366 16.1405C221.981 17.2987 221.146 18.253 220.05 18.7904Z" fill="url(#paint2_linear_205_118)"/>
<path d="M243.333 65.6758C245.584 64.5637 248.311 65.4817 249.431 67.7297L254.244 77.3571V77.3559C255.396 79.5939 254.516 82.3419 252.278 83.4938C250.041 84.6457 247.293 83.765 246.141 81.5282L241.328 71.9008C240.75 70.8135 240.635 69.5371 241.013 68.3642C241.392 67.1912 242.229 66.2219 243.333 65.6758Z" fill="url(#paint3_linear_205_118)"/>
<path d="M6.85305 74.0389V27.2997H17.5641V33.12H17.8961C18.3387 32.0873 18.9657 31.0914 19.7771 30.1324C20.6033 29.1734 21.6508 28.3915 22.9196 27.7866C24.2032 27.167 25.7376 26.8571 27.5227 26.8571C29.8833 26.8571 32.089 27.4768 34.1397 28.7161C36.2052 29.9554 37.8723 31.866 39.1411 34.4478C40.41 37.0297 41.0444 40.3197 41.0444 44.3179C41.0444 48.1686 40.4321 51.3923 39.2075 53.9889C37.9977 56.5855 36.3601 58.533 34.2946 59.8313C32.2439 61.1296 29.9645 61.7787 27.4564 61.7787C25.7449 61.7787 24.2622 61.4984 23.0082 60.9378C21.7541 60.3772 20.6992 59.6395 19.8435 58.7248C19.0026 57.81 18.3534 56.8289 17.8961 55.7814H17.6748V74.0389H6.85305ZM17.4535 44.2958C17.4535 46.1252 17.6969 47.7186 18.1838 49.0759C18.6854 50.4333 19.4009 51.4881 20.3304 52.2406C21.2746 52.9783 22.4033 53.3471 23.7163 53.3471C25.0441 53.3471 26.1728 52.9783 27.1023 52.2406C28.0317 51.4881 28.7325 50.4333 29.2046 49.0759C29.6915 47.7186 29.9349 46.1252 29.9349 44.2958C29.9349 42.4664 29.6915 40.8804 29.2046 39.5378C28.7325 38.1952 28.0317 37.1551 27.1023 36.4174C26.1875 35.6797 25.0589 35.3109 23.7163 35.3109C22.3885 35.3109 21.2599 35.6724 20.3304 36.3953C19.4009 37.1182 18.6854 38.151 18.1838 39.4935C17.6969 40.8361 17.4535 42.4369 17.4535 44.2958ZM65.6986 61.9336C62.1283 61.9336 59.0595 61.2033 56.4924 59.7427C53.94 58.2674 51.9704 56.2167 50.5836 53.5905C49.2115 50.9496 48.5255 47.8883 48.5255 44.4065C48.5255 40.9099 49.2115 37.8485 50.5836 35.2224C51.9704 32.5815 53.94 30.5308 56.4924 29.0702C59.0595 27.5948 62.1283 26.8571 65.6986 26.8571C69.269 26.8571 72.3303 27.5948 74.8827 29.0702C77.4498 30.5308 79.4194 32.5815 80.7915 35.2224C82.1783 37.8485 82.8717 40.9099 82.8717 44.4065C82.8717 47.8883 82.1783 50.9496 80.7915 53.5905C79.4194 56.2167 77.4498 58.2674 74.8827 59.7427C72.3303 61.2033 69.269 61.9336 65.6986 61.9336ZM65.765 53.7676C67.0633 53.7676 68.1624 53.3692 69.0624 52.5725C69.9624 51.7758 70.6484 50.6693 71.1205 49.253C71.6074 47.8367 71.8508 46.199 71.8508 44.3401C71.8508 42.4516 71.6074 40.7992 71.1205 39.3829C70.6484 37.9665 69.9624 36.86 69.0624 36.0633C68.1624 35.2666 67.0633 34.8683 65.765 34.8683C64.4224 34.8683 63.2864 35.2666 62.3569 36.0633C61.4422 36.86 60.7414 37.9665 60.2546 39.3829C59.7824 40.7992 59.5464 42.4516 59.5464 44.3401C59.5464 46.199 59.7824 47.8367 60.2546 49.253C60.7414 50.6693 61.4422 51.7758 62.3569 52.5725C63.2864 53.3692 64.4224 53.7676 65.765 53.7676ZM103.946 61.7787C101.438 61.7787 99.1589 61.1296 97.1081 59.8313C95.0574 58.533 93.4198 56.5855 92.1952 53.9889C90.9707 51.3923 90.3584 48.1686 90.3584 44.3179C90.3584 40.3197 90.9928 37.0297 92.2616 34.4478C93.5304 31.866 95.1902 29.9554 97.2409 28.7161C99.3064 27.4768 101.527 26.8571 103.902 26.8571C105.687 26.8571 107.214 27.167 108.483 27.7866C109.752 28.3915 110.799 29.1734 111.626 30.1324C112.452 31.0914 113.079 32.0873 113.507 33.12H113.728V15.969H124.55V61.2919H113.839V55.7814H113.507C113.049 56.8289 112.4 57.81 111.559 58.7248C110.718 59.6395 109.663 60.3772 108.395 60.9378C107.141 61.4984 105.658 61.7787 103.946 61.7787ZM107.709 53.3471C109.022 53.3471 110.143 52.9783 111.072 52.2406C112.002 51.4881 112.717 50.4333 113.219 49.0759C113.721 47.7186 113.971 46.1252 113.971 44.2958C113.971 42.4369 113.721 40.8361 113.219 39.4935C112.732 38.151 112.017 37.1182 111.072 36.3953C110.143 35.6724 109.022 35.3109 107.709 35.3109C106.366 35.3109 105.23 35.6797 104.3 36.4174C103.371 37.1551 102.663 38.1952 102.176 39.5378C101.704 40.8804 101.468 42.4664 101.468 44.2958C101.468 46.1252 101.711 47.7186 102.198 49.0759C102.685 50.4333 103.386 51.4881 104.3 52.2406C105.23 52.9783 106.366 53.3471 107.709 53.3471ZM164.186 37.6788L154.25 37.9444C154.146 37.2362 153.866 36.6092 153.409 36.0633C152.951 35.5027 152.354 35.0675 151.616 34.7576C150.893 34.4331 150.052 34.2708 149.093 34.2708C147.839 34.2708 146.77 34.5216 145.884 35.0232C145.014 35.5248 144.586 36.2035 144.601 37.0592C144.586 37.7231 144.852 38.2985 145.398 38.7854C145.958 39.2722 146.954 39.6632 148.385 39.9583L154.936 41.1976C158.329 41.8467 160.852 42.9237 162.504 44.4286C164.171 45.9334 165.012 47.9252 165.027 50.4038C165.012 52.7348 164.319 54.7634 162.947 56.4896C161.59 58.2158 159.731 59.5583 157.37 60.5173C155.009 61.4615 152.31 61.9336 149.27 61.9336C144.416 61.9336 140.588 60.9378 137.785 58.9461C134.996 56.9396 133.403 54.2544 133.005 50.8906L143.694 50.6251C143.93 51.8644 144.542 52.8086 145.53 53.4577C146.519 54.1069 147.78 54.4315 149.315 54.4315C150.701 54.4315 151.83 54.1733 152.701 53.6569C153.571 53.1405 154.014 52.4545 154.028 51.5988C154.014 50.8316 153.674 50.2193 153.01 49.762C152.346 49.2899 151.306 48.921 149.89 48.6555L143.959 47.5268C140.551 46.9072 138.013 45.7638 136.346 44.0966C134.679 42.4147 133.853 40.2755 133.868 37.6788C133.853 35.4068 134.458 33.4667 135.682 31.8586C136.907 30.2357 138.648 28.9964 140.905 28.1407C143.162 27.285 145.825 26.8571 148.894 26.8571C153.497 26.8571 157.127 27.8235 159.782 29.7562C162.438 31.6742 163.906 34.315 164.186 37.6788ZM184.293 15.969V61.2919H173.471V15.969H184.293Z" fill="url(#paint4_linear_205_118)"/>
<defs>
<linearGradient id="paint0_linear_205_118" x1="241" y1="15" x2="258" y2="70" gradientUnits="userSpaceOnUse">
<stop offset="0.115385" stop-color="#66CEE8"/>
<stop offset="0.653846" stop-color="#206D8E"/>
</linearGradient>
<linearGradient id="paint1_linear_205_118" x1="215.085" y1="25.1473" x2="215.085" y2="60.8156" gradientUnits="userSpaceOnUse">
<stop offset="0.192308" stop-color="#744EFF"/>
<stop offset="0.774038" stop-color="#462F99"/>
</linearGradient>
<linearGradient id="paint2_linear_205_118" x1="209" y1="-5" x2="223" y2="19" gradientUnits="userSpaceOnUse">
<stop stop-color="#DA6BE2"/>
<stop offset="1" stop-color="#423697"/>
</linearGradient>
<linearGradient id="paint3_linear_205_118" x1="247.772" y1="65.2034" x2="247.772" y2="84" gradientUnits="userSpaceOnUse">
<stop stop-color="#78D9E0"/>
<stop offset="1" stop-color="#106056"/>
</linearGradient>
<linearGradient id="paint4_linear_205_118" x1="129.896" y1="-43.0263" x2="138.962" y2="130.84" gradientUnits="userSpaceOnUse">
<stop offset="0.149038" stop-color="#3AC2CE"/>
<stop offset="0.197115" stop-color="#71C2CC"/>
<stop offset="0.427885" stop-color="#B8C2CA"/>
<stop offset="0.581731" stop-color="#8596B1"/>
<stop offset="0.774038" stop-color="#160B3F"/>
<stop offset="0.9999" stop-color="#29084A"/>
<stop offset="1" stop-color="#2C2323"/>
</linearGradient>
</defs>
</svg>
