<svg width="228" height="82" viewBox="0 0 228 82" fill="none" xmlns="http://www.w3.org/2000/svg">
<path d="M217.736 23.2256C220.246 23.2258 222.653 24.2232 224.429 25.998C226.204 27.7732 227.202 30.1821 227.202 32.6924V49.4111C227.202 51.9215 226.204 54.33 224.429 56.1055C222.654 57.8804 220.246 58.8777 217.736 58.8779H213.354C214.222 58.6996 215.047 58.469 215.826 58.1855C217.94 57.4085 219.663 56.329 220.995 54.9463C222.342 53.5503 223.232 51.9169 223.666 50.0469L215.109 49.5332C214.791 50.2971 214.327 50.9419 213.719 51.4688C213.111 51.9955 212.38 52.3909 211.525 52.6543C210.671 52.9177 209.73 53.0498 208.702 53.0498C207.153 53.0498 205.813 52.7528 204.684 52.1602C203.554 51.5675 202.678 50.7248 202.056 49.6318C201.448 48.5388 201.144 47.2415 201.144 45.7402V45.7207H223.862V43.4092C223.862 40.8278 223.463 38.5752 222.667 36.6523C221.871 34.7166 220.756 33.1094 219.322 31.832C217.903 30.5547 216.238 29.5999 214.327 28.9678C212.43 28.3225 210.381 28 208.181 28C204.908 28 202.056 28.6586 199.623 29.9756C197.205 31.2926 195.33 33.1299 193.998 35.4873C193.826 35.791 193.665 36.1006 193.516 36.417L189.399 28.1826V28.1836C188.865 27.1213 188.918 25.8578 189.544 24.8467C190.17 23.8354 191.276 23.2206 192.465 23.2256H217.736ZM208.333 34.2822C209.679 34.2823 210.86 34.5519 211.873 35.0918C212.901 35.6186 213.705 36.3501 214.284 37.2852C214.863 38.2201 215.152 39.2934 215.152 40.5049H201.155C201.211 39.4156 201.516 38.4213 202.077 37.5225C202.685 36.5348 203.525 35.7504 204.597 35.1709C205.683 34.5782 206.928 34.2822 208.333 34.2822Z" fill="#79E2EC"/>
<path d="M175.298 23.1473C176.582 23.1324 177.765 23.8385 178.362 24.9755L192.803 53.8573C193.339 54.9184 193.284 56.1827 192.658 57.1942C192.034 58.2055 190.927 58.8203 189.737 58.8153H164.467C161.957 58.8152 159.549 57.8169 157.773 56.0419C155.998 54.2666 155 51.8593 155 49.3475V32.6298C154.996 30.117 155.992 27.7046 157.767 25.9257C159.543 24.1468 161.953 23.1475 164.467 23.1473H175.298Z" fill="#79E2EC"/>
<path d="M179.05 16.7904C177.969 17.3291 176.719 17.4149 175.574 17.0305C174.431 16.6449 173.487 15.8201 172.953 14.7365L168.91 6.61805H168.909C167.775 4.3676 168.68 1.62314 170.93 0.488741C173.182 -0.644573 175.926 0.259837 177.06 2.51154L181.103 10.63C181.657 11.7173 181.752 12.9825 181.366 14.1405C180.981 15.2987 180.146 16.253 179.05 16.7904Z" fill="#79E2EC"/>
<path d="M202.333 63.6758C204.584 62.5637 207.311 63.4817 208.431 65.7297L213.244 75.3571V75.3559C214.396 77.5939 213.516 80.3419 211.278 81.4938C209.041 82.6457 206.293 81.765 205.141 79.5282L200.328 69.9008C199.75 68.8135 199.635 67.5371 200.013 66.3642C200.392 65.1912 201.229 64.2219 202.333 63.6758Z" fill="#79E2EC"/>
<path d="M6.29741 69.1724V28.2069H14.444V33.2112H14.8125C15.1746 32.4095 15.6983 31.5948 16.3836 30.7672C17.0819 29.9267 17.9871 29.2284 19.0991 28.6724C20.2241 28.1034 21.6207 27.819 23.2888 27.819C25.4612 27.819 27.4655 28.3879 29.3017 29.5259C31.1379 30.6509 32.6056 32.3513 33.7047 34.6272C34.8039 36.8901 35.3534 39.7284 35.3534 43.1422C35.3534 46.4655 34.8168 49.2716 33.7435 51.5603C32.6832 53.8362 31.2349 55.5625 29.3987 56.7392C27.5754 57.903 25.5323 58.4849 23.2694 58.4849C21.6659 58.4849 20.3017 58.2198 19.1767 57.6897C18.0647 57.1595 17.153 56.4935 16.4418 55.6918C15.7306 54.8772 15.1875 54.056 14.8125 53.2284H14.5603V69.1724H6.29741ZM14.3858 43.1034C14.3858 44.875 14.6315 46.4203 15.1228 47.7392C15.6142 49.0582 16.3254 50.0862 17.2565 50.8233C18.1875 51.5474 19.319 51.9095 20.6509 51.9095C21.9957 51.9095 23.1336 51.5409 24.0647 50.8039C24.9957 50.0539 25.7004 49.0194 26.1789 47.7004C26.6703 46.3685 26.9159 44.8362 26.9159 43.1034C26.9159 41.3836 26.6767 39.8707 26.1983 38.5647C25.7198 37.2586 25.0151 36.2371 24.0841 35.5C23.153 34.7629 22.0086 34.3944 20.6509 34.3944C19.306 34.3944 18.1681 34.75 17.2371 35.4612C16.319 36.1724 15.6142 37.181 15.1228 38.4871C14.6315 39.7931 14.3858 41.3319 14.3858 43.1034ZM54.3233 58.5819C51.3103 58.5819 48.7047 57.9418 46.5065 56.6616C44.3211 55.3685 42.6336 53.5711 41.444 51.2694C40.2543 48.9547 39.6595 46.2716 39.6595 43.2198C39.6595 40.1422 40.2543 37.4526 41.444 35.1509C42.6336 32.8362 44.3211 31.0388 46.5065 29.7586C48.7047 28.4655 51.3103 27.819 54.3233 27.819C57.3362 27.819 59.9353 28.4655 62.1207 29.7586C64.319 31.0388 66.0129 32.8362 67.2026 35.1509C68.3922 37.4526 68.9871 40.1422 68.9871 43.2198C68.9871 46.2716 68.3922 48.9547 67.2026 51.2694C66.0129 53.5711 64.319 55.3685 62.1207 56.6616C59.9353 57.9418 57.3362 58.5819 54.3233 58.5819ZM54.3621 52.181C55.7328 52.181 56.8772 51.7931 57.7953 51.0172C58.7134 50.2284 59.4052 49.1552 59.8707 47.7974C60.3491 46.4397 60.5884 44.8944 60.5884 43.1616C60.5884 41.4289 60.3491 39.8836 59.8707 38.5259C59.4052 37.1681 58.7134 36.0948 57.7953 35.306C56.8772 34.5172 55.7328 34.1228 54.3621 34.1228C52.9784 34.1228 51.8147 34.5172 50.8707 35.306C49.9397 36.0948 49.2349 37.1681 48.7565 38.5259C48.2909 39.8836 48.0582 41.4289 48.0582 43.1616C48.0582 44.8944 48.2909 46.4397 48.7565 47.7974C49.2349 49.1552 49.9397 50.2284 50.8707 51.0172C51.8147 51.7931 52.9784 52.181 54.3621 52.181ZM85.3384 58.4849C83.0754 58.4849 81.0259 57.903 79.1897 56.7392C77.3664 55.5625 75.9181 53.8362 74.8448 51.5603C73.7845 49.2716 73.2543 46.4655 73.2543 43.1422C73.2543 39.7284 73.8039 36.8901 74.903 34.6272C76.0022 32.3513 77.4634 30.6509 79.2866 29.5259C81.1228 28.3879 83.1336 27.819 85.319 27.819C86.9871 27.819 88.3772 28.1034 89.4892 28.6724C90.6142 29.2284 91.5194 29.9267 92.2047 30.7672C92.903 31.5948 93.4332 32.4095 93.7953 33.2112H94.0474V18.2759H102.291V58H94.1444V53.2284H93.7953C93.4073 54.056 92.8578 54.8772 92.1466 55.6918C91.4483 56.4935 90.5366 57.1595 89.4116 57.6897C88.2996 58.2198 86.9418 58.4849 85.3384 58.4849ZM87.9569 51.9095C89.2888 51.9095 90.4138 51.5474 91.3319 50.8233C92.2629 50.0862 92.9741 49.0582 93.4655 47.7392C93.9698 46.4203 94.222 44.875 94.222 43.1034C94.222 41.3319 93.9763 39.7931 93.4849 38.4871C92.9935 37.181 92.2823 36.1724 91.3513 35.4612C90.4203 34.75 89.2888 34.3944 87.9569 34.3944C86.5991 34.3944 85.4547 34.7629 84.5237 35.5C83.5927 36.2371 82.8879 37.2586 82.4095 38.5647C81.931 39.8707 81.6918 41.3836 81.6918 43.1034C81.6918 44.8362 81.931 46.3685 82.4095 47.7004C82.9009 49.0194 83.6056 50.0539 84.5237 50.8039C85.4547 51.5409 86.5991 51.9095 87.9569 51.9095ZM133.873 36.7026L126.309 37.1681C126.179 36.5216 125.901 35.9397 125.475 35.4224C125.048 34.8922 124.485 34.472 123.787 34.1616C123.102 33.8384 122.281 33.6767 121.324 33.6767C120.044 33.6767 118.964 33.9483 118.085 34.4914C117.205 35.0216 116.766 35.7328 116.766 36.625C116.766 37.3362 117.05 37.9375 117.619 38.4289C118.188 38.9203 119.164 39.3147 120.548 39.6121L125.94 40.6983C128.837 41.2931 130.996 42.25 132.419 43.569C133.841 44.8879 134.552 46.6207 134.552 48.7672C134.552 50.7198 133.977 52.4332 132.826 53.9073C131.688 55.3815 130.123 56.5323 128.132 57.3599C126.154 58.1746 123.871 58.5819 121.285 58.5819C117.341 58.5819 114.199 57.7608 111.858 56.1185C109.531 54.4634 108.166 52.2134 107.766 49.3685L115.893 48.9418C116.138 50.1444 116.733 51.0625 117.677 51.6961C118.621 52.3168 119.83 52.6272 121.304 52.6272C122.753 52.6272 123.916 52.3491 124.796 51.7931C125.688 51.2241 126.141 50.4935 126.154 49.6013C126.141 48.8513 125.824 48.2371 125.203 47.7586C124.582 47.2672 123.626 46.8922 122.332 46.6336L117.173 45.6056C114.263 45.0237 112.098 44.0151 110.675 42.5797C109.266 41.1444 108.561 39.3147 108.561 37.0905C108.561 35.1767 109.078 33.528 110.113 32.1444C111.16 30.7608 112.628 29.694 114.516 28.944C116.416 28.194 118.641 27.819 121.188 27.819C124.951 27.819 127.912 28.6142 130.072 30.2047C132.244 31.7953 133.511 33.9612 133.873 36.7026ZM148.018 18.2759V58H139.755V18.2759H148.018Z" fill="white"/>
</svg>
