<svg width="278" height="96" viewBox="0 0 278 96" fill="none" xmlns="http://www.w3.org/2000/svg">
<g filter="url(#filter0_dd_205_117)">
<path d="M258.643 27.6911C261.39 27.6911 264.024 28.7829 265.966 30.7253C267.908 32.6675 269 35.3028 269 38.0495V56.3424C269 59.0893 267.909 61.725 265.966 63.6676C264.024 65.6099 261.39 66.7008 258.643 66.7008H250.792C249.391 66.7198 248.096 65.9536 247.439 64.7165L247.403 64.6442C250.342 64.6261 252.94 64.2143 255.196 63.4059C257.519 62.5647 259.412 61.3951 260.875 59.8981C262.355 58.3868 263.335 56.619 263.812 54.5944L254.408 54.0387C254.058 54.8655 253.549 55.5642 252.88 56.1344C252.212 56.7046 251.409 57.1325 250.47 57.4176C249.531 57.7028 248.496 57.8454 247.367 57.8454C245.989 57.8453 244.763 57.6345 243.688 57.2145L240.037 49.9108H264.027V47.4088C264.027 44.6143 263.588 42.176 262.713 40.0944C261.838 37.9988 260.613 36.2595 259.039 34.8766C257.479 33.4936 255.649 32.4594 253.548 31.7751C251.464 31.0765 249.213 30.7272 246.794 30.7272C243.199 30.7272 240.064 31.4402 237.391 32.8659C235.752 33.7454 234.34 34.8399 233.155 36.1481L231.638 33.1149V33.1169C231.053 31.9545 231.112 30.5709 231.796 29.4645C232.481 28.3582 233.691 27.6858 234.992 27.6911H258.643ZM246.961 37.528C248.441 37.528 249.738 37.8204 250.852 38.4049C251.982 38.9752 252.865 39.7667 253.501 40.779C254.138 41.7912 254.456 42.9537 254.456 44.2653H239.072C239.133 43.0857 239.471 42.0091 240.087 41.0358C240.756 39.9666 241.679 39.1182 242.856 38.4909C244.049 37.8493 245.418 37.528 246.961 37.528Z" fill="url(#paint0_linear_205_117)"/>
<path d="M217.209 25.6055C218.614 25.5891 219.908 26.3624 220.562 27.6065L236.362 59.207C236.949 60.3681 236.889 61.7516 236.204 62.8584C235.521 63.9649 234.309 64.6373 233.008 64.6318H214.829C212.082 64.6317 209.447 63.5399 207.505 61.5977C205.563 59.6554 204.471 57.0216 204.471 54.2734V35.9805C204.467 33.2311 205.556 30.592 207.498 28.6455C209.442 26.6992 212.079 25.6056 214.829 25.6055H217.209Z" fill="url(#paint1_linear_205_117)"/>
<path d="M226.473 22.7425C225.396 23.3228 224.15 23.4153 223.01 23.0012C221.871 22.5858 220.931 21.6973 220.399 20.5301L216.371 11.7847H216.37C215.241 9.36049 216.142 6.40411 218.384 5.18212C220.627 3.9613 223.361 4.93554 224.49 7.36111L228.518 16.1065C229.07 17.2777 229.165 18.6406 228.78 19.888C228.396 21.1357 227.565 22.1636 226.473 22.7425Z" fill="url(#paint2_linear_205_117)"/>
<path d="M239.956 70.7177C241.897 69.7466 244.249 70.5482 245.215 72.5111L249.365 80.9173V80.9162C250.359 82.8703 249.6 85.2697 247.67 86.2755C245.741 87.2814 243.371 86.5123 242.378 84.5593L238.227 76.1531C237.728 75.2037 237.629 74.0892 237.956 73.065C238.282 72.0409 239.004 71.1945 239.956 70.7177Z" fill="url(#paint3_linear_205_117)"/>
<path d="M5.185 77.0389V30.2997H14.4797V36.0094H14.9002C15.3133 35.0946 15.9108 34.1652 16.6928 33.2209C17.4894 32.262 18.5222 31.4653 19.791 30.8309C21.0746 30.1817 22.6679 29.8571 24.5711 29.8571C27.0497 29.8571 29.3365 30.5063 31.4315 31.8046C33.5265 33.0882 35.2011 35.0282 36.4551 37.6249C37.7092 40.2067 38.3362 43.4451 38.3362 47.3401C38.3362 51.1317 37.7239 54.3332 36.4994 56.9446C35.2896 59.5412 33.6372 61.5108 31.5422 62.8534C29.4619 64.1812 27.1309 64.8451 24.549 64.8451C22.7196 64.8451 21.1631 64.5427 19.8795 63.9378C18.6107 63.3329 17.5706 62.5731 16.7591 61.6584C15.9477 60.7289 15.3281 59.792 14.9002 58.8478H14.6125V77.0389H5.185ZM14.4133 47.2958C14.4133 49.317 14.6937 51.0801 15.2543 52.5849C15.8149 54.0898 16.6264 55.2627 17.6886 56.1037C18.7509 56.9299 20.0418 57.343 21.5614 57.343C23.0958 57.343 24.3941 56.9225 25.4564 56.0815C26.5186 55.2258 27.3227 54.0455 27.8686 52.5407C28.4292 51.0211 28.7095 49.2728 28.7095 47.2958C28.7095 45.3336 28.4366 43.6074 27.8907 42.1173C27.3448 40.6272 26.5407 39.4617 25.4785 38.6207C24.4162 37.7798 23.1105 37.3593 21.5614 37.3593C20.0271 37.3593 18.7287 37.765 17.6665 38.5765C16.619 39.3879 15.8149 40.5387 15.2543 42.0288C14.6937 43.5189 14.4133 45.2746 14.4133 47.2958ZM66.2115 64.9558C62.7739 64.9558 59.8011 64.2255 57.293 62.7649C54.7996 61.2895 52.8743 59.2388 51.517 56.6127C50.1597 53.9718 49.481 50.9104 49.481 47.4286C49.481 43.9172 50.1597 40.8485 51.517 38.2224C52.8743 35.5815 54.7996 33.5308 57.293 32.0702C59.8011 30.5948 62.7739 29.8571 66.2115 29.8571C69.6491 29.8571 72.6145 30.5948 75.1079 32.0702C77.616 33.5308 79.5487 35.5815 80.906 38.2224C82.2633 40.8485 82.942 43.9172 82.942 47.4286C82.942 50.9104 82.2633 53.9718 80.906 56.6127C79.5487 59.2388 77.616 61.2895 75.1079 62.7649C72.6145 64.2255 69.6491 64.9558 66.2115 64.9558ZM66.2558 57.6528C67.8196 57.6528 69.1253 57.2102 70.1728 56.325C71.2203 55.425 72.0096 54.2005 72.5408 52.6513C73.0866 51.1022 73.3596 49.3392 73.3596 47.3622C73.3596 45.3852 73.0866 43.6222 72.5408 42.0731C72.0096 40.5239 71.2203 39.2994 70.1728 38.3994C69.1253 37.4995 67.8196 37.0495 66.2558 37.0495C64.6771 37.0495 63.3493 37.4995 62.2723 38.3994C61.2101 39.2994 60.406 40.5239 59.8601 42.0731C59.329 43.6222 59.0634 45.3852 59.0634 47.3622C59.0634 49.3392 59.329 51.1022 59.8601 52.6513C60.406 54.2005 61.2101 55.425 62.2723 56.325C63.3493 57.2102 64.6771 57.6528 66.2558 57.6528ZM107.83 64.8451C105.248 64.8451 102.909 64.1812 100.814 62.8534C98.7342 61.5108 97.0818 59.5412 95.8572 56.9446C94.6475 54.3332 94.0426 51.1317 94.0426 47.3401C94.0426 43.4451 94.6696 40.2067 95.9236 37.6249C97.1777 35.0282 98.8448 33.0882 100.925 31.8046C103.02 30.5063 105.314 29.8571 107.808 29.8571C109.711 29.8571 111.297 30.1817 112.566 30.8309C113.849 31.4653 114.882 32.262 115.664 33.2209C116.461 34.1652 117.065 35.0946 117.479 36.0094H117.766V18.969H127.172V64.2919H117.877V58.8478H117.479C117.036 59.792 116.409 60.7289 115.597 61.6584C114.801 62.5731 113.761 63.3329 112.477 63.9378C111.208 64.5427 109.659 64.8451 107.83 64.8451ZM110.817 57.343C112.337 57.343 113.62 56.9299 114.668 56.1037C115.73 55.2627 116.542 54.0898 117.102 52.5849C117.678 51.0801 117.965 49.317 117.965 47.2958C117.965 45.2746 117.685 43.5189 117.124 42.0288C116.564 40.5387 115.752 39.3879 114.69 38.5765C113.628 37.765 112.337 37.3593 110.817 37.3593C109.268 37.3593 107.963 37.7798 106.9 38.6207C105.838 39.4617 105.034 40.6272 104.488 42.1173C103.942 43.6074 103.669 45.3336 103.669 47.2958C103.669 49.2728 103.942 51.0211 104.488 52.5407C105.049 54.0455 105.853 55.2258 106.9 56.0815C107.963 56.9225 109.268 57.343 110.817 57.343ZM169.437 39.9928L160.806 40.5239C160.659 39.7863 160.342 39.1223 159.855 38.5322C159.368 37.9273 158.726 37.4478 157.929 37.0937C157.147 36.7249 156.211 36.5405 155.119 36.5405C153.658 36.5405 152.426 36.8503 151.423 37.47C150.42 38.0748 149.918 38.8863 149.918 39.9043C149.918 40.7157 150.243 41.4018 150.892 41.9624C151.541 42.523 152.655 42.973 154.234 43.3123L160.386 44.5516C163.691 45.2303 166.154 46.3221 167.777 47.8269C169.4 49.3318 170.212 51.3088 170.212 53.7578C170.212 55.9856 169.555 57.9405 168.242 59.6224C166.944 61.3043 165.159 62.6173 162.887 63.5616C160.629 64.491 158.025 64.9558 155.075 64.9558C150.575 64.9558 146.99 64.0189 144.319 62.1452C141.664 60.2568 140.107 57.6897 139.65 54.4439L148.922 53.957C149.203 55.3291 149.881 56.3766 150.958 57.0995C152.035 57.8077 153.415 58.1618 155.097 58.1618C156.749 58.1618 158.077 57.8446 159.08 57.2102C160.098 56.561 160.615 55.7274 160.629 54.7095C160.615 53.8537 160.253 53.153 159.545 52.6071C158.837 52.0464 157.745 51.6186 156.27 51.3235L150.383 50.1506C147.063 49.4867 144.592 48.3359 142.969 46.6983C141.361 45.0606 140.557 42.973 140.557 40.4354C140.557 38.2519 141.147 36.3708 142.328 34.7922C143.523 33.2136 145.197 31.9964 147.351 31.1407C149.52 30.285 152.057 29.8571 154.964 29.8571C159.257 29.8571 162.636 30.7645 165.1 32.5792C167.578 34.3938 169.024 36.8651 169.437 39.9928ZM191.808 18.969V64.2919H182.38V18.969H191.808Z" fill="url(#paint4_linear_205_117)"/>
</g>
<defs>
<filter id="filter0_dd_205_117" x="0.6" y="0.278931" width="276.5" height="94.8211" filterUnits="userSpaceOnUse" color-interpolation-filters="sRGB">
<feFlood flood-opacity="0" result="BackgroundImageFix"/>
<feColorMatrix in="SourceAlpha" type="matrix" values="0 0 0 0 0 0 0 0 0 0 0 0 0 0 0 0 0 0 127 0" result="hardAlpha"/>
<feOffset dx="1" dy="4"/>
<feGaussianBlur stdDeviation="0.55"/>
<feComposite in2="hardAlpha" operator="out"/>
<feColorMatrix type="matrix" values="0 0 0 0 0.889368 0 0 0 0 0.310747 0 0 0 0 0.94197 0 0 0 0.11 0"/>
<feBlend mode="normal" in2="BackgroundImageFix" result="effect1_dropShadow_205_117"/>
<feColorMatrix in="SourceAlpha" type="matrix" values="0 0 0 0 0 0 0 0 0 0 0 0 0 0 0 0 0 0 127 0" result="hardAlpha"/>
<feOffset dy="3"/>
<feGaussianBlur stdDeviation="0.2"/>
<feComposite in2="hardAlpha" operator="out"/>
<feColorMatrix type="matrix" values="0 0 0 0 0 0 0 0 0 0 0 0 0 0 0 0 0 0 0.17 0"/>
<feBlend mode="normal" in2="effect1_dropShadow_205_117" result="effect2_dropShadow_205_117"/>
<feBlend mode="normal" in="SourceGraphic" in2="effect2_dropShadow_205_117" result="shape"/>
</filter>
<linearGradient id="paint0_linear_205_117" x1="242.088" y1="16.5024" x2="262.267" y2="75.5338" gradientUnits="userSpaceOnUse">
<stop offset="0.115385" stop-color="#66E8C7"/>
<stop offset="0.653846" stop-color="#3992B8"/>
</linearGradient>
<linearGradient id="paint1_linear_205_117" x1="220.617" y1="25.6052" x2="220.617" y2="64.6319" gradientUnits="userSpaceOnUse">
<stop offset="0.192308" stop-color="#744EFF"/>
<stop offset="0.774038" stop-color="#462F99"/>
</linearGradient>
<linearGradient id="paint2_linear_205_117" x1="215.465" y1="-2.88487" x2="231.101" y2="21.9031" gradientUnits="userSpaceOnUse">
<stop stop-color="#DA6BE2"/>
<stop offset="1" stop-color="#423697"/>
</linearGradient>
<linearGradient id="paint3_linear_205_117" x1="243.784" y1="70.3052" x2="243.784" y2="86.7176" gradientUnits="userSpaceOnUse">
<stop stop-color="#78D9E0"/>
<stop offset="1" stop-color="#106056"/>
</linearGradient>
<linearGradient id="paint4_linear_205_117" x1="136.641" y1="-40.0263" x2="145.124" y2="133.899" gradientUnits="userSpaceOnUse">
<stop offset="0.149038" stop-color="#3AC2CE"/>
<stop offset="0.197115" stop-color="#71C2CC"/>
<stop offset="0.427885" stop-color="#B8C2CA"/>
<stop offset="0.581731" stop-color="#8596B1"/>
<stop offset="0.774038" stop-color="#160B3F"/>
<stop offset="0.9999" stop-color="#29084A"/>
<stop offset="1" stop-color="#2C2323"/>
</linearGradient>
</defs>
</svg>
