<svg width="253" height="90" viewBox="0 0 253 90" fill="none" xmlns="http://www.w3.org/2000/svg">
<g filter="url(#filter0_dd_205_117)">
<path d="M235.736 23.2256C238.246 23.2258 240.653 24.2232 242.429 25.998C244.204 27.7732 245.202 30.1821 245.202 32.6924V49.4111C245.202 51.9215 244.204 54.33 242.429 56.1055C240.654 57.8804 238.247 58.8777 235.736 58.8779H231.354C232.222 58.6996 233.047 58.469 233.826 58.1855C235.94 57.4085 237.663 56.329 238.995 54.9463C240.342 53.5503 241.232 51.9169 241.666 50.0469L233.109 49.5332C232.791 50.2971 232.327 50.9419 231.719 51.4688C231.111 51.9955 230.38 52.3909 229.525 52.6543C228.671 52.9177 227.73 53.0498 226.702 53.0498C225.153 53.0498 223.813 52.7528 222.684 52.1602C221.554 51.5675 220.678 50.7248 220.056 49.6318C219.448 48.5388 219.144 47.2415 219.144 45.7402V45.7207H241.862V43.4092C241.862 40.8278 241.463 38.5752 240.667 36.6523C239.871 34.7166 238.756 33.1094 237.322 31.832C235.903 30.5547 234.238 29.5999 232.327 28.9678C230.43 28.3225 228.381 28 226.181 28C222.908 28 220.056 28.6586 217.623 29.9756C215.205 31.2926 213.33 33.1299 211.998 35.4873C211.826 35.791 211.665 36.1006 211.516 36.417L207.399 28.1826V28.1836C206.865 27.1213 206.918 25.8578 207.544 24.8467C208.17 23.8354 209.276 23.2206 210.465 23.2256H235.736ZM226.333 34.2822C227.679 34.2823 228.86 34.5519 229.873 35.0918C230.901 35.6186 231.705 36.3501 232.284 37.2852C232.863 38.2201 233.152 39.2934 233.152 40.5049H219.155C219.211 39.4156 219.516 38.4213 220.077 37.5225C220.685 36.5348 221.525 35.7504 222.597 35.1709C223.683 34.5782 224.928 34.2822 226.333 34.2822Z" fill="url(#paint0_linear_205_117)"/>
<path d="M193.298 23.1473C194.582 23.1324 195.765 23.8385 196.362 24.9755L210.803 53.8573C211.339 54.9184 211.284 56.1827 210.658 57.1942C210.034 58.2055 208.927 58.8203 207.737 58.8153H182.467C179.957 58.8152 177.549 57.8169 175.773 56.0419C173.998 54.2666 173 51.8593 173 49.3475V32.6298C172.996 30.117 173.992 27.7046 175.767 25.9257C177.543 24.1468 179.953 23.1475 182.467 23.1473H193.298Z" fill="url(#paint1_linear_205_117)"/>
<path d="M197.05 16.7904C195.969 17.3291 194.719 17.4149 193.574 17.0305C192.431 16.6449 191.487 15.8201 190.953 14.7365L186.91 6.61805H186.909C185.775 4.3676 186.68 1.62314 188.93 0.488741C191.182 -0.644573 193.926 0.259837 195.06 2.51154L199.103 10.63C199.657 11.7173 199.752 12.9825 199.366 14.1405C198.981 15.2987 198.146 16.253 197.05 16.7904Z" fill="url(#paint2_linear_205_117)"/>
<path d="M220.333 63.6758C222.584 62.5637 225.311 63.4817 226.431 65.7297L231.244 75.3571V75.3559C232.396 77.5939 231.516 80.3419 229.278 81.4938C227.041 82.6457 224.293 81.765 223.141 79.5282L218.328 69.9008C217.75 68.8135 217.635 67.5371 218.013 66.3642C218.392 65.1912 219.229 64.2219 220.333 63.6758Z" fill="url(#paint3_linear_205_117)"/>
<path d="M9.00647 69.1724V28.2069H18.3944V33.3082H18.6853C19.0733 32.403 19.6228 31.5302 20.3341 30.6897C21.0582 29.8491 21.9763 29.1638 23.0884 28.6336C24.2134 28.0905 25.5582 27.819 27.1228 27.819C29.1918 27.819 31.125 28.3621 32.9224 29.4483C34.7328 30.5345 36.194 32.2091 37.306 34.472C38.4181 36.7349 38.9741 39.6185 38.9741 43.1228C38.9741 46.4978 38.4375 49.3233 37.3642 51.5991C36.3039 53.875 34.8685 55.5819 33.0582 56.7198C31.2608 57.8578 29.2629 58.4267 27.0647 58.4267C25.5647 58.4267 24.2651 58.181 23.1659 57.6897C22.0668 57.1983 21.1422 56.5517 20.3922 55.75C19.6552 54.9483 19.0862 54.0884 18.6853 53.1703H18.4914V69.1724H9.00647ZM18.2974 43.1034C18.2974 44.7069 18.5108 46.1034 18.9375 47.2931C19.3772 48.4828 20.0043 49.4073 20.819 50.0668C21.6466 50.7134 22.6358 51.0366 23.7866 51.0366C24.9504 51.0366 25.9397 50.7134 26.7543 50.0668C27.569 49.4073 28.1832 48.4828 28.597 47.2931C29.0237 46.1034 29.2371 44.7069 29.2371 43.1034C29.2371 41.5 29.0237 40.1099 28.597 38.9332C28.1832 37.7565 27.569 36.8448 26.7543 36.1983C25.9526 35.5517 24.9634 35.2284 23.7866 35.2284C22.6228 35.2284 21.6336 35.5453 20.819 36.1789C20.0043 36.8125 19.3772 37.7177 18.9375 38.8944C18.5108 40.0711 18.2974 41.4741 18.2974 43.1034ZM60.5829 58.5625C57.4536 58.5625 54.7639 57.9224 52.5139 56.6422C50.2768 55.3491 48.5505 53.5517 47.335 51.25C46.1324 48.9353 45.5311 46.2522 45.5311 43.2004C45.5311 40.1358 46.1324 37.4526 47.335 35.1509C48.5505 32.8362 50.2768 31.0388 52.5139 29.7586C54.7639 28.4655 57.4536 27.819 60.5829 27.819C63.7122 27.819 66.3954 28.4655 68.6324 29.7586C70.8824 31.0388 72.6087 32.8362 73.8113 35.1509C75.0268 37.4526 75.6346 40.1358 75.6346 43.2004C75.6346 46.2522 75.0268 48.9353 73.8113 51.25C72.6087 53.5517 70.8824 55.3491 68.6324 56.6422C66.3954 57.9224 63.7122 58.5625 60.5829 58.5625ZM60.6411 51.4052C61.779 51.4052 62.7423 51.056 63.5311 50.3578C64.3199 49.6595 64.9212 48.6897 65.335 47.4483C65.7617 46.2069 65.9751 44.7716 65.9751 43.1422C65.9751 41.4871 65.7617 40.0388 65.335 38.7974C64.9212 37.556 64.3199 36.5862 63.5311 35.8879C62.7423 35.1897 61.779 34.8405 60.6411 34.8405C59.4643 34.8405 58.4686 35.1897 57.654 35.8879C56.8523 36.5862 56.238 37.556 55.8113 38.7974C55.3975 40.0388 55.1906 41.4871 55.1906 43.1422C55.1906 44.7716 55.3975 46.2069 55.8113 47.4483C56.238 48.6897 56.8523 49.6595 57.654 50.3578C58.4686 51.056 59.4643 51.4052 60.6411 51.4052ZM94.1059 58.4267C91.9077 58.4267 89.9098 57.8578 88.1124 56.7198C86.315 55.5819 84.8796 53.875 83.8064 51.5991C82.7331 49.3233 82.1964 46.4978 82.1964 43.1228C82.1964 39.6185 82.7525 36.7349 83.8645 34.472C84.9766 32.2091 86.4314 30.5345 88.2288 29.4483C90.0391 28.3621 91.9852 27.819 94.0671 27.819C95.6318 27.819 96.9702 28.0905 98.0822 28.6336C99.1943 29.1638 100.112 29.8491 100.837 30.6897C101.561 31.5302 102.11 32.403 102.485 33.3082H102.679V18.2759H112.164V58H102.776V53.1703H102.485C102.084 54.0884 101.515 54.9483 100.778 55.75C100.041 56.5517 99.1167 57.1983 98.0046 57.6897C96.9055 58.181 95.6059 58.4267 94.1059 58.4267ZM97.4033 51.0366C98.5542 51.0366 99.537 50.7134 100.352 50.0668C101.166 49.4073 101.793 48.4828 102.233 47.2931C102.673 46.1034 102.893 44.7069 102.893 43.1034C102.893 41.4741 102.673 40.0711 102.233 38.8944C101.806 37.7177 101.179 36.8125 100.352 36.1789C99.537 35.5453 98.5542 35.2284 97.4033 35.2284C96.2266 35.2284 95.2309 35.5517 94.4163 36.1983C93.6016 36.8448 92.9809 37.7565 92.5542 38.9332C92.1404 40.1099 91.9335 41.5 91.9335 43.1034C91.9335 44.7069 92.1469 46.1034 92.5736 47.2931C93.0003 48.4828 93.6145 49.4073 94.4163 50.0668C95.2309 50.7134 96.2266 51.0366 97.4033 51.0366ZM146.904 37.3039L138.195 37.5366C138.105 36.9159 137.859 36.3664 137.458 35.8879C137.057 35.3966 136.534 35.0151 135.887 34.7435C135.253 34.4591 134.516 34.3168 133.676 34.3168C132.577 34.3168 131.639 34.5366 130.863 34.9763C130.1 35.4159 129.725 36.0108 129.738 36.7608C129.725 37.3427 129.958 37.847 130.437 38.2737C130.928 38.7004 131.801 39.0431 133.055 39.3017L138.797 40.3879C141.771 40.9569 143.982 41.9009 145.43 43.2198C146.891 44.5388 147.628 46.2845 147.641 48.4569C147.628 50.5 147.021 52.278 145.818 53.7909C144.628 55.3039 142.999 56.4806 140.93 57.3211C138.861 58.1487 136.495 58.5625 133.831 58.5625C129.577 58.5625 126.221 57.6897 123.764 55.944C121.32 54.1853 119.924 51.8319 119.575 48.8836L128.943 48.6509C129.15 49.7371 129.687 50.5647 130.553 51.1336C131.419 51.7026 132.525 51.9871 133.87 51.9871C135.085 51.9871 136.075 51.7608 136.837 51.3082C137.6 50.8556 137.988 50.2543 138.001 49.5043C137.988 48.8319 137.691 48.2953 137.109 47.8944C136.527 47.4806 135.616 47.1573 134.374 46.9246L129.176 45.9353C126.189 45.3922 123.965 44.3901 122.503 42.9289C121.042 41.4547 120.318 39.5797 120.331 37.3039C120.318 35.3125 120.848 33.6121 121.922 32.2026C122.995 30.7802 124.521 29.694 126.499 28.944C128.478 28.194 130.812 27.819 133.501 27.819C137.536 27.819 140.717 28.6659 143.044 30.3599C145.372 32.0409 146.659 34.3556 146.904 37.3039ZM164.527 18.2759V58H155.042V18.2759H164.527Z" fill="url(#paint4_linear_205_117)"/>
</g>
<defs>
<filter id="filter0_dd_205_117" x="0.6" y="0" width="251.6" height="89.2" filterUnits="userSpaceOnUse" color-interpolation-filters="sRGB">
<feFlood flood-opacity="0" result="BackgroundImageFix"/>
<feColorMatrix in="SourceAlpha" type="matrix" values="0 0 0 0 0 0 0 0 0 0 0 0 0 0 0 0 0 0 127 0" result="hardAlpha"/>
<feOffset dx="3" dy="4"/>
<feGaussianBlur stdDeviation="1.6"/>
<feComposite in2="hardAlpha" operator="out"/>
<feColorMatrix type="matrix" values="0 0 0 0 0.44697 0 0 0 0 0.185452 0 0 0 0 0.726525 0 0 0 0.78 0"/>
<feBlend mode="normal" in2="BackgroundImageFix" result="effect1_dropShadow_205_117"/>
<feColorMatrix in="SourceAlpha" type="matrix" values="0 0 0 0 0 0 0 0 0 0 0 0 0 0 0 0 0 0 127 0" result="hardAlpha"/>
<feOffset dy="4"/>
<feGaussianBlur stdDeviation="1.2"/>
<feComposite in2="hardAlpha" operator="out"/>
<feColorMatrix type="matrix" values="0 0 0 0 0 0 0 0 0 0 0 0 0 0 0 0 0 0 0.51 0"/>
<feBlend mode="normal" in2="effect1_dropShadow_205_117" result="effect2_dropShadow_205_117"/>
<feBlend mode="normal" in="SourceGraphic" in2="effect2_dropShadow_205_117" result="shape"/>
</filter>
<linearGradient id="paint0_linear_205_117" x1="226.118" y1="23.2256" x2="226.118" y2="58.878" gradientUnits="userSpaceOnUse">
<stop stop-color="#66CEE8"/>
<stop offset="1" stop-color="#3E7979"/>
</linearGradient>
<linearGradient id="paint1_linear_205_117" x1="192.085" y1="23.1473" x2="192.085" y2="58.8156" gradientUnits="userSpaceOnUse">
<stop offset="0.192308" stop-color="#744EFF"/>
<stop offset="0.774038" stop-color="#462F99"/>
</linearGradient>
<linearGradient id="paint2_linear_205_117" x1="193.01" y1="0" x2="193.01" y2="17.2674" gradientUnits="userSpaceOnUse">
<stop stop-color="#DA6BE2"/>
<stop offset="1" stop-color="#C949D2"/>
</linearGradient>
<linearGradient id="paint3_linear_205_117" x1="224.772" y1="63.2034" x2="224.772" y2="82" gradientUnits="userSpaceOnUse">
<stop stop-color="#D1FFE8"/>
<stop offset="1" stop-color="#458665"/>
</linearGradient>
<linearGradient id="paint4_linear_205_117" x1="126" y1="-25.5" x2="132" y2="109" gradientUnits="userSpaceOnUse">
<stop offset="0.0930947" stop-color="#D9D9D9"/>
<stop offset="0.12178" stop-color="#6DCEAA"/>
<stop offset="0.486588" stop-color="#FFF9F9"/>
<stop offset="0.740385" stop-color="#4C4271"/>
<stop offset="0.9999" stop-color="#29084A"/>
<stop offset="1" stop-color="#2C2323"/>
</linearGradient>
</defs>
</svg>
