<svg width="990" height="743" viewBox="0 0 990 743" fill="none" xmlns="http://www.w3.org/2000/svg">
<g clip-path="url(#clip0_157_87)">
<g filter="url(#filter0_f_157_87)">
<path d="M648.393 73V-321L0 -321V73L648.393 73Z" fill="url(#paint0_linear_157_87)" fill-opacity="0.3"/>
</g>
<g filter="url(#filter1_f_157_87)">
<path d="M1400.39 73V-321L752 -321V73L1400.39 73Z" fill="url(#paint1_linear_157_87)" fill-opacity="0.11"/>
</g>
<g filter="url(#filter2_f_157_87)">
<path d="M-122 -162C-122 64.4367 90.9182 248 353.566 248C616.214 248 829.132 64.4367 829.132 -162C829.132 -388.437 616.214 -572 353.566 -572C90.9182 -572 -122 -388.437 -122 -162Z" fill="url(#paint2_linear_157_87)" fill-opacity="0.5"/>
</g>
</g>
<defs>
<filter id="filter0_f_157_87" x="-200" y="-521" width="1048.39" height="794" filterUnits="userSpaceOnUse" color-interpolation-filters="sRGB">
<feFlood flood-opacity="0" result="BackgroundImageFix"/>
<feBlend mode="normal" in="SourceGraphic" in2="BackgroundImageFix" result="shape"/>
<feGaussianBlur stdDeviation="100" result="effect1_foregroundBlur_157_87"/>
</filter>
<filter id="filter1_f_157_87" x="552" y="-521" width="1048.39" height="794" filterUnits="userSpaceOnUse" color-interpolation-filters="sRGB">
<feFlood flood-opacity="0" result="BackgroundImageFix"/>
<feBlend mode="normal" in="SourceGraphic" in2="BackgroundImageFix" result="shape"/>
<feGaussianBlur stdDeviation="100" result="effect1_foregroundBlur_157_87"/>
</filter>
<filter id="filter2_f_157_87" x="-322" y="-772" width="1351.13" height="1220" filterUnits="userSpaceOnUse" color-interpolation-filters="sRGB">
<feFlood flood-opacity="0" result="BackgroundImageFix"/>
<feBlend mode="normal" in="SourceGraphic" in2="BackgroundImageFix" result="shape"/>
<feGaussianBlur stdDeviation="100" result="effect1_foregroundBlur_157_87"/>
</filter>
<linearGradient id="paint0_linear_157_87" x1="648.393" y1="-124" x2="0.00301447" y2="-124" gradientUnits="userSpaceOnUse">
<stop stop-color="white" stop-opacity="0"/>
<stop offset="1" stop-color="#A92583"/>
</linearGradient>
<linearGradient id="paint1_linear_157_87" x1="1400.39" y1="-124" x2="752.003" y2="-124" gradientUnits="userSpaceOnUse">
<stop stop-color="white" stop-opacity="0"/>
<stop offset="1" stop-color="#25A974"/>
</linearGradient>
<linearGradient id="paint2_linear_157_87" x1="829.132" y1="-162" x2="-122.004" y2="-162" gradientUnits="userSpaceOnUse">
<stop stop-color="#FFFBE5" stop-opacity="0"/>
<stop offset="0.355" stop-color="#15E3E3" stop-opacity="0.1"/>
<stop offset="0.805" stop-opacity="0.8"/>
</linearGradient>
<clipPath id="clip0_157_87">
<rect width="990" height="743" fill="white" transform="matrix(-1 0 0 -1 990 743)"/>
</clipPath>
</defs>
</svg>
