<svg width="1042" height="689" viewBox="0 0 1042 689" fill="none" xmlns="http://www.w3.org/2000/svg">
<g clip-path="url(#clip0_157_95)">
<mask id="mask0_157_95" style="mask-type:luminance" maskUnits="userSpaceOnUse" x="0" y="0" width="1042" height="689">
<path d="M0 0H1041.59V689H0V0Z" fill="white"/>
</mask>
<g mask="url(#mask0_157_95)">
<g filter="url(#filter0_f_157_95)">
<path d="M1439.28 -64.748V212.541H711.521V-64.748H1439.28Z" fill="url(#paint0_linear_157_95)" fill-opacity="0.02"/>
</g>
</g>
<g filter="url(#filter1_f_157_95)">
<path d="M1245.56 186.549C1245.56 345.911 1006.58 475.099 711.778 475.099C416.981 475.099 178 345.911 178 186.549C178 27.1874 416.981 -102 711.778 -102C1006.58 -102 1245.56 27.1874 1245.56 186.549Z" fill="url(#paint1_linear_157_95)" fill-opacity="0.12"/>
</g>
</g>
<defs>
<filter id="filter0_f_157_95" x="570.765" y="-205.504" width="1009.27" height="558.801" filterUnits="userSpaceOnUse" color-interpolation-filters="sRGB">
<feFlood flood-opacity="0" result="BackgroundImageFix"/>
<feBlend mode="normal" in="SourceGraphic" in2="BackgroundImageFix" result="shape"/>
<feGaussianBlur stdDeviation="70.3779" result="effect1_foregroundBlur_157_95"/>
</filter>
<filter id="filter1_f_157_95" x="37.2441" y="-242.756" width="1349.07" height="858.61" filterUnits="userSpaceOnUse" color-interpolation-filters="sRGB">
<feFlood flood-opacity="0" result="BackgroundImageFix"/>
<feBlend mode="normal" in="SourceGraphic" in2="BackgroundImageFix" result="shape"/>
<feGaussianBlur stdDeviation="70.3779" result="effect1_foregroundBlur_157_95"/>
</filter>
<linearGradient id="paint0_linear_157_95" x1="1439.28" y1="73.8965" x2="711.524" y2="73.8965" gradientUnits="userSpaceOnUse">
<stop stop-color="white" stop-opacity="0"/>
<stop offset="1" stop-color="#DAE0FF"/>
</linearGradient>
<linearGradient id="paint1_linear_157_95" x1="178" y1="186.549" x2="1245.56" y2="186.549" gradientUnits="userSpaceOnUse">
<stop stop-color="#FFFBE5" stop-opacity="0"/>
<stop offset="0.355" stop-color="#CAAFFA" stop-opacity="0.1"/>
<stop offset="0.805" stop-color="#A609FB" stop-opacity="0.8"/>
</linearGradient>
<clipPath id="clip0_157_95">
<rect width="1041.59" height="689" fill="white" transform="matrix(-1 0 0 1 1041.59 0)"/>
</clipPath>
</defs>
</svg>
