<svg width="1597" height="1138" viewBox="0 0 1597 1138" fill="none" xmlns="http://www.w3.org/2000/svg">
<g clip-path="url(#clip0_143_80)">
<g opacity="0.56" filter="url(#filter0_f_143_80)">
<path d="M279.801 157.788C398.984 146.307 538.371 321.103 591.129 548.205C643.888 775.307 590.04 968.717 470.857 980.197C351.673 991.678 212.287 816.882 159.528 589.78C106.769 362.678 160.617 169.269 279.801 157.788Z" fill="url(#paint0_linear_143_80)" fill-opacity="0.21" style="mix-blend-mode:multiply"/>
</g>
<g opacity="0.56" filter="url(#filter1_f_143_80)">
<path d="M1024.15 278.144C1149.04 266.315 1262.8 309.684 1278.24 375.014C1293.67 440.343 1204.94 502.892 1080.04 514.722C955.145 526.552 841.383 483.182 825.948 417.852C810.513 352.523 899.249 289.974 1024.15 278.144Z" fill="url(#paint1_linear_143_80)" fill-opacity="0.43" style="mix-blend-mode:multiply"/>
</g>
</g>
<defs>
<filter id="filter0_f_143_80" x="-60.7295" y="-42.7466" width="872.116" height="1223.48" filterUnits="userSpaceOnUse" color-interpolation-filters="sRGB">
<feFlood flood-opacity="0" result="BackgroundImageFix"/>
<feBlend mode="normal" in="SourceGraphic" in2="BackgroundImageFix" result="shape"/>
<feGaussianBlur stdDeviation="100" result="effect1_foregroundBlur_143_80"/>
</filter>
<filter id="filter1_f_143_80" x="624.204" y="76.1997" width="855.779" height="640.467" filterUnits="userSpaceOnUse" color-interpolation-filters="sRGB">
<feFlood flood-opacity="0" result="BackgroundImageFix"/>
<feBlend mode="normal" in="SourceGraphic" in2="BackgroundImageFix" result="shape"/>
<feGaussianBlur stdDeviation="100" result="effect1_foregroundBlur_143_80"/>
</filter>
<linearGradient id="paint0_linear_143_80" x1="470.857" y1="980.197" x2="390.607" y2="147.114" gradientUnits="userSpaceOnUse">
<stop stop-color="#421108" stop-opacity="0"/>
<stop offset="0.58749" stop-color="#FF8E7A" stop-opacity="0.6"/>
<stop offset="0.805" stop-color="#5FF8FB" stop-opacity="0.7"/>
</linearGradient>
<linearGradient id="paint1_linear_143_80" x1="1080.04" y1="514.722" x2="1057.34" y2="275.001" gradientUnits="userSpaceOnUse">
<stop stop-color="#421108" stop-opacity="0"/>
<stop offset="0.58749" stop-color="#FF7AD9" stop-opacity="0.6"/>
<stop offset="0.805" stop-color="#38E9DA" stop-opacity="0.7"/>
</linearGradient>
<clipPath id="clip0_143_80">
<rect width="1597" height="1138" fill="white"/>
</clipPath>
</defs>
</svg>
