<svg width="1597" height="1138" viewBox="0 0 1597 1138" fill="none" xmlns="http://www.w3.org/2000/svg">
<g clip-path="url(#clip0_143_80)">
<g opacity="0.1" filter="url(#filter0_f_143_80)">
<path d="M1009.99 116.058C1237.56 132.092 1455.97 -15.9783 1497.82 -214.666C1539.68 -413.353 1389.13 -587.418 1161.56 -603.452C933.996 -619.485 715.588 -471.415 673.732 -272.728C631.877 -74.0407 782.425 100.025 1009.99 116.058Z" fill="url(#paint0_linear_143_80)" fill-opacity="0.51" style="mix-blend-mode:multiply"/>
<g opacity="0.56" filter="url(#filter1_f_143_80)">
<path d="M917.492 -25.0363C967.717 -109.213 1092.41 -104.889 1196 -15.3791C1299.6 74.1314 1342.86 214.933 1292.63 299.11C1242.41 383.287 1117.72 378.963 1014.12 289.452C910.532 199.942 867.268 59.1406 917.492 -25.0363Z" fill="url(#paint1_linear_143_80)" style="mix-blend-mode:multiply"/>
</g>
</g>
<g opacity="0.56" filter="url(#filter2_f_143_80)">
<path d="M487.85 796.702C604.3 947.917 830.664 994.938 993.448 901.726C1156.23 808.515 1193.8 610.368 1077.35 459.154C960.896 307.939 734.532 260.919 571.748 354.13C408.963 447.342 371.401 645.488 487.85 796.702Z" fill="url(#paint2_linear_143_80)" fill-opacity="0.12" style="mix-blend-mode:multiply"/>
</g>
<g opacity="0.56" filter="url(#filter3_f_143_80)">
<path d="M333.035 325.242C404.299 415.305 570.378 425.478 703.982 347.965C837.586 270.451 888.123 134.605 816.859 44.5422C745.595 -45.5202 579.516 -55.6934 445.912 21.8198C312.307 99.3329 261.771 235.18 333.035 325.242Z" fill="url(#paint3_linear_143_80)" fill-opacity="0.16" style="mix-blend-mode:exclusion"/>
</g>
</g>
<defs>
<filter id="filter0_f_143_80" x="566.747" y="-704.64" width="1038.06" height="1164.16" filterUnits="userSpaceOnUse" color-interpolation-filters="sRGB">
<feFlood flood-opacity="0" result="BackgroundImageFix"/>
<feBlend mode="normal" in="SourceGraphic" in2="BackgroundImageFix" result="shape"/>
<feGaussianBlur stdDeviation="50" result="effect1_foregroundBlur_143_80"/>
</filter>
<filter id="filter1_f_143_80" x="696.562" y="-285.446" width="817.003" height="844.965" filterUnits="userSpaceOnUse" color-interpolation-filters="sRGB">
<feFlood flood-opacity="0" result="BackgroundImageFix"/>
<feBlend mode="normal" in="SourceGraphic" in2="BackgroundImageFix" result="shape"/>
<feGaussianBlur stdDeviation="100" result="effect1_foregroundBlur_143_80"/>
</filter>
<filter id="filter2_f_143_80" x="220.17" y="106.247" width="1124.86" height="1043.36" filterUnits="userSpaceOnUse" color-interpolation-filters="sRGB">
<feFlood flood-opacity="0" result="BackgroundImageFix"/>
<feBlend mode="normal" in="SourceGraphic" in2="BackgroundImageFix" result="shape"/>
<feGaussianBlur stdDeviation="100" result="effect1_foregroundBlur_143_80"/>
</filter>
<filter id="filter3_f_143_80" x="40.6185" y="-290.364" width="1068.66" height="950.513" filterUnits="userSpaceOnUse" color-interpolation-filters="sRGB">
<feFlood flood-opacity="0" result="BackgroundImageFix"/>
<feBlend mode="normal" in="SourceGraphic" in2="BackgroundImageFix" result="shape"/>
<feGaussianBlur stdDeviation="130.05" result="effect1_foregroundBlur_143_80"/>
</filter>
<linearGradient id="paint0_linear_143_80" x1="1161.56" y1="-603.452" x2="1110.37" y2="123.131" gradientUnits="userSpaceOnUse">
<stop stop-color="#421108" stop-opacity="0"/>
<stop offset="0.58749" stop-color="#937AFF" stop-opacity="0.6"/>
<stop offset="0.805" stop-color="#6461FC"/>
</linearGradient>
<linearGradient id="paint1_linear_143_80" x1="1292.63" y1="299.11" x2="873.352" y2="48.9434" gradientUnits="userSpaceOnUse">
<stop stop-color="#F8C5C5" stop-opacity="0"/>
<stop offset="0.58749" stop-color="#8A7AFF" stop-opacity="0.6"/>
<stop offset="0.805" stop-color="#E574D0" stop-opacity="0.7"/>
</linearGradient>
<linearGradient id="paint2_linear_143_80" x1="1077.35" y1="459.154" x2="544.128" y2="869.782" gradientUnits="userSpaceOnUse">
<stop stop-color="#F8C5C5" stop-opacity="0"/>
<stop offset="0.58749" stop-color="#8A7AFF" stop-opacity="0.6"/>
<stop offset="0.805" stop-color="#702543" stop-opacity="0.7"/>
</linearGradient>
<linearGradient id="paint3_linear_143_80" x1="816.859" y1="44.5422" x2="382.735" y2="388.053" gradientUnits="userSpaceOnUse">
<stop stop-color="#F8C5C5" stop-opacity="0"/>
<stop offset="0.58749" stop-color="#F6B7C7"/>
<stop offset="0.805" stop-color="#255270" stop-opacity="0.7"/>
</linearGradient>
<clipPath id="clip0_143_80">
<rect width="1597" height="1138" fill="white" transform="matrix(1 0 0 -1 0 1138)"/>
</clipPath>
</defs>
</svg>
