<svg width="1440" height="919" viewBox="0 0 1440 919" fill="none" xmlns="http://www.w3.org/2000/svg">
<g clip-path="url(#clip0_149_70)">
<g style="mix-blend-mode:screen" opacity="0.2">
<mask id="mask0_149_70" style="mask-type:alpha" maskUnits="userSpaceOnUse" x="0" y="0" width="1440" height="919">
<g style="mix-blend-mode:screen" opacity="0.2">
<path d="M1440 0H0V919H1440V0Z" fill="url(#paint0_radial_149_70)"/>
</g>
</mask>
<g mask="url(#mask0_149_70)">
<path d="M45.4791 0.51123H0.510986V45.4793H45.4791V0.51123Z" stroke="#FF72E1" stroke-width="1.022"/>
<path d="M90.4478 0.51123H45.4797V45.4793H90.4478V0.51123Z" stroke="#FF72E1" stroke-width="1.022"/>
<path d="M135.417 0.51123H90.4485V45.4793H135.417V0.51123Z" stroke="#FF72E1" stroke-width="1.022"/>
<path d="M180.381 0.51123H135.413V45.4793H180.381V0.51123Z" stroke="#FF72E1" stroke-width="1.022"/>
<path d="M225.35 0.51123H180.382V45.4793H225.35V0.51123Z" stroke="#FF72E1" stroke-width="1.022"/>
<path d="M270.319 0.51123H225.351V45.4793H270.319V0.51123Z" stroke="#FF72E1" stroke-width="1.022"/>
<path d="M315.288 0.51123H270.32V45.4793H315.288V0.51123Z" stroke="#FF72E1" stroke-width="1.022"/>
<path d="M360.256 0.51123H315.288V45.4793H360.256V0.51123Z" stroke="#FF72E1" stroke-width="1.022"/>
<path d="M405.225 0.51123H360.257V45.4793H405.225V0.51123Z" stroke="#FF72E1" stroke-width="1.022"/>
<path d="M450.19 0.51123H405.222V45.4793H450.19V0.51123Z" stroke="#FF72E1" stroke-width="1.022"/>
<path d="M495.159 0.51123H450.191V45.4793H495.159V0.51123Z" stroke="#FF72E1" stroke-width="1.022"/>
<path d="M540.127 0.51123H495.159V45.4793H540.127V0.51123Z" stroke="#FF72E1" stroke-width="1.022"/>
<path d="M585.096 0.51123H540.128V45.4793H585.096V0.51123Z" stroke="#FF72E1" stroke-width="1.022"/>
<path d="M630.065 0.51123H585.097V45.4793H630.065V0.51123Z" stroke="#FF72E1" stroke-width="1.022"/>
<path d="M675.034 0.51123H630.066V45.4793H675.034V0.51123Z" stroke="#FF72E1" stroke-width="1.022"/>
<path d="M719.999 0.51123H675.031V45.4793H719.999V0.51123Z" stroke="#FF72E1" stroke-width="1.022"/>
<path d="M764.967 0.51123H719.999V45.4793H764.967V0.51123Z" stroke="#FF72E1" stroke-width="1.022"/>
<path d="M809.936 0.51123H764.968V45.4793H809.936V0.51123Z" stroke="#FF72E1" stroke-width="1.022"/>
<path d="M854.905 0.51123H809.937V45.4793H854.905V0.51123Z" stroke="#FF72E1" stroke-width="1.022"/>
<path d="M899.874 0.51123H854.906V45.4793H899.874V0.51123Z" stroke="#FF72E1" stroke-width="1.022"/>
<path d="M944.838 0.51123H899.87V45.4793H944.838V0.51123Z" stroke="#FF72E1" stroke-width="1.022"/>
<path d="M989.807 0.51123H944.839V45.4793H989.807V0.51123Z" stroke="#FF72E1" stroke-width="1.022"/>
<path d="M1034.78 0.51123H989.808V45.4793H1034.78V0.51123Z" stroke="#FF72E1" stroke-width="1.022"/>
<path d="M1079.75 0.51123H1034.78V45.4793H1079.75V0.51123Z" stroke="#FF72E1" stroke-width="1.022"/>
<path d="M1124.72 0.51123H1079.75V45.4793H1124.72V0.51123Z" stroke="#FF72E1" stroke-width="1.022"/>
<path d="M1169.68 0.51123H1124.71V45.4793H1169.68V0.51123Z" stroke="#FF72E1" stroke-width="1.022"/>
<path d="M1214.65 0.51123H1169.68V45.4793H1214.65V0.51123Z" stroke="#FF72E1" stroke-width="1.022"/>
<path d="M1259.62 0.51123H1214.65V45.4793H1259.62V0.51123Z" stroke="#FF72E1" stroke-width="1.022"/>
<path d="M1304.59 0.51123H1259.62V45.4793H1304.59V0.51123Z" stroke="#FF72E1" stroke-width="1.022"/>
<path d="M1349.56 0.51123H1304.59V45.4793H1349.56V0.51123Z" stroke="#FF72E1" stroke-width="1.022"/>
<path d="M1394.52 0.51123H1349.55V45.4793H1394.52V0.51123Z" stroke="#FF72E1" stroke-width="1.022"/>
<path d="M1439.49 0.51123H1394.52V45.4793H1439.49V0.51123Z" stroke="#FF72E1" stroke-width="1.022"/>
<path d="M45.4791 45.479H0.510986V90.4471H45.4791V45.479Z" stroke="#FF72E1" stroke-width="1.022"/>
<path d="M90.4478 45.479H45.4797V90.4471H90.4478V45.479Z" stroke="#FF72E1" stroke-width="1.022"/>
<path d="M135.417 45.479H90.4485V90.4471H135.417V45.479Z" stroke="#FF72E1" stroke-width="1.022"/>
<path d="M180.381 45.479H135.413V90.4471H180.381V45.479Z" stroke="#FF72E1" stroke-width="1.022"/>
<path d="M225.35 45.479H180.382V90.4471H225.35V45.479Z" stroke="#FF72E1" stroke-width="1.022"/>
<path d="M270.319 45.479H225.351V90.4471H270.319V45.479Z" stroke="#FF72E1" stroke-width="1.022"/>
<path d="M315.288 45.479H270.32V90.4471H315.288V45.479Z" stroke="#FF72E1" stroke-width="1.022"/>
<path d="M360.256 45.479H315.288V90.4471H360.256V45.479Z" stroke="#FF72E1" stroke-width="1.022"/>
<path d="M405.225 45.479H360.257V90.4471H405.225V45.479Z" stroke="#FF72E1" stroke-width="1.022"/>
<path d="M450.19 45.479H405.222V90.4471H450.19V45.479Z" stroke="#FF72E1" stroke-width="1.022"/>
<path d="M495.159 45.479H450.191V90.4471H495.159V45.479Z" stroke="#FF72E1" stroke-width="1.022"/>
<path d="M540.127 45.479H495.159V90.4471H540.127V45.479Z" stroke="#FF72E1" stroke-width="1.022"/>
<path d="M585.096 45.479H540.128V90.4471H585.096V45.479Z" stroke="#FF72E1" stroke-width="1.022"/>
<path d="M630.065 45.479H585.097V90.4471H630.065V45.479Z" stroke="#FF72E1" stroke-width="1.022"/>
<path d="M675.034 45.479H630.066V90.4471H675.034V45.479Z" stroke="#FF72E1" stroke-width="1.022"/>
<path d="M719.999 45.479H675.031V90.4471H719.999V45.479Z" stroke="#FF72E1" stroke-width="1.022"/>
<path d="M764.967 45.479H719.999V90.4471H764.967V45.479Z" stroke="#FF72E1" stroke-width="1.022"/>
<path d="M809.936 45.479H764.968V90.4471H809.936V45.479Z" stroke="#FF72E1" stroke-width="1.022"/>
<path d="M854.905 45.479H809.937V90.4471H854.905V45.479Z" stroke="#FF72E1" stroke-width="1.022"/>
<path d="M899.874 45.479H854.906V90.4471H899.874V45.479Z" stroke="#FF72E1" stroke-width="1.022"/>
<path d="M944.838 45.479H899.87V90.4471H944.838V45.479Z" stroke="#FF72E1" stroke-width="1.022"/>
<path d="M989.807 45.479H944.839V90.4471H989.807V45.479Z" stroke="#FF72E1" stroke-width="1.022"/>
<path d="M1034.78 45.479H989.808V90.4471H1034.78V45.479Z" stroke="#FF72E1" stroke-width="1.022"/>
<path d="M1079.75 45.479H1034.78V90.4471H1079.75V45.479Z" stroke="#FF72E1" stroke-width="1.022"/>
<path d="M1124.72 45.479H1079.75V90.4471H1124.72V45.479Z" stroke="#FF72E1" stroke-width="1.022"/>
<path d="M1169.68 45.479H1124.71V90.4471H1169.68V45.479Z" stroke="#FF72E1" stroke-width="1.022"/>
<path d="M1214.65 45.479H1169.68V90.4471H1214.65V45.479Z" stroke="#FF72E1" stroke-width="1.022"/>
<path d="M1259.62 45.479H1214.65V90.4471H1259.62V45.479Z" stroke="#FF72E1" stroke-width="1.022"/>
<path d="M1304.59 45.479H1259.62V90.4471H1304.59V45.479Z" stroke="#FF72E1" stroke-width="1.022"/>
<path d="M1349.56 45.479H1304.59V90.4471H1349.56V45.479Z" stroke="#FF72E1" stroke-width="1.022"/>
<path d="M1394.52 45.479H1349.55V90.4471H1394.52V45.479Z" stroke="#FF72E1" stroke-width="1.022"/>
<path d="M1439.49 45.479H1394.52V90.4471H1439.49V45.479Z" stroke="#FF72E1" stroke-width="1.022"/>
<path d="M45.4791 90.4473H0.510986V135.415H45.4791V90.4473Z" stroke="#FF72E1" stroke-width="1.022"/>
<path d="M90.4478 90.4473H45.4797V135.415H90.4478V90.4473Z" stroke="#FF72E1" stroke-width="1.022"/>
<path d="M135.417 90.4473H90.4485V135.415H135.417V90.4473Z" stroke="#FF72E1" stroke-width="1.022"/>
<path d="M180.381 90.4473H135.413V135.415H180.381V90.4473Z" stroke="#FF72E1" stroke-width="1.022"/>
<path d="M180.382 90.4473H225.35V113.442C225.35 125.577 215.512 135.415 203.377 135.415H180.382V90.4473Z" stroke="#FF72E1" stroke-width="1.022"/>
<path d="M225.351 90.4473H270.319V135.415H247.324C235.188 135.415 225.351 125.577 225.351 113.442V90.4473Z" stroke="#FF72E1" stroke-width="1.022"/>
<path d="M315.288 90.4473H270.32V135.415H315.288V90.4473Z" stroke="#FF72E1" stroke-width="1.022"/>
<path d="M360.256 90.4473H315.288V135.415H360.256V90.4473Z" stroke="#FF72E1" stroke-width="1.022"/>
<path d="M405.225 90.4473H360.257V135.415H405.225V90.4473Z" stroke="#FF72E1" stroke-width="1.022"/>
<path d="M450.19 90.4473H405.222V135.415H450.19V90.4473Z" stroke="#FF72E1" stroke-width="1.022"/>
<path d="M495.159 90.4473H450.191V135.415H495.159V90.4473Z" stroke="#FF72E1" stroke-width="1.022"/>
<path d="M540.127 90.4473H495.159V135.415H540.127V90.4473Z" stroke="#FF72E1" stroke-width="1.022"/>
<path d="M585.096 90.4473H540.128V135.415H585.096V90.4473Z" stroke="#FF72E1" stroke-width="1.022"/>
<path d="M585.097 90.4473H630.065V113.442C630.065 125.577 620.227 135.415 608.092 135.415H585.097V90.4473Z" stroke="#FF72E1" stroke-width="1.022"/>
<path d="M630.066 90.4473H675.034V135.415H652.039C639.903 135.415 630.066 125.577 630.066 113.442V90.4473Z" stroke="#FF72E1" stroke-width="1.022"/>
<path d="M719.999 90.4473H675.031V135.415H719.999V90.4473Z" stroke="#FF72E1" stroke-width="1.022"/>
<path d="M764.967 90.4473H719.999V135.415H764.967V90.4473Z" stroke="#FF72E1" stroke-width="1.022"/>
<path d="M809.936 90.4473H764.968V135.415H809.936V90.4473Z" stroke="#FF72E1" stroke-width="1.022"/>
<path d="M854.905 90.4473H809.937V135.415H854.905V90.4473Z" stroke="#FF72E1" stroke-width="1.022"/>
<path d="M899.874 90.4473H854.906V135.415H899.874V90.4473Z" stroke="#FF72E1" stroke-width="1.022"/>
<path d="M944.838 90.4473H899.87V135.415H944.838V90.4473Z" stroke="#FF72E1" stroke-width="1.022"/>
<path d="M989.807 90.4473H944.839V135.415H989.807V90.4473Z" stroke="#FF72E1" stroke-width="1.022"/>
<path d="M989.808 90.4473H1034.78V113.442C1034.78 125.577 1024.94 135.415 1012.8 135.415H989.808V90.4473Z" stroke="#FF72E1" stroke-width="1.022"/>
<path d="M1034.78 90.4473H1079.74V135.415H1056.75C1044.61 135.415 1034.78 125.577 1034.78 113.442V90.4473Z" stroke="#FF72E1" stroke-width="1.022"/>
<path d="M1124.72 90.4473H1079.75V135.415H1124.72V90.4473Z" stroke="#FF72E1" stroke-width="1.022"/>
<path d="M1169.68 90.4473H1124.71V135.415H1169.68V90.4473Z" stroke="#FF72E1" stroke-width="1.022"/>
<path d="M1214.65 90.4473H1169.68V135.415H1214.65V90.4473Z" stroke="#FF72E1" stroke-width="1.022"/>
<path d="M1259.62 90.4473H1214.65V135.415H1259.62V90.4473Z" stroke="#FF72E1" stroke-width="1.022"/>
<path d="M1304.59 90.4473H1259.62V135.415H1304.59V90.4473Z" stroke="#FF72E1" stroke-width="1.022"/>
<path d="M1349.56 90.4473H1304.59V135.415H1349.56V90.4473Z" stroke="#FF72E1" stroke-width="1.022"/>
<path d="M1394.52 90.4473H1349.55V135.415H1394.52V90.4473Z" stroke="#FF72E1" stroke-width="1.022"/>
<path d="M1439.49 90.4473H1394.52V135.415H1439.49V90.4473Z" stroke="#FF72E1" stroke-width="1.022"/>
<path d="M45.4791 135.415H0.510986V180.383H45.4791V135.415Z" stroke="#FF72E1" stroke-width="1.022"/>
<path d="M90.4478 135.415H45.4797V180.383H90.4478V135.415Z" stroke="#FF72E1" stroke-width="1.022"/>
<path d="M135.417 135.415H90.4485V180.383H135.417V135.415Z" stroke="#FF72E1" stroke-width="1.022"/>
<path d="M180.381 135.415H135.413V180.383H180.381V135.415Z" stroke="#FF72E1" stroke-width="1.022"/>
<path d="M180.382 135.415H203.377C215.513 135.415 225.35 145.253 225.35 157.388V180.383H180.382V135.415Z" stroke="#FF72E1" stroke-width="1.022"/>
<path d="M225.351 157.388C225.351 145.253 235.189 135.415 247.324 135.415H270.319V180.383H225.351V157.388Z" stroke="#FF72E1" stroke-width="1.022"/>
<path d="M315.288 135.415H270.32V180.383H315.288V135.415Z" stroke="#FF72E1" stroke-width="1.022"/>
<path d="M360.256 135.415H315.288V180.383H360.256V135.415Z" stroke="#FF72E1" stroke-width="1.022"/>
<path d="M405.225 135.415H360.257V180.383H405.225V135.415Z" stroke="#FF72E1" stroke-width="1.022"/>
<path d="M450.19 135.415H405.222V180.383H450.19V135.415Z" stroke="#FF72E1" stroke-width="1.022"/>
<path d="M495.159 135.415H450.191V180.383H495.159V135.415Z" stroke="#FF72E1" stroke-width="1.022"/>
<path d="M540.127 135.415H495.159V180.383H540.127V135.415Z" stroke="#FF72E1" stroke-width="1.022"/>
<path d="M585.096 135.415H540.128V180.383H585.096V135.415Z" stroke="#FF72E1" stroke-width="1.022"/>
<path d="M585.097 135.415H608.092C620.227 135.415 630.065 145.253 630.065 157.388V180.383H585.097V135.415Z" stroke="#FF72E1" stroke-width="1.022"/>
<path d="M630.066 157.388C630.066 145.253 639.903 135.415 652.039 135.415H675.034V180.383H630.066V157.388Z" stroke="#FF72E1" stroke-width="1.022"/>
<path d="M719.999 135.415H675.031V180.383H719.999V135.415Z" stroke="#FF72E1" stroke-width="1.022"/>
<path d="M764.967 135.415H719.999V180.383H764.967V135.415Z" stroke="#FF72E1" stroke-width="1.022"/>
<path d="M809.936 135.415H764.968V180.383H809.936V135.415Z" stroke="#FF72E1" stroke-width="1.022"/>
<path d="M854.905 135.415H809.937V180.383H854.905V135.415Z" stroke="#FF72E1" stroke-width="1.022"/>
<path d="M899.874 135.415H854.906V180.383H899.874V135.415Z" stroke="#FF72E1" stroke-width="1.022"/>
<path d="M944.838 135.415H899.87V180.383H944.838V135.415Z" stroke="#FF72E1" stroke-width="1.022"/>
<path d="M989.807 135.415H944.839V180.383H989.807V135.415Z" stroke="#FF72E1" stroke-width="1.022"/>
<path d="M989.808 135.415H1012.8C1024.94 135.415 1034.78 145.253 1034.78 157.388V180.383H989.808V135.415Z" stroke="#FF72E1" stroke-width="1.022"/>
<path d="M1034.78 157.388C1034.78 145.253 1044.61 135.415 1056.75 135.415H1079.74V180.383H1034.78V157.388Z" stroke="#FF72E1" stroke-width="1.022"/>
<path d="M1124.72 135.415H1079.75V180.383H1124.72V135.415Z" stroke="#FF72E1" stroke-width="1.022"/>
<path d="M1169.68 135.415H1124.71V180.383H1169.68V135.415Z" stroke="#FF72E1" stroke-width="1.022"/>
<path d="M1214.65 135.415H1169.68V180.383H1214.65V135.415Z" stroke="#FF72E1" stroke-width="1.022"/>
<path d="M1259.62 135.415H1214.65V180.383H1259.62V135.415Z" stroke="#FF72E1" stroke-width="1.022"/>
<path d="M1304.59 135.415H1259.62V180.383H1304.59V135.415Z" stroke="#FF72E1" stroke-width="1.022"/>
<path d="M1349.56 135.415H1304.59V180.383H1349.56V135.415Z" stroke="#FF72E1" stroke-width="1.022"/>
<path d="M1394.52 135.415H1349.55V180.383H1394.52V135.415Z" stroke="#FF72E1" stroke-width="1.022"/>
<path d="M1439.49 135.415H1394.52V180.383H1439.49V135.415Z" stroke="#FF72E1" stroke-width="1.022"/>
<path d="M45.4791 180.383H0.510986V225.351H45.4791V180.383Z" stroke="#FF72E1" stroke-width="1.022"/>
<path d="M90.4478 180.383H45.4797V225.351H90.4478V180.383Z" stroke="#FF72E1" stroke-width="1.022"/>
<path d="M135.417 180.383H90.4485V225.351H135.417V180.383Z" stroke="#FF72E1" stroke-width="1.022"/>
<path d="M180.381 180.383H135.413V225.351H180.381V180.383Z" stroke="#FF72E1" stroke-width="1.022"/>
<path d="M225.35 180.383H180.382V225.351H225.35V180.383Z" stroke="#FF72E1" stroke-width="1.022"/>
<path d="M270.319 180.383H225.351V225.351H270.319V180.383Z" stroke="#FF72E1" stroke-width="1.022"/>
<path d="M315.288 180.383H270.32V225.351H315.288V180.383Z" stroke="#FF72E1" stroke-width="1.022"/>
<path d="M360.256 180.383H315.288V225.351H360.256V180.383Z" stroke="#FF72E1" stroke-width="1.022"/>
<path d="M405.225 180.383H360.257V225.351H405.225V180.383Z" stroke="#FF72E1" stroke-width="1.022"/>
<path d="M450.19 180.383H405.222V225.351H450.19V180.383Z" stroke="#FF72E1" stroke-width="1.022"/>
<path d="M495.159 180.383H450.191V225.351H495.159V180.383Z" stroke="#FF72E1" stroke-width="1.022"/>
<path d="M540.127 180.383H495.159V225.351H540.127V180.383Z" stroke="#FF72E1" stroke-width="1.022"/>
<path d="M585.096 180.383H540.128V225.351H585.096V180.383Z" stroke="#FF72E1" stroke-width="1.022"/>
<path d="M630.065 180.383H585.097V225.351H630.065V180.383Z" stroke="#FF72E1" stroke-width="1.022"/>
<path d="M675.034 180.383H630.066V225.351H675.034V180.383Z" stroke="#FF72E1" stroke-width="1.022"/>
<path d="M719.999 180.383H675.031V225.351H719.999V180.383Z" stroke="#FF72E1" stroke-width="1.022"/>
<path d="M764.967 180.383H719.999V225.351H764.967V180.383Z" stroke="#FF72E1" stroke-width="1.022"/>
<path d="M809.936 180.383H764.968V225.351H809.936V180.383Z" stroke="#FF72E1" stroke-width="1.022"/>
<path d="M854.905 180.383H809.937V225.351H854.905V180.383Z" stroke="#FF72E1" stroke-width="1.022"/>
<path d="M899.874 180.383H854.906V225.351H899.874V180.383Z" stroke="#FF72E1" stroke-width="1.022"/>
<path d="M944.838 180.383H899.87V225.351H944.838V180.383Z" stroke="#FF72E1" stroke-width="1.022"/>
<path d="M989.807 180.383H944.839V225.351H989.807V180.383Z" stroke="#FF72E1" stroke-width="1.022"/>
<path d="M1034.78 180.383H989.808V225.351H1034.78V180.383Z" stroke="#FF72E1" stroke-width="1.022"/>
<path d="M1079.75 180.383H1034.78V225.351H1079.75V180.383Z" stroke="#FF72E1" stroke-width="1.022"/>
<path d="M1124.72 180.383H1079.75V225.351H1124.72V180.383Z" stroke="#FF72E1" stroke-width="1.022"/>
<path d="M1169.68 180.383H1124.71V225.351H1169.68V180.383Z" stroke="#FF72E1" stroke-width="1.022"/>
<path d="M1214.65 180.383H1169.68V225.351H1214.65V180.383Z" stroke="#FF72E1" stroke-width="1.022"/>
<path d="M1259.62 180.383H1214.65V225.351H1259.62V180.383Z" stroke="#FF72E1" stroke-width="1.022"/>
<path d="M1304.59 180.383H1259.62V225.351H1304.59V180.383Z" stroke="#FF72E1" stroke-width="1.022"/>
<path d="M1349.56 180.383H1304.59V225.351H1349.56V180.383Z" stroke="#FF72E1" stroke-width="1.022"/>
<path d="M1394.52 180.383H1349.55V225.351H1394.52V180.383Z" stroke="#FF72E1" stroke-width="1.022"/>
<path d="M1439.49 180.383H1394.52V225.351H1439.49V180.383Z" stroke="#FF72E1" stroke-width="1.022"/>
<path d="M45.4791 225.351H0.510986V270.319H45.4791V225.351Z" stroke="#FF72E1" stroke-width="1.022"/>
<path d="M90.4478 225.351H45.4797V270.319H90.4478V225.351Z" stroke="#FF72E1" stroke-width="1.022"/>
<path d="M135.417 225.351H90.4485V270.319H135.417V225.351Z" stroke="#FF72E1" stroke-width="1.022"/>
<path d="M180.381 225.351H135.413V270.319H180.381V225.351Z" stroke="#FF72E1" stroke-width="1.022"/>
<path d="M225.35 225.351H180.382V270.319H225.35V225.351Z" stroke="#FF72E1" stroke-width="1.022"/>
<path d="M270.319 225.351H225.351V270.319H270.319V225.351Z" stroke="#FF72E1" stroke-width="1.022"/>
<path d="M315.288 225.351H270.32V270.319H315.288V225.351Z" stroke="#FF72E1" stroke-width="1.022"/>
<path d="M360.256 225.351H315.288V270.319H360.256V225.351Z" stroke="#FF72E1" stroke-width="1.022"/>
<path d="M405.225 225.351H360.257V270.319H405.225V225.351Z" stroke="#FF72E1" stroke-width="1.022"/>
<path d="M450.19 225.351H405.222V270.319H450.19V225.351Z" stroke="#FF72E1" stroke-width="1.022"/>
<path d="M495.159 225.351H450.191V270.319H495.159V225.351Z" stroke="#FF72E1" stroke-width="1.022"/>
<path d="M540.127 225.351H495.159V270.319H540.127V225.351Z" stroke="#FF72E1" stroke-width="1.022"/>
<path d="M585.096 225.351H540.128V270.319H585.096V225.351Z" stroke="#FF72E1" stroke-width="1.022"/>
<path d="M630.065 225.351H585.097V270.319H630.065V225.351Z" stroke="#FF72E1" stroke-width="1.022"/>
<path d="M675.034 225.351H630.066V270.319H675.034V225.351Z" stroke="#FF72E1" stroke-width="1.022"/>
<path d="M719.999 225.351H675.031V270.319H719.999V225.351Z" stroke="#FF72E1" stroke-width="1.022"/>
<path d="M764.967 225.351H719.999V270.319H764.967V225.351Z" stroke="#FF72E1" stroke-width="1.022"/>
<path d="M809.936 225.351H764.968V270.319H809.936V225.351Z" stroke="#FF72E1" stroke-width="1.022"/>
<path d="M854.905 225.351H809.937V270.319H854.905V225.351Z" stroke="#FF72E1" stroke-width="1.022"/>
<path d="M899.874 225.351H854.906V270.319H899.874V225.351Z" stroke="#FF72E1" stroke-width="1.022"/>
<path d="M899.87 225.351H944.838V248.346C944.838 260.482 935.001 270.319 922.865 270.319H899.87V225.351Z" stroke="#FF72E1" stroke-width="1.022"/>
<path d="M944.839 225.351H989.807V270.319H966.812C954.677 270.319 944.839 260.482 944.839 248.346V225.351Z" stroke="#FF72E1" stroke-width="1.022"/>
<path d="M1034.78 225.351H989.808V270.319H1034.78V225.351Z" stroke="#FF72E1" stroke-width="1.022"/>
<path d="M1079.75 225.351H1034.78V270.319H1079.75V225.351Z" stroke="#FF72E1" stroke-width="1.022"/>
<path d="M1124.72 225.351H1079.75V270.319H1124.72V225.351Z" stroke="#FF72E1" stroke-width="1.022"/>
<path d="M1169.68 225.351H1124.71V270.319H1169.68V225.351Z" stroke="#FF72E1" stroke-width="1.022"/>
<path d="M1214.65 225.351H1169.68V270.319H1214.65V225.351Z" stroke="#FF72E1" stroke-width="1.022"/>
<path d="M1259.62 225.351H1214.65V270.319H1259.62V225.351Z" stroke="#FF72E1" stroke-width="1.022"/>
<path d="M1304.59 225.351H1259.62V270.319H1304.59V225.351Z" stroke="#FF72E1" stroke-width="1.022"/>
<path d="M1349.56 225.351H1304.59V270.319H1349.56V225.351Z" stroke="#FF72E1" stroke-width="1.022"/>
<path d="M1394.52 225.351H1349.55V270.319H1394.52V225.351Z" stroke="#FF72E1" stroke-width="1.022"/>
<path d="M1439.49 225.351H1394.52V270.319H1439.49V225.351Z" stroke="#FF72E1" stroke-width="1.022"/>
<path d="M45.4791 270.319H0.510986V315.287H45.4791V270.319Z" stroke="#FF72E1" stroke-width="1.022"/>
<path d="M90.4478 270.319H45.4797V315.287H90.4478V270.319Z" stroke="#FF72E1" stroke-width="1.022"/>
<path d="M135.417 270.319H90.4485V315.287H135.417V270.319Z" stroke="#FF72E1" stroke-width="1.022"/>
<path d="M180.381 270.319H135.413V315.287H180.381V270.319Z" stroke="#FF72E1" stroke-width="1.022"/>
<path d="M225.35 270.319H180.382V315.287H225.35V270.319Z" stroke="#FF72E1" stroke-width="1.022"/>
<path d="M270.319 270.319H225.351V315.287H270.319V270.319Z" stroke="#FF72E1" stroke-width="1.022"/>
<path d="M315.288 270.319H270.32V315.287H315.288V270.319Z" stroke="#FF72E1" stroke-width="1.022"/>
<path d="M360.256 270.319H315.288V315.287H360.256V270.319Z" stroke="#FF72E1" stroke-width="1.022"/>
<path d="M360.257 270.319H405.225V293.314C405.225 305.45 395.387 315.287 383.252 315.287H360.257V270.319Z" stroke="#FF72E1" stroke-width="1.022"/>
<path d="M405.222 270.319H450.19V315.287H427.195C415.06 315.287 405.222 305.45 405.222 293.314V270.319Z" stroke="#FF72E1" stroke-width="1.022"/>
<path d="M495.159 270.319H450.191V315.287H495.159V270.319Z" stroke="#FF72E1" stroke-width="1.022"/>
<path d="M540.127 270.319H495.159V315.287H540.127V270.319Z" stroke="#FF72E1" stroke-width="1.022"/>
<path d="M585.096 270.319H540.128V315.287H585.096V270.319Z" stroke="#FF72E1" stroke-width="1.022"/>
<path d="M630.065 270.319H585.097V315.287H630.065V270.319Z" stroke="#FF72E1" stroke-width="1.022"/>
<path d="M675.034 270.319H630.066V315.287H675.034V270.319Z" stroke="#FF72E1" stroke-width="1.022"/>
<path d="M719.999 270.319H675.031V315.287H719.999V270.319Z" stroke="#FF72E1" stroke-width="1.022"/>
<path d="M764.967 270.319H719.999V315.287H764.967V270.319Z" stroke="#FF72E1" stroke-width="1.022"/>
<path d="M809.936 270.319H764.968V315.287H809.936V270.319Z" stroke="#FF72E1" stroke-width="1.022"/>
<path d="M854.905 270.319H809.937V315.287H854.905V270.319Z" stroke="#FF72E1" stroke-width="1.022"/>
<path d="M899.874 270.319H854.906V315.287H899.874V270.319Z" stroke="#FF72E1" stroke-width="1.022"/>
<path d="M899.87 270.319H922.865C935.001 270.319 944.838 280.157 944.838 292.292V315.287H899.87V270.319Z" stroke="#FF72E1" stroke-width="1.022"/>
<path d="M944.839 292.292C944.839 280.157 954.677 270.319 966.812 270.319H989.807V315.287H944.839V292.292Z" stroke="#FF72E1" stroke-width="1.022"/>
<path d="M1034.78 270.319H989.808V315.287H1034.78V270.319Z" stroke="#FF72E1" stroke-width="1.022"/>
<path d="M1079.75 270.319H1034.78V315.287H1079.75V270.319Z" stroke="#FF72E1" stroke-width="1.022"/>
<path d="M1124.72 270.319H1079.75V315.287H1124.72V270.319Z" stroke="#FF72E1" stroke-width="1.022"/>
<path d="M1169.68 270.319H1124.71V315.287H1169.68V270.319Z" stroke="#FF72E1" stroke-width="1.022"/>
<path d="M1214.65 270.319H1169.68V315.287H1214.65V270.319Z" stroke="#FF72E1" stroke-width="1.022"/>
<path d="M1259.62 270.319H1214.65V315.287H1259.62V270.319Z" stroke="#FF72E1" stroke-width="1.022"/>
<path d="M1259.62 270.319H1304.58V293.314C1304.58 305.45 1294.75 315.287 1282.61 315.287H1259.62V270.319Z" stroke="#FF72E1" stroke-width="1.022"/>
<path d="M1304.59 270.319H1349.55V315.287H1326.56C1314.42 315.287 1304.59 305.45 1304.59 293.314V270.319Z" stroke="#FF72E1" stroke-width="1.022"/>
<path d="M1394.52 270.319H1349.55V315.287H1394.52V270.319Z" stroke="#FF72E1" stroke-width="1.022"/>
<path d="M1439.49 270.319H1394.52V315.287H1439.49V270.319Z" stroke="#FF72E1" stroke-width="1.022"/>
<path d="M45.4791 315.287H0.510986V360.255H45.4791V315.287Z" stroke="#FF72E1" stroke-width="1.022"/>
<path d="M90.4478 315.287H45.4797V360.255H90.4478V315.287Z" stroke="#FF72E1" stroke-width="1.022"/>
<path d="M135.417 315.287H90.4485V360.255H135.417V315.287Z" stroke="#FF72E1" stroke-width="1.022"/>
<path d="M180.381 315.287H135.413V360.255H180.381V315.287Z" stroke="#FF72E1" stroke-width="1.022"/>
<path d="M225.35 315.287H180.382V360.255H225.35V315.287Z" stroke="#FF72E1" stroke-width="1.022"/>
<path d="M270.319 315.287H225.351V360.255H270.319V315.287Z" stroke="#FF72E1" stroke-width="1.022"/>
<path d="M315.288 315.287H270.32V360.255H315.288V315.287Z" stroke="#FF72E1" stroke-width="1.022"/>
<path d="M360.256 315.287H315.288V360.255H360.256V315.287Z" stroke="#FF72E1" stroke-width="1.022"/>
<path d="M360.257 315.287H383.252C395.388 315.287 405.225 325.125 405.225 337.26V360.255H360.257V315.287Z" stroke="#FF72E1" stroke-width="1.022"/>
<path d="M405.222 337.26C405.222 325.125 415.06 315.287 427.195 315.287H450.19V360.255H405.222V337.26Z" stroke="#FF72E1" stroke-width="1.022"/>
<path d="M495.159 315.287H450.191V360.255H495.159V315.287Z" stroke="#FF72E1" stroke-width="1.022"/>
<path d="M540.127 315.287H495.159V360.255H540.127V315.287Z" stroke="#FF72E1" stroke-width="1.022"/>
<path d="M585.096 315.287H540.128V360.255H585.096V315.287Z" stroke="#FF72E1" stroke-width="1.022"/>
<path d="M630.065 315.287H585.097V360.255H630.065V315.287Z" stroke="#FF72E1" stroke-width="1.022"/>
<path d="M675.034 315.287H630.066V360.255H675.034V315.287Z" stroke="#FF72E1" stroke-width="1.022"/>
<path d="M719.999 315.287H675.031V360.255H719.999V315.287Z" stroke="#FF72E1" stroke-width="1.022"/>
<path d="M764.967 315.287H719.999V360.255H764.967V315.287Z" stroke="#FF72E1" stroke-width="1.022"/>
<path d="M809.936 315.287H764.968V360.255H809.936V315.287Z" stroke="#FF72E1" stroke-width="1.022"/>
<path d="M854.905 315.287H809.937V360.255H854.905V315.287Z" stroke="#FF72E1" stroke-width="1.022"/>
<path d="M899.874 315.287H854.906V360.255H899.874V315.287Z" stroke="#FF72E1" stroke-width="1.022"/>
<path d="M944.838 315.287H899.87V360.255H944.838V315.287Z" stroke="#FF72E1" stroke-width="1.022"/>
<path d="M989.807 315.287H944.839V360.255H989.807V315.287Z" stroke="#FF72E1" stroke-width="1.022"/>
<path d="M1034.78 315.287H989.808V360.255H1034.78V315.287Z" stroke="#FF72E1" stroke-width="1.022"/>
<path d="M1079.75 315.287H1034.78V360.255H1079.75V315.287Z" stroke="#FF72E1" stroke-width="1.022"/>
<path d="M1124.72 315.287H1079.75V360.255H1124.72V315.287Z" stroke="#FF72E1" stroke-width="1.022"/>
<path d="M1169.68 315.287H1124.71V360.255H1169.68V315.287Z" stroke="#FF72E1" stroke-width="1.022"/>
<path d="M1214.65 315.287H1169.68V360.255H1214.65V315.287Z" stroke="#FF72E1" stroke-width="1.022"/>
<path d="M1259.62 315.287H1214.65V360.255H1259.62V315.287Z" stroke="#FF72E1" stroke-width="1.022"/>
<path d="M1259.62 315.287H1282.61C1294.75 315.287 1304.58 325.125 1304.58 337.26V360.255H1259.62V315.287Z" stroke="#FF72E1" stroke-width="1.022"/>
<path d="M1304.59 337.26C1304.59 325.125 1314.42 315.287 1326.56 315.287H1349.55V360.255H1304.59V337.26Z" stroke="#FF72E1" stroke-width="1.022"/>
<path d="M1394.52 315.287H1349.55V360.255H1394.52V315.287Z" stroke="#FF72E1" stroke-width="1.022"/>
<path d="M1439.49 315.287H1394.52V360.255H1439.49V315.287Z" stroke="#FF72E1" stroke-width="1.022"/>
<path d="M45.4791 360.256H0.510986V405.224H45.4791V360.256Z" stroke="#FF72E1" stroke-width="1.022"/>
<path d="M90.4478 360.256H45.4797V405.224H90.4478V360.256Z" stroke="#FF72E1" stroke-width="1.022"/>
<path d="M135.417 360.256H90.4485V405.224H135.417V360.256Z" stroke="#FF72E1" stroke-width="1.022"/>
<path d="M180.381 360.256H135.413V405.224H180.381V360.256Z" stroke="#FF72E1" stroke-width="1.022"/>
<path d="M180.382 360.256H225.35V383.251C225.35 395.386 215.512 405.224 203.377 405.224H180.382V360.256Z" stroke="#FF72E1" stroke-width="1.022"/>
<path d="M225.351 360.256H270.319V405.224H247.324C235.188 405.224 225.351 395.386 225.351 383.251V360.256Z" stroke="#FF72E1" stroke-width="1.022"/>
<path d="M315.288 360.256H270.32V405.224H315.288V360.256Z" stroke="#FF72E1" stroke-width="1.022"/>
<path d="M360.256 360.256H315.288V405.224H360.256V360.256Z" stroke="#FF72E1" stroke-width="1.022"/>
<path d="M405.225 360.256H360.257V405.224H405.225V360.256Z" stroke="#FF72E1" stroke-width="1.022"/>
<path d="M450.19 360.256H405.222V405.224H450.19V360.256Z" stroke="#FF72E1" stroke-width="1.022"/>
<path d="M495.159 360.256H450.191V405.224H495.159V360.256Z" stroke="#FF72E1" stroke-width="1.022"/>
<path d="M540.127 360.256H495.159V405.224H540.127V360.256Z" stroke="#FF72E1" stroke-width="1.022"/>
<path d="M585.096 360.256H540.128V405.224H585.096V360.256Z" stroke="#FF72E1" stroke-width="1.022"/>
<path d="M585.097 360.256H630.065V405.224H585.097V360.256Z" stroke="#FF72E1" stroke-width="1.022"/>
<path d="M630.066 360.256H675.034V405.224H630.066V360.256Z" stroke="#FF72E1" stroke-width="1.022"/>
<path d="M719.999 360.256H675.031V405.224H719.999V360.256Z" stroke="#FF72E1" stroke-width="1.022"/>
<path d="M764.967 360.256H719.999V405.224H764.967V360.256Z" stroke="#FF72E1" stroke-width="1.022"/>
<path d="M809.936 360.256H764.968V405.224H809.936V360.256Z" stroke="#FF72E1" stroke-width="1.022"/>
<path d="M854.905 360.256H809.937V405.224H854.905V360.256Z" stroke="#FF72E1" stroke-width="1.022"/>
<path d="M899.874 360.256H854.906V405.224H899.874V360.256Z" stroke="#FF72E1" stroke-width="1.022"/>
<path d="M944.838 360.256H899.87V405.224H944.838V360.256Z" stroke="#FF72E1" stroke-width="1.022"/>
<path d="M944.839 360.256H989.807V383.251C989.807 395.386 979.97 405.224 967.834 405.224H944.839V360.256Z" stroke="#FF72E1" stroke-width="1.022"/>
<path d="M989.808 360.256H1034.78V405.224H1011.78C999.646 405.224 989.808 395.386 989.808 383.251V360.256Z" stroke="#FF72E1" stroke-width="1.022"/>
<path d="M1079.75 360.256H1034.78V405.224H1079.75V360.256Z" stroke="#FF72E1" stroke-width="1.022"/>
<path d="M1124.72 360.256H1079.75V405.224H1124.72V360.256Z" stroke="#FF72E1" stroke-width="1.022"/>
<path d="M1169.68 360.256H1124.71V405.224H1169.68V360.256Z" stroke="#FF72E1" stroke-width="1.022"/>
<path d="M1214.65 360.256H1169.68V405.224H1214.65V360.256Z" stroke="#FF72E1" stroke-width="1.022"/>
<path d="M1259.62 360.256H1214.65V405.224H1259.62V360.256Z" stroke="#FF72E1" stroke-width="1.022"/>
<path d="M1304.59 360.256H1259.62V405.224H1304.59V360.256Z" stroke="#FF72E1" stroke-width="1.022"/>
<path d="M1349.56 360.256H1304.59V405.224H1349.56V360.256Z" stroke="#FF72E1" stroke-width="1.022"/>
<path d="M1394.52 360.256H1349.55V405.224H1394.52V360.256Z" stroke="#FF72E1" stroke-width="1.022"/>
<path d="M1439.49 360.256H1394.52V405.224H1439.49V360.256Z" stroke="#FF72E1" stroke-width="1.022"/>
<path d="M45.4791 405.224H0.510986V450.192H45.4791V405.224Z" stroke="#FF72E1" stroke-width="1.022"/>
<path d="M90.4478 405.224H45.4797V450.192H90.4478V405.224Z" stroke="#FF72E1" stroke-width="1.022"/>
<path d="M135.417 405.224H90.4485V450.192H135.417V405.224Z" stroke="#FF72E1" stroke-width="1.022"/>
<path d="M180.381 405.224H135.413V450.192H180.381V405.224Z" stroke="#FF72E1" stroke-width="1.022"/>
<path d="M180.382 405.224H203.377C215.513 405.224 225.35 415.061 225.35 427.197V450.192H180.382V405.224Z" stroke="#FF72E1" stroke-width="1.022"/>
<path d="M225.351 427.197C225.351 415.061 235.189 405.224 247.324 405.224H270.319V450.192H225.351V427.197Z" stroke="#FF72E1" stroke-width="1.022"/>
<path d="M315.288 405.224H270.32V450.192H315.288V405.224Z" stroke="#FF72E1" stroke-width="1.022"/>
<path d="M360.256 405.224H315.288V450.192H360.256V405.224Z" stroke="#FF72E1" stroke-width="1.022"/>
<path d="M405.225 405.224H360.257V450.192H405.225V405.224Z" stroke="#FF72E1" stroke-width="1.022"/>
<path d="M450.19 405.224H405.222V450.192H450.19V405.224Z" stroke="#FF72E1" stroke-width="1.022"/>
<path d="M495.159 405.224H450.191V450.192H495.159V405.224Z" stroke="#FF72E1" stroke-width="1.022"/>
<path d="M540.127 405.224H495.159V450.192H540.127V405.224Z" stroke="#FF72E1" stroke-width="1.022"/>
<path d="M585.096 405.224H540.128V450.192H585.096V405.224Z" stroke="#FF72E1" stroke-width="1.022"/>
<path d="M585.097 405.224H630.065V450.192H585.097V405.224Z" stroke="#FF72E1" stroke-width="1.022"/>
<path d="M630.066 405.224H675.034V450.192H630.066V405.224Z" stroke="#FF72E1" stroke-width="1.022"/>
<path d="M719.999 405.224H675.031V450.192H719.999V405.224Z" stroke="#FF72E1" stroke-width="1.022"/>
<path d="M764.967 405.224H719.999V450.192H764.967V405.224Z" stroke="#FF72E1" stroke-width="1.022"/>
<path d="M809.936 405.224H764.968V450.192H809.936V405.224Z" stroke="#FF72E1" stroke-width="1.022"/>
<path d="M854.905 405.224H809.937V450.192H854.905V405.224Z" stroke="#FF72E1" stroke-width="1.022"/>
<path d="M899.874 405.224H854.906V450.192H899.874V405.224Z" stroke="#FF72E1" stroke-width="1.022"/>
<path d="M944.838 405.224H899.87V450.192H944.838V405.224Z" stroke="#FF72E1" stroke-width="1.022"/>
<path d="M944.839 405.224H967.834C979.97 405.224 989.807 415.061 989.807 427.197V450.192H944.839V405.224Z" stroke="#FF72E1" stroke-width="1.022"/>
<path d="M989.808 427.197C989.808 415.061 999.646 405.224 1011.78 405.224H1034.78V450.192H989.808V427.197Z" stroke="#FF72E1" stroke-width="1.022"/>
<path d="M1079.75 405.224H1034.78V450.192H1079.75V405.224Z" stroke="#FF72E1" stroke-width="1.022"/>
<path d="M1124.72 405.224H1079.75V450.192H1124.72V405.224Z" stroke="#FF72E1" stroke-width="1.022"/>
<path d="M1169.68 405.224H1124.71V450.192H1169.68V405.224Z" stroke="#FF72E1" stroke-width="1.022"/>
<path d="M1214.65 405.224H1169.68V450.192H1214.65V405.224Z" stroke="#FF72E1" stroke-width="1.022"/>
<path d="M1259.62 405.224H1214.65V450.192H1259.62V405.224Z" stroke="#FF72E1" stroke-width="1.022"/>
<path d="M1304.59 405.224H1259.62V450.192H1304.59V405.224Z" stroke="#FF72E1" stroke-width="1.022"/>
<path d="M1349.56 405.224H1304.59V450.192H1349.56V405.224Z" stroke="#FF72E1" stroke-width="1.022"/>
<path d="M1394.52 405.224H1349.55V450.192H1394.52V405.224Z" stroke="#FF72E1" stroke-width="1.022"/>
<path d="M1439.49 405.224H1394.52V450.192H1439.49V405.224Z" stroke="#FF72E1" stroke-width="1.022"/>
<path d="M45.4791 450.192H0.510986V495.16H45.4791V450.192Z" stroke="#FF72E1" stroke-width="1.022"/>
<path d="M90.4478 450.192H45.4797V495.16H90.4478V450.192Z" stroke="#FF72E1" stroke-width="1.022"/>
<path d="M135.417 450.192H90.4485V495.16H135.417V450.192Z" stroke="#FF72E1" stroke-width="1.022"/>
<path d="M180.381 450.192H135.413V495.16H180.381V450.192Z" stroke="#FF72E1" stroke-width="1.022"/>
<path d="M225.35 450.192H180.382V495.16H225.35V450.192Z" stroke="#FF72E1" stroke-width="1.022"/>
<path d="M270.319 450.192H225.351V495.16H270.319V450.192Z" stroke="#FF72E1" stroke-width="1.022"/>
<path d="M315.288 450.192H270.32V495.16H315.288V450.192Z" stroke="#FF72E1" stroke-width="1.022"/>
<path d="M360.256 450.192H315.288V495.16H360.256V450.192Z" stroke="#FF72E1" stroke-width="1.022"/>
<path d="M405.225 450.192H360.257V495.16H405.225V450.192Z" stroke="#FF72E1" stroke-width="1.022"/>
<path d="M450.19 450.192H405.222V495.16H450.19V450.192Z" stroke="#FF72E1" stroke-width="1.022"/>
<path d="M495.159 450.192H450.191V495.16H495.159V450.192Z" stroke="#FF72E1" stroke-width="1.022"/>
<path d="M540.127 450.192H495.159V495.16H540.127V450.192Z" stroke="#FF72E1" stroke-width="1.022"/>
<path d="M585.096 450.192H540.128V495.16H585.096V450.192Z" stroke="#FF72E1" stroke-width="1.022"/>
<path d="M630.065 450.192H585.097V495.16H630.065V450.192Z" stroke="#FF72E1" stroke-width="1.022"/>
<path d="M675.034 450.192H630.066V495.16H675.034V450.192Z" stroke="#FF72E1" stroke-width="1.022"/>
<path d="M719.999 450.192H675.031V495.16H719.999V450.192Z" stroke="#FF72E1" stroke-width="1.022"/>
<path d="M764.967 450.192H719.999V495.16H764.967V450.192Z" stroke="#FF72E1" stroke-width="1.022"/>
<path d="M809.936 450.192H764.968V495.16H809.936V450.192Z" stroke="#FF72E1" stroke-width="1.022"/>
<path d="M854.905 450.192H809.937V495.16H854.905V450.192Z" stroke="#FF72E1" stroke-width="1.022"/>
<path d="M899.874 450.192H854.906V495.16H899.874V450.192Z" stroke="#FF72E1" stroke-width="1.022"/>
<path d="M944.838 450.192H899.87V495.16H944.838V450.192Z" stroke="#FF72E1" stroke-width="1.022"/>
<path d="M989.807 450.192H944.839V495.16H989.807V450.192Z" stroke="#FF72E1" stroke-width="1.022"/>
<path d="M1034.78 450.192H989.808V495.16H1034.78V450.192Z" stroke="#FF72E1" stroke-width="1.022"/>
<path d="M1079.75 450.192H1034.78V495.16H1079.75V450.192Z" stroke="#FF72E1" stroke-width="1.022"/>
<path d="M1124.72 450.192H1079.75V495.16H1124.72V450.192Z" stroke="#FF72E1" stroke-width="1.022"/>
<path d="M1169.68 450.192H1124.71V495.16H1169.68V450.192Z" stroke="#FF72E1" stroke-width="1.022"/>
<path d="M1214.65 450.192H1169.68V495.16H1214.65V450.192Z" stroke="#FF72E1" stroke-width="1.022"/>
<path d="M1259.62 450.192H1214.65V495.16H1259.62V450.192Z" stroke="#FF72E1" stroke-width="1.022"/>
<path d="M1304.59 450.192H1259.62V495.16H1304.59V450.192Z" stroke="#FF72E1" stroke-width="1.022"/>
<path d="M1349.56 450.192H1304.59V495.16H1349.56V450.192Z" stroke="#FF72E1" stroke-width="1.022"/>
<path d="M1394.52 450.192H1349.55V495.16H1394.52V450.192Z" stroke="#FF72E1" stroke-width="1.022"/>
<path d="M1439.49 450.192H1394.52V495.16H1439.49V450.192Z" stroke="#FF72E1" stroke-width="1.022"/>
<path d="M45.4791 495.16H0.510986V540.128H45.4791V495.16Z" stroke="#FF72E1" stroke-width="1.022"/>
<path d="M90.4478 495.16H45.4797V540.128H90.4478V495.16Z" stroke="#FF72E1" stroke-width="1.022"/>
<path d="M135.417 495.16H90.4485V540.128H135.417V495.16Z" stroke="#FF72E1" stroke-width="1.022"/>
<path d="M180.381 495.16H135.413V540.128H180.381V495.16Z" stroke="#FF72E1" stroke-width="1.022"/>
<path d="M225.35 495.16H180.382V540.128H225.35V495.16Z" stroke="#FF72E1" stroke-width="1.022"/>
<path d="M270.319 495.16H225.351V540.128H270.319V495.16Z" stroke="#FF72E1" stroke-width="1.022"/>
<path d="M315.288 495.16H270.32V540.128H315.288V495.16Z" stroke="#FF72E1" stroke-width="1.022"/>
<path d="M360.256 495.16H315.288V540.128H360.256V495.16Z" stroke="#FF72E1" stroke-width="1.022"/>
<path d="M405.225 495.16H360.257V540.128H405.225V495.16Z" stroke="#FF72E1" stroke-width="1.022"/>
<path d="M450.19 495.16H405.222V540.128H450.19V495.16Z" stroke="#FF72E1" stroke-width="1.022"/>
<path d="M495.159 495.16H450.191V540.128H495.159V495.16Z" stroke="#FF72E1" stroke-width="1.022"/>
<path d="M540.127 495.16H495.159V540.128H540.127V495.16Z" stroke="#FF72E1" stroke-width="1.022"/>
<path d="M585.096 495.16H540.128V540.128H585.096V495.16Z" stroke="#FF72E1" stroke-width="1.022"/>
<path d="M630.065 495.16H585.097V540.128H630.065V495.16Z" stroke="#FF72E1" stroke-width="1.022"/>
<path d="M675.034 495.16H630.066V540.128H675.034V495.16Z" stroke="#FF72E1" stroke-width="1.022"/>
<path d="M719.999 495.16H675.031V540.128H719.999V495.16Z" stroke="#FF72E1" stroke-width="1.022"/>
<path d="M764.967 495.16H719.999V540.128H764.967V495.16Z" stroke="#FF72E1" stroke-width="1.022"/>
<path d="M809.936 495.16H764.968V540.128H809.936V495.16Z" stroke="#FF72E1" stroke-width="1.022"/>
<path d="M809.937 495.16H854.905V518.155C854.905 530.29 845.067 540.128 832.932 540.128H809.937V495.16Z" stroke="#FF72E1" stroke-width="1.022"/>
<path d="M854.906 495.16H899.874V540.128H876.879C864.743 540.128 854.906 530.29 854.906 518.155V495.16Z" stroke="#FF72E1" stroke-width="1.022"/>
<path d="M944.838 495.16H899.87V540.128H944.838V495.16Z" stroke="#FF72E1" stroke-width="1.022"/>
<path d="M989.807 495.16H944.839V540.128H989.807V495.16Z" stroke="#FF72E1" stroke-width="1.022"/>
<path d="M1034.78 495.16H989.808V540.128H1034.78V495.16Z" stroke="#FF72E1" stroke-width="1.022"/>
<path d="M1079.75 495.16H1034.78V540.128H1079.75V495.16Z" stroke="#FF72E1" stroke-width="1.022"/>
<path d="M1124.72 495.16H1079.75V540.128H1124.72V495.16Z" stroke="#FF72E1" stroke-width="1.022"/>
<path d="M1169.68 495.16H1124.71V540.128H1169.68V495.16Z" stroke="#FF72E1" stroke-width="1.022"/>
<path d="M1214.65 495.16H1169.68V540.128H1214.65V495.16Z" stroke="#FF72E1" stroke-width="1.022"/>
<path d="M1259.62 495.16H1214.65V540.128H1259.62V495.16Z" stroke="#FF72E1" stroke-width="1.022"/>
<path d="M1304.59 495.16H1259.62V540.128H1304.59V495.16Z" stroke="#FF72E1" stroke-width="1.022"/>
<path d="M1349.56 495.16H1304.59V540.128H1349.56V495.16Z" stroke="#FF72E1" stroke-width="1.022"/>
<path d="M1394.52 495.16H1349.55V540.128H1394.52V495.16Z" stroke="#FF72E1" stroke-width="1.022"/>
<path d="M1439.49 495.16H1394.52V540.128H1439.49V495.16Z" stroke="#FF72E1" stroke-width="1.022"/>
<path d="M45.4791 540.128H0.510986V585.097H45.4791V540.128Z" stroke="#FF72E1" stroke-width="1.022"/>
<path d="M90.4478 540.128H45.4797V585.097H90.4478V540.128Z" stroke="#FF72E1" stroke-width="1.022"/>
<path d="M135.417 540.128H90.4485V585.097H135.417V540.128Z" stroke="#FF72E1" stroke-width="1.022"/>
<path d="M180.381 540.128H135.413V585.097H180.381V540.128Z" stroke="#FF72E1" stroke-width="1.022"/>
<path d="M225.35 540.128H180.382V585.097H225.35V540.128Z" stroke="#FF72E1" stroke-width="1.022"/>
<path d="M270.319 540.128H225.351V585.097H270.319V540.128Z" stroke="#FF72E1" stroke-width="1.022"/>
<path d="M315.288 540.128H270.32V585.097H315.288V540.128Z" stroke="#FF72E1" stroke-width="1.022"/>
<path d="M360.256 540.128H315.288V585.097H360.256V540.128Z" stroke="#FF72E1" stroke-width="1.022"/>
<path d="M405.225 540.128H360.257V585.097H405.225V540.128Z" stroke="#FF72E1" stroke-width="1.022"/>
<path d="M450.19 540.128H405.222V585.097H450.19V540.128Z" stroke="#FF72E1" stroke-width="1.022"/>
<path d="M495.159 540.128H450.191V585.097H495.159V540.128Z" stroke="#FF72E1" stroke-width="1.022"/>
<path d="M540.127 540.128H495.159V585.097H540.127V540.128Z" stroke="#FF72E1" stroke-width="1.022"/>
<path d="M585.096 540.128H540.128V585.097H585.096V540.128Z" stroke="#FF72E1" stroke-width="1.022"/>
<path d="M630.065 540.128H585.097V585.097H630.065V540.128Z" stroke="#FF72E1" stroke-width="1.022"/>
<path d="M675.034 540.128H630.066V585.097H675.034V540.128Z" stroke="#FF72E1" stroke-width="1.022"/>
<path d="M719.999 540.128H675.031V585.097H719.999V540.128Z" stroke="#FF72E1" stroke-width="1.022"/>
<path d="M764.967 540.128H719.999V585.097H764.967V540.128Z" stroke="#FF72E1" stroke-width="1.022"/>
<path d="M809.936 540.128H764.968V585.097H809.936V540.128Z" stroke="#FF72E1" stroke-width="1.022"/>
<path d="M809.937 540.128H832.932C845.067 540.128 854.905 549.965 854.905 562.101V585.096H809.937V540.128Z" stroke="#FF72E1" stroke-width="1.022"/>
<path d="M854.906 562.101C854.906 549.965 864.743 540.128 876.879 540.128H899.874V585.096H854.906V562.101Z" stroke="#FF72E1" stroke-width="1.022"/>
<path d="M944.838 540.128H899.87V585.097H944.838V540.128Z" stroke="#FF72E1" stroke-width="1.022"/>
<path d="M989.807 540.128H944.839V585.097H989.807V540.128Z" stroke="#FF72E1" stroke-width="1.022"/>
<path d="M1034.78 540.128H989.808V585.097H1034.78V540.128Z" stroke="#FF72E1" stroke-width="1.022"/>
<path d="M1079.75 540.128H1034.78V585.097H1079.75V540.128Z" stroke="#FF72E1" stroke-width="1.022"/>
<path d="M1124.72 540.128H1079.75V585.097H1124.72V540.128Z" stroke="#FF72E1" stroke-width="1.022"/>
<path d="M1169.68 540.128H1124.71V585.097H1169.68V540.128Z" stroke="#FF72E1" stroke-width="1.022"/>
<path d="M1214.65 540.128H1169.68V585.097H1214.65V540.128Z" stroke="#FF72E1" stroke-width="1.022"/>
<path d="M1259.62 540.128H1214.65V585.097H1259.62V540.128Z" stroke="#FF72E1" stroke-width="1.022"/>
<path d="M1304.59 540.128H1259.62V585.097H1304.59V540.128Z" stroke="#FF72E1" stroke-width="1.022"/>
<path d="M1349.56 540.128H1304.59V585.097H1349.56V540.128Z" stroke="#FF72E1" stroke-width="1.022"/>
<path d="M1394.52 540.128H1349.55V585.097H1394.52V540.128Z" stroke="#FF72E1" stroke-width="1.022"/>
<path d="M1439.49 540.128H1394.52V585.097H1439.49V540.128Z" stroke="#FF72E1" stroke-width="1.022"/>
<path d="M45.4791 585.096H0.510986V630.064H45.4791V585.096Z" stroke="#FF72E1" stroke-width="1.022"/>
<path d="M90.4478 585.096H45.4797V630.064H90.4478V585.096Z" stroke="#FF72E1" stroke-width="1.022"/>
<path d="M135.417 585.096H90.4485V630.064H135.417V585.096Z" stroke="#FF72E1" stroke-width="1.022"/>
<path d="M180.381 585.096H135.413V630.064H180.381V585.096Z" stroke="#FF72E1" stroke-width="1.022"/>
<path d="M225.35 585.096H180.382V630.064H225.35V585.096Z" stroke="#FF72E1" stroke-width="1.022"/>
<path d="M270.319 585.096H225.351V630.064H270.319V585.096Z" stroke="#FF72E1" stroke-width="1.022"/>
<path d="M315.288 585.096H270.32V630.064H315.288V585.096Z" stroke="#FF72E1" stroke-width="1.022"/>
<path d="M360.256 585.096H315.288V630.064H360.256V585.096Z" stroke="#FF72E1" stroke-width="1.022"/>
<path d="M405.225 585.096H360.257V630.064H405.225V585.096Z" stroke="#FF72E1" stroke-width="1.022"/>
<path d="M450.19 585.096H405.222V630.064H450.19V585.096Z" stroke="#FF72E1" stroke-width="1.022"/>
<path d="M495.159 585.096H450.191V630.064H495.159V585.096Z" stroke="#FF72E1" stroke-width="1.022"/>
<path d="M540.127 585.096H495.159V630.064H540.127V585.096Z" stroke="#FF72E1" stroke-width="1.022"/>
<path d="M585.096 585.096H540.128V630.064H585.096V585.096Z" stroke="#FF72E1" stroke-width="1.022"/>
<path d="M630.065 585.096H585.097V630.064H630.065V585.096Z" stroke="#FF72E1" stroke-width="1.022"/>
<path d="M675.034 585.096H630.066V630.064H675.034V585.096Z" stroke="#FF72E1" stroke-width="1.022"/>
<path d="M719.999 585.096H675.031V630.064H719.999V585.096Z" stroke="#FF72E1" stroke-width="1.022"/>
<path d="M764.967 585.096H719.999V630.064H764.967V585.096Z" stroke="#FF72E1" stroke-width="1.022"/>
<path d="M809.936 585.096H764.968V630.064H809.936V585.096Z" stroke="#FF72E1" stroke-width="1.022"/>
<path d="M854.905 585.096H809.937V630.064H854.905V585.096Z" stroke="#FF72E1" stroke-width="1.022"/>
<path d="M899.874 585.096H854.906V630.064H899.874V585.096Z" stroke="#FF72E1" stroke-width="1.022"/>
<path d="M944.838 585.096H899.87V630.064H944.838V585.096Z" stroke="#FF72E1" stroke-width="1.022"/>
<path d="M989.807 585.096H944.839V630.064H989.807V585.096Z" stroke="#FF72E1" stroke-width="1.022"/>
<path d="M1034.78 585.096H989.808V630.064H1034.78V585.096Z" stroke="#FF72E1" stroke-width="1.022"/>
<path d="M1079.75 585.096H1034.78V630.064H1079.75V585.096Z" stroke="#FF72E1" stroke-width="1.022"/>
<path d="M1124.72 585.096H1079.75V630.064H1124.72V585.096Z" stroke="#FF72E1" stroke-width="1.022"/>
<path d="M1169.68 585.096H1124.71V630.064H1169.68V585.096Z" stroke="#FF72E1" stroke-width="1.022"/>
<path d="M1214.65 585.096H1169.68V630.064H1214.65V585.096Z" stroke="#FF72E1" stroke-width="1.022"/>
<path d="M1259.62 585.096H1214.65V630.064H1259.62V585.096Z" stroke="#FF72E1" stroke-width="1.022"/>
<path d="M1304.59 585.096H1259.62V630.064H1304.59V585.096Z" stroke="#FF72E1" stroke-width="1.022"/>
<path d="M1349.56 585.096H1304.59V630.064H1349.56V585.096Z" stroke="#FF72E1" stroke-width="1.022"/>
<path d="M1394.52 585.096H1349.55V630.064H1394.52V585.096Z" stroke="#FF72E1" stroke-width="1.022"/>
<path d="M1439.49 585.096H1394.52V630.064H1439.49V585.096Z" stroke="#FF72E1" stroke-width="1.022"/>
<path d="M45.4791 630.064H0.510986V675.033H45.4791V630.064Z" stroke="#FF72E1" stroke-width="1.022"/>
<path d="M90.4478 630.064H45.4797V675.033H90.4478V630.064Z" stroke="#FF72E1" stroke-width="1.022"/>
<path d="M135.417 630.064H90.4485V675.033H135.417V630.064Z" stroke="#FF72E1" stroke-width="1.022"/>
<path d="M180.381 630.064H135.413V675.033H180.381V630.064Z" stroke="#FF72E1" stroke-width="1.022"/>
<path d="M225.35 630.064H180.382V675.033H225.35V630.064Z" stroke="#FF72E1" stroke-width="1.022"/>
<path d="M270.319 630.064H225.351V675.033H270.319V630.064Z" stroke="#FF72E1" stroke-width="1.022"/>
<path d="M315.288 630.064H270.32V675.033H315.288V630.064Z" stroke="#FF72E1" stroke-width="1.022"/>
<path d="M360.256 630.064H315.288V675.033H360.256V630.064Z" stroke="#FF72E1" stroke-width="1.022"/>
<path d="M405.225 630.064H360.257V675.033H405.225V630.064Z" stroke="#FF72E1" stroke-width="1.022"/>
<path d="M450.19 630.064H405.222V675.033H450.19V630.064Z" stroke="#FF72E1" stroke-width="1.022"/>
<path d="M495.159 630.064H450.191V675.033H495.159V630.064Z" stroke="#FF72E1" stroke-width="1.022"/>
<path d="M540.127 630.064H495.159V675.033H540.127V630.064Z" stroke="#FF72E1" stroke-width="1.022"/>
<path d="M585.096 630.064H540.128V675.033H585.096V630.064Z" stroke="#FF72E1" stroke-width="1.022"/>
<path d="M630.065 630.064H585.097V675.033H630.065V630.064Z" stroke="#FF72E1" stroke-width="1.022"/>
<path d="M675.034 630.064H630.066V675.033H675.034V630.064Z" stroke="#FF72E1" stroke-width="1.022"/>
<path d="M719.999 630.064H675.031V675.033H719.999V630.064Z" stroke="#FF72E1" stroke-width="1.022"/>
<path d="M764.967 630.064H719.999V675.033H764.967V630.064Z" stroke="#FF72E1" stroke-width="1.022"/>
<path d="M809.936 630.064H764.968V675.033H809.936V630.064Z" stroke="#FF72E1" stroke-width="1.022"/>
<path d="M854.905 630.064H809.937V675.033H854.905V630.064Z" stroke="#FF72E1" stroke-width="1.022"/>
<path d="M899.874 630.064H854.906V675.033H899.874V630.064Z" stroke="#FF72E1" stroke-width="1.022"/>
<path d="M944.838 630.064H899.87V675.033H944.838V630.064Z" stroke="#FF72E1" stroke-width="1.022"/>
<path d="M989.807 630.064H944.839V675.033H989.807V630.064Z" stroke="#FF72E1" stroke-width="1.022"/>
<path d="M1034.78 630.064H989.808V675.033H1034.78V630.064Z" stroke="#FF72E1" stroke-width="1.022"/>
<path d="M1079.75 630.064H1034.78V675.033H1079.75V630.064Z" stroke="#FF72E1" stroke-width="1.022"/>
<path d="M1124.72 630.064H1079.75V675.033H1124.72V630.064Z" stroke="#FF72E1" stroke-width="1.022"/>
<path d="M1169.68 630.064H1124.71V675.033H1169.68V630.064Z" stroke="#FF72E1" stroke-width="1.022"/>
<path d="M1214.65 630.064H1169.68V675.033H1214.65V630.064Z" stroke="#FF72E1" stroke-width="1.022"/>
<path d="M1259.62 630.064H1214.65V675.033H1259.62V630.064Z" stroke="#FF72E1" stroke-width="1.022"/>
<path d="M1304.59 630.064H1259.62V675.033H1304.59V630.064Z" stroke="#FF72E1" stroke-width="1.022"/>
<path d="M1349.56 630.064H1304.59V675.033H1349.56V630.064Z" stroke="#FF72E1" stroke-width="1.022"/>
<path d="M1394.52 630.064H1349.55V675.033H1394.52V630.064Z" stroke="#FF72E1" stroke-width="1.022"/>
<path d="M1439.49 630.064H1394.52V675.033H1439.49V630.064Z" stroke="#FF72E1" stroke-width="1.022"/>
<path d="M45.4791 675.032H0.510986V720H45.4791V675.032Z" stroke="#FF72E1" stroke-width="1.022"/>
<path d="M90.4478 675.032H45.4797V720H90.4478V675.032Z" stroke="#FF72E1" stroke-width="1.022"/>
<path d="M135.417 675.032H90.4485V720H135.417V675.032Z" stroke="#FF72E1" stroke-width="1.022"/>
<path d="M180.381 675.032H135.413V720H180.381V675.032Z" stroke="#FF72E1" stroke-width="1.022"/>
<path d="M225.35 675.032H180.382V720H225.35V675.032Z" stroke="#FF72E1" stroke-width="1.022"/>
<path d="M270.319 675.032H225.351V720H270.319V675.032Z" stroke="#FF72E1" stroke-width="1.022"/>
<path d="M315.288 675.032H270.32V720H315.288V675.032Z" stroke="#FF72E1" stroke-width="1.022"/>
<path d="M360.256 675.032H315.288V720H360.256V675.032Z" stroke="#FF72E1" stroke-width="1.022"/>
<path d="M405.225 675.032H360.257V720H405.225V675.032Z" stroke="#FF72E1" stroke-width="1.022"/>
<path d="M450.19 675.032H405.222V720H450.19V675.032Z" stroke="#FF72E1" stroke-width="1.022"/>
<path d="M495.159 675.032H450.191V720H495.159V675.032Z" stroke="#FF72E1" stroke-width="1.022"/>
<path d="M540.127 675.032H495.159V720H540.127V675.032Z" stroke="#FF72E1" stroke-width="1.022"/>
<path d="M585.096 675.032H540.128V720H585.096V675.032Z" stroke="#FF72E1" stroke-width="1.022"/>
<path d="M630.065 675.032H585.097V720H630.065V675.032Z" stroke="#FF72E1" stroke-width="1.022"/>
<path d="M675.034 675.032H630.066V720H675.034V675.032Z" stroke="#FF72E1" stroke-width="1.022"/>
<path d="M719.999 675.032H675.031V720H719.999V675.032Z" stroke="#FF72E1" stroke-width="1.022"/>
<path d="M764.967 675.032H719.999V720H764.967V675.032Z" stroke="#FF72E1" stroke-width="1.022"/>
<path d="M809.936 675.032H764.968V720H809.936V675.032Z" stroke="#FF72E1" stroke-width="1.022"/>
<path d="M854.905 675.032H809.937V720H854.905V675.032Z" stroke="#FF72E1" stroke-width="1.022"/>
<path d="M899.874 675.032H854.906V720H899.874V675.032Z" stroke="#FF72E1" stroke-width="1.022"/>
<path d="M944.838 675.032H899.87V720H944.838V675.032Z" stroke="#FF72E1" stroke-width="1.022"/>
<path d="M989.807 675.032H944.839V720H989.807V675.032Z" stroke="#FF72E1" stroke-width="1.022"/>
<path d="M1034.78 675.032H989.808V720H1034.78V675.032Z" stroke="#FF72E1" stroke-width="1.022"/>
<path d="M1079.75 675.032H1034.78V720H1079.75V675.032Z" stroke="#FF72E1" stroke-width="1.022"/>
<path d="M1124.72 675.032H1079.75V720H1124.72V675.032Z" stroke="#FF72E1" stroke-width="1.022"/>
<path d="M1169.68 675.032H1124.71V720H1169.68V675.032Z" stroke="#FF72E1" stroke-width="1.022"/>
<path d="M1214.65 675.032H1169.68V720H1214.65V675.032Z" stroke="#FF72E1" stroke-width="1.022"/>
<path d="M1259.62 675.032H1214.65V720H1259.62V675.032Z" stroke="#FF72E1" stroke-width="1.022"/>
<path d="M1304.59 675.032H1259.62V720H1304.59V675.032Z" stroke="#FF72E1" stroke-width="1.022"/>
<path d="M1349.56 675.032H1304.59V720H1349.56V675.032Z" stroke="#FF72E1" stroke-width="1.022"/>
<path d="M1394.52 675.032H1349.55V720H1394.52V675.032Z" stroke="#FF72E1" stroke-width="1.022"/>
<path d="M1439.49 675.032H1394.52V720H1439.49V675.032Z" stroke="#FF72E1" stroke-width="1.022"/>
<path d="M45.4791 720H0.510986V764.968H45.4791V720Z" stroke="#FF72E1" stroke-width="1.022"/>
<path d="M90.4478 720H45.4797V764.968H90.4478V720Z" stroke="#FF72E1" stroke-width="1.022"/>
<path d="M135.417 720H90.4485V764.968H135.417V720Z" stroke="#FF72E1" stroke-width="1.022"/>
<path d="M180.381 720H135.413V764.968H180.381V720Z" stroke="#FF72E1" stroke-width="1.022"/>
<path d="M225.35 720H180.382V764.968H225.35V720Z" stroke="#FF72E1" stroke-width="1.022"/>
<path d="M270.319 720H225.351V764.968H270.319V720Z" stroke="#FF72E1" stroke-width="1.022"/>
<path d="M315.288 720H270.32V764.968H315.288V720Z" stroke="#FF72E1" stroke-width="1.022"/>
<path d="M360.256 720H315.288V764.968H360.256V720Z" stroke="#FF72E1" stroke-width="1.022"/>
<path d="M405.225 720H360.257V764.968H405.225V720Z" stroke="#FF72E1" stroke-width="1.022"/>
<path d="M450.19 720H405.222V764.968H450.19V720Z" stroke="#FF72E1" stroke-width="1.022"/>
<path d="M495.159 720H450.191V764.968H495.159V720Z" stroke="#FF72E1" stroke-width="1.022"/>
<path d="M540.127 720H495.159V764.968H540.127V720Z" stroke="#FF72E1" stroke-width="1.022"/>
<path d="M585.096 720H540.128V764.968H585.096V720Z" stroke="#FF72E1" stroke-width="1.022"/>
<path d="M630.065 720H585.097V764.968H630.065V720Z" stroke="#FF72E1" stroke-width="1.022"/>
<path d="M675.034 720H630.066V764.968H675.034V720Z" stroke="#FF72E1" stroke-width="1.022"/>
<path d="M719.999 720H675.031V764.968H719.999V720Z" stroke="#FF72E1" stroke-width="1.022"/>
<path d="M764.967 720H719.999V764.968H764.967V720Z" stroke="#FF72E1" stroke-width="1.022"/>
<path d="M809.936 720H764.968V764.968H809.936V720Z" stroke="#FF72E1" stroke-width="1.022"/>
<path d="M854.905 720H809.937V764.968H854.905V720Z" stroke="#FF72E1" stroke-width="1.022"/>
<path d="M899.874 720H854.906V764.968H899.874V720Z" stroke="#FF72E1" stroke-width="1.022"/>
<path d="M944.838 720H899.87V764.968H944.838V720Z" stroke="#FF72E1" stroke-width="1.022"/>
<path d="M989.807 720H944.839V764.968H989.807V720Z" stroke="#FF72E1" stroke-width="1.022"/>
<path d="M1034.78 720H989.808V764.968H1034.78V720Z" stroke="#FF72E1" stroke-width="1.022"/>
<path d="M1079.75 720H1034.78V764.968H1079.75V720Z" stroke="#FF72E1" stroke-width="1.022"/>
<path d="M1124.72 720H1079.75V764.968H1124.72V720Z" stroke="#FF72E1" stroke-width="1.022"/>
<path d="M1169.68 720H1124.71V764.968H1169.68V720Z" stroke="#FF72E1" stroke-width="1.022"/>
<path d="M1214.65 720H1169.68V764.968H1214.65V720Z" stroke="#FF72E1" stroke-width="1.022"/>
<path d="M1259.62 720H1214.65V764.968H1259.62V720Z" stroke="#FF72E1" stroke-width="1.022"/>
<path d="M1304.59 720H1259.62V764.968H1304.59V720Z" stroke="#FF72E1" stroke-width="1.022"/>
<path d="M1349.56 720H1304.59V764.968H1349.56V720Z" stroke="#FF72E1" stroke-width="1.022"/>
<path d="M1394.52 720H1349.55V764.968H1394.52V720Z" stroke="#FF72E1" stroke-width="1.022"/>
<path d="M1439.49 720H1394.52V764.968H1439.49V720Z" stroke="#FF72E1" stroke-width="1.022"/>
<path d="M45.4791 764.968H0.510986V809.936H45.4791V764.968Z" stroke="#FF72E1" stroke-width="1.022"/>
<path d="M90.4478 764.968H45.4797V809.936H90.4478V764.968Z" stroke="#FF72E1" stroke-width="1.022"/>
<path d="M135.417 764.968H90.4485V809.936H135.417V764.968Z" stroke="#FF72E1" stroke-width="1.022"/>
<path d="M180.381 764.968H135.413V809.936H180.381V764.968Z" stroke="#FF72E1" stroke-width="1.022"/>
<path d="M225.35 764.968H180.382V809.936H225.35V764.968Z" stroke="#FF72E1" stroke-width="1.022"/>
<path d="M270.319 764.968H225.351V809.936H270.319V764.968Z" stroke="#FF72E1" stroke-width="1.022"/>
<path d="M315.288 764.968H270.32V809.936H315.288V764.968Z" stroke="#FF72E1" stroke-width="1.022"/>
<path d="M360.256 764.968H315.288V809.936H360.256V764.968Z" stroke="#FF72E1" stroke-width="1.022"/>
<path d="M405.225 764.968H360.257V809.936H405.225V764.968Z" stroke="#FF72E1" stroke-width="1.022"/>
<path d="M450.19 764.968H405.222V809.936H450.19V764.968Z" stroke="#FF72E1" stroke-width="1.022"/>
<path d="M495.159 764.968H450.191V809.936H495.159V764.968Z" stroke="#FF72E1" stroke-width="1.022"/>
<path d="M540.127 764.968H495.159V809.936H540.127V764.968Z" stroke="#FF72E1" stroke-width="1.022"/>
<path d="M585.096 764.968H540.128V809.936H585.096V764.968Z" stroke="#FF72E1" stroke-width="1.022"/>
<path d="M630.065 764.968H585.097V809.936H630.065V764.968Z" stroke="#FF72E1" stroke-width="1.022"/>
<path d="M675.034 764.968H630.066V809.936H675.034V764.968Z" stroke="#FF72E1" stroke-width="1.022"/>
<path d="M719.999 764.968H675.031V809.936H719.999V764.968Z" stroke="#FF72E1" stroke-width="1.022"/>
<path d="M764.967 764.968H719.999V809.936H764.967V764.968Z" stroke="#FF72E1" stroke-width="1.022"/>
<path d="M809.936 764.968H764.968V809.936H809.936V764.968Z" stroke="#FF72E1" stroke-width="1.022"/>
<path d="M854.905 764.968H809.937V809.936H854.905V764.968Z" stroke="#FF72E1" stroke-width="1.022"/>
<path d="M899.874 764.968H854.906V809.936H899.874V764.968Z" stroke="#FF72E1" stroke-width="1.022"/>
<path d="M944.838 764.968H899.87V809.936H944.838V764.968Z" stroke="#FF72E1" stroke-width="1.022"/>
<path d="M989.807 764.968H944.839V809.936H989.807V764.968Z" stroke="#FF72E1" stroke-width="1.022"/>
<path d="M1034.78 764.968H989.808V809.936H1034.78V764.968Z" stroke="#FF72E1" stroke-width="1.022"/>
<path d="M1079.75 764.968H1034.78V809.936H1079.75V764.968Z" stroke="#FF72E1" stroke-width="1.022"/>
<path d="M1124.72 764.968H1079.75V809.936H1124.72V764.968Z" stroke="#FF72E1" stroke-width="1.022"/>
<path d="M1169.68 764.968H1124.71V809.936H1169.68V764.968Z" stroke="#FF72E1" stroke-width="1.022"/>
<path d="M1214.65 764.968H1169.68V809.936H1214.65V764.968Z" stroke="#FF72E1" stroke-width="1.022"/>
<path d="M1259.62 764.968H1214.65V809.936H1259.62V764.968Z" stroke="#FF72E1" stroke-width="1.022"/>
<path d="M1304.59 764.968H1259.62V809.936H1304.59V764.968Z" stroke="#FF72E1" stroke-width="1.022"/>
<path d="M1349.56 764.968H1304.59V809.936H1349.56V764.968Z" stroke="#FF72E1" stroke-width="1.022"/>
<path d="M1394.52 764.968H1349.55V809.936H1394.52V764.968Z" stroke="#FF72E1" stroke-width="1.022"/>
<path d="M1439.49 764.968H1394.52V809.936H1439.49V764.968Z" stroke="#FF72E1" stroke-width="1.022"/>
<path d="M45.4791 809.936H0.510986V854.904H45.4791V809.936Z" stroke="#FF72E1" stroke-width="1.022"/>
<path d="M90.4478 809.936H45.4797V854.904H90.4478V809.936Z" stroke="#FF72E1" stroke-width="1.022"/>
<path d="M135.417 809.936H90.4485V854.904H135.417V809.936Z" stroke="#FF72E1" stroke-width="1.022"/>
<path d="M180.381 809.936H135.413V854.904H180.381V809.936Z" stroke="#FF72E1" stroke-width="1.022"/>
<path d="M225.35 809.936H180.382V854.904H225.35V809.936Z" stroke="#FF72E1" stroke-width="1.022"/>
<path d="M270.319 809.936H225.351V854.904H270.319V809.936Z" stroke="#FF72E1" stroke-width="1.022"/>
<path d="M315.288 809.936H270.32V854.904H315.288V809.936Z" stroke="#FF72E1" stroke-width="1.022"/>
<path d="M360.256 809.936H315.288V854.904H360.256V809.936Z" stroke="#FF72E1" stroke-width="1.022"/>
<path d="M405.225 809.936H360.257V854.904H405.225V809.936Z" stroke="#FF72E1" stroke-width="1.022"/>
<path d="M450.19 809.936H405.222V854.904H450.19V809.936Z" stroke="#FF72E1" stroke-width="1.022"/>
<path d="M495.159 809.936H450.191V854.904H495.159V809.936Z" stroke="#FF72E1" stroke-width="1.022"/>
<path d="M540.127 809.936H495.159V854.904H540.127V809.936Z" stroke="#FF72E1" stroke-width="1.022"/>
<path d="M585.096 809.936H540.128V854.904H585.096V809.936Z" stroke="#FF72E1" stroke-width="1.022"/>
<path d="M630.065 809.936H585.097V854.904H630.065V809.936Z" stroke="#FF72E1" stroke-width="1.022"/>
<path d="M675.034 809.936H630.066V854.904H675.034V809.936Z" stroke="#FF72E1" stroke-width="1.022"/>
<path d="M719.999 809.936H675.031V854.904H719.999V809.936Z" stroke="#FF72E1" stroke-width="1.022"/>
<path d="M764.967 809.936H719.999V854.904H764.967V809.936Z" stroke="#FF72E1" stroke-width="1.022"/>
<path d="M809.936 809.936H764.968V854.904H809.936V809.936Z" stroke="#FF72E1" stroke-width="1.022"/>
<path d="M854.905 809.936H809.937V854.904H854.905V809.936Z" stroke="#FF72E1" stroke-width="1.022"/>
<path d="M899.874 809.936H854.906V854.904H899.874V809.936Z" stroke="#FF72E1" stroke-width="1.022"/>
<path d="M944.838 809.936H899.87V854.904H944.838V809.936Z" stroke="#FF72E1" stroke-width="1.022"/>
<path d="M989.807 809.936H944.839V854.904H989.807V809.936Z" stroke="#FF72E1" stroke-width="1.022"/>
<path d="M1034.78 809.936H989.808V854.904H1034.78V809.936Z" stroke="#FF72E1" stroke-width="1.022"/>
<path d="M1079.75 809.936H1034.78V854.904H1079.75V809.936Z" stroke="#FF72E1" stroke-width="1.022"/>
<path d="M1124.72 809.936H1079.75V854.904H1124.72V809.936Z" stroke="#FF72E1" stroke-width="1.022"/>
<path d="M1169.68 809.936H1124.71V854.904H1169.68V809.936Z" stroke="#FF72E1" stroke-width="1.022"/>
<path d="M1214.65 809.936H1169.68V854.904H1214.65V809.936Z" stroke="#FF72E1" stroke-width="1.022"/>
<path d="M1259.62 809.936H1214.65V854.904H1259.62V809.936Z" stroke="#FF72E1" stroke-width="1.022"/>
<path d="M1304.59 809.936H1259.62V854.904H1304.59V809.936Z" stroke="#FF72E1" stroke-width="1.022"/>
<path d="M1349.56 809.936H1304.59V854.904H1349.56V809.936Z" stroke="#FF72E1" stroke-width="1.022"/>
<path d="M1394.52 809.936H1349.55V854.904H1394.52V809.936Z" stroke="#FF72E1" stroke-width="1.022"/>
<path d="M1439.49 809.936H1394.52V854.904H1439.49V809.936Z" stroke="#FF72E1" stroke-width="1.022"/>
<path d="M45.4791 854.904H0.510986V899.872H45.4791V854.904Z" stroke="#FF72E1" stroke-width="1.022"/>
<path d="M90.4478 854.904H45.4797V899.872H90.4478V854.904Z" stroke="#FF72E1" stroke-width="1.022"/>
<path d="M135.417 854.904H90.4485V899.872H135.417V854.904Z" stroke="#FF72E1" stroke-width="1.022"/>
<path d="M180.381 854.904H135.413V899.872H180.381V854.904Z" stroke="#FF72E1" stroke-width="1.022"/>
<path d="M225.35 854.904H180.382V899.872H225.35V854.904Z" stroke="#FF72E1" stroke-width="1.022"/>
<path d="M270.319 854.904H225.351V899.872H270.319V854.904Z" stroke="#FF72E1" stroke-width="1.022"/>
<path d="M315.288 854.904H270.32V899.872H315.288V854.904Z" stroke="#FF72E1" stroke-width="1.022"/>
<path d="M360.256 854.904H315.288V899.872H360.256V854.904Z" stroke="#FF72E1" stroke-width="1.022"/>
<path d="M405.225 854.904H360.257V899.872H405.225V854.904Z" stroke="#FF72E1" stroke-width="1.022"/>
<path d="M450.19 854.904H405.222V899.872H450.19V854.904Z" stroke="#FF72E1" stroke-width="1.022"/>
<path d="M495.159 854.904H450.191V899.872H495.159V854.904Z" stroke="#FF72E1" stroke-width="1.022"/>
<path d="M540.127 854.904H495.159V899.872H540.127V854.904Z" stroke="#FF72E1" stroke-width="1.022"/>
<path d="M585.096 854.904H540.128V899.872H585.096V854.904Z" stroke="#FF72E1" stroke-width="1.022"/>
<path d="M630.065 854.904H585.097V899.872H630.065V854.904Z" stroke="#FF72E1" stroke-width="1.022"/>
<path d="M675.034 854.904H630.066V899.872H675.034V854.904Z" stroke="#FF72E1" stroke-width="1.022"/>
<path d="M719.999 854.904H675.031V899.872H719.999V854.904Z" stroke="#FF72E1" stroke-width="1.022"/>
<path d="M764.967 854.904H719.999V899.872H764.967V854.904Z" stroke="#FF72E1" stroke-width="1.022"/>
<path d="M809.936 854.904H764.968V899.872H809.936V854.904Z" stroke="#FF72E1" stroke-width="1.022"/>
<path d="M854.905 854.904H809.937V899.872H854.905V854.904Z" stroke="#FF72E1" stroke-width="1.022"/>
<path d="M899.874 854.904H854.906V899.872H899.874V854.904Z" stroke="#FF72E1" stroke-width="1.022"/>
<path d="M944.838 854.904H899.87V899.872H944.838V854.904Z" stroke="#FF72E1" stroke-width="1.022"/>
<path d="M989.807 854.904H944.839V899.872H989.807V854.904Z" stroke="#FF72E1" stroke-width="1.022"/>
<path d="M1034.78 854.904H989.808V899.872H1034.78V854.904Z" stroke="#FF72E1" stroke-width="1.022"/>
<path d="M1079.75 854.904H1034.78V899.872H1079.75V854.904Z" stroke="#FF72E1" stroke-width="1.022"/>
<path d="M1124.72 854.904H1079.75V899.872H1124.72V854.904Z" stroke="#FF72E1" stroke-width="1.022"/>
<path d="M1169.68 854.904H1124.71V899.872H1169.68V854.904Z" stroke="#FF72E1" stroke-width="1.022"/>
<path d="M1214.65 854.904H1169.68V899.872H1214.65V854.904Z" stroke="#FF72E1" stroke-width="1.022"/>
<path d="M1259.62 854.904H1214.65V899.872H1259.62V854.904Z" stroke="#FF72E1" stroke-width="1.022"/>
<path d="M1304.59 854.904H1259.62V899.872H1304.59V854.904Z" stroke="#FF72E1" stroke-width="1.022"/>
<path d="M1349.56 854.904H1304.59V899.872H1349.56V854.904Z" stroke="#FF72E1" stroke-width="1.022"/>
<path d="M1394.52 854.904H1349.55V899.872H1394.52V854.904Z" stroke="#FF72E1" stroke-width="1.022"/>
<path d="M1439.49 854.904H1394.52V899.872H1439.49V854.904Z" stroke="#FF72E1" stroke-width="1.022"/>
</g>
</g>
</g>
<defs>
<radialGradient id="paint0_radial_149_70" cx="0" cy="0" r="1" gradientUnits="userSpaceOnUse" gradientTransform="translate(720 132.5) rotate(90) scale(626 980.892)">
<stop stop-color="#D9D9D9"/>
<stop offset="1" stop-color="#737373" stop-opacity="0"/>
</radialGradient>
<clipPath id="clip0_149_70">
<rect width="1440" height="919" fill="white"/>
</clipPath>
</defs>
</svg>
