<svg width="3217" height="2054" viewBox="0 0 3217 2054" fill="none" xmlns="http://www.w3.org/2000/svg">
<g clip-path="url(#clip0_149_70)">
<g style="mix-blend-mode:screen" opacity="0.2">
<mask id="mask0_149_70" style="mask-type:alpha" maskUnits="userSpaceOnUse" x="0" y="0" width="3217" height="2054">
<g style="mix-blend-mode:screen" opacity="0.2">
<path d="M3217 0.928467H0V2054H3217V0.928467Z" fill="url(#paint0_radial_149_70)"/>
</g>
</mask>
<g mask="url(#mask0_149_70)">
<path d="M101.602 2.07056H1.1416V102.531H101.602V2.07056Z" stroke="#DDFFF0" stroke-width="2.28318"/>
<path d="M202.063 2.07056H101.603V102.531H202.063V2.07056Z" stroke="#DDFFF0" stroke-width="2.28318"/>
<path d="M302.524 2.07056H202.064V102.531H302.524V2.07056Z" stroke="#DDFFF0" stroke-width="2.28318"/>
<path d="M402.977 2.07056H302.517V102.531H402.977V2.07056Z" stroke="#DDFFF0" stroke-width="2.28318"/>
<path d="M503.438 2.07056H402.978V102.531H503.438V2.07056Z" stroke="#DDFFF0" stroke-width="2.28318"/>
<path d="M603.9 2.07056H503.44V102.531H603.9V2.07056Z" stroke="#DDFFF0" stroke-width="2.28318"/>
<path d="M704.363 2.07056H603.903V102.531H704.363V2.07056Z" stroke="#DDFFF0" stroke-width="2.28318"/>
<path d="M804.822 2.07056H704.362V102.531H804.822V2.07056Z" stroke="#DDFFF0" stroke-width="2.28318"/>
<path d="M905.284 2.07056H804.824V102.531H905.284V2.07056Z" stroke="#DDFFF0" stroke-width="2.28318"/>
<path d="M1005.74 2.07056H905.277V102.531H1005.74V2.07056Z" stroke="#DDFFF0" stroke-width="2.28318"/>
<path d="M1106.2 2.07056H1005.74V102.531H1106.2V2.07056Z" stroke="#DDFFF0" stroke-width="2.28318"/>
<path d="M1206.66 2.07056H1106.2V102.531H1206.66V2.07056Z" stroke="#DDFFF0" stroke-width="2.28318"/>
<path d="M1307.12 2.07056H1206.66V102.531H1307.12V2.07056Z" stroke="#DDFFF0" stroke-width="2.28318"/>
<path d="M1407.58 2.07056H1307.12V102.531H1407.58V2.07056Z" stroke="#DDFFF0" stroke-width="2.28318"/>
<path d="M1508.04 2.07056H1407.58V102.531H1508.04V2.07056Z" stroke="#DDFFF0" stroke-width="2.28318"/>
<path d="M1608.5 2.07056H1508.04V102.531H1608.5V2.07056Z" stroke="#DDFFF0" stroke-width="2.28318"/>
<path d="M1708.96 2.07056H1608.5V102.531H1708.96V2.07056Z" stroke="#DDFFF0" stroke-width="2.28318"/>
<path d="M1809.42 2.07056H1708.96V102.531H1809.42V2.07056Z" stroke="#DDFFF0" stroke-width="2.28318"/>
<path d="M1909.88 2.07056H1809.42V102.531H1909.88V2.07056Z" stroke="#DDFFF0" stroke-width="2.28318"/>
<path d="M2010.34 2.07056H1909.88V102.531H2010.34V2.07056Z" stroke="#DDFFF0" stroke-width="2.28318"/>
<path d="M2110.79 2.07056H2010.33V102.531H2110.79V2.07056Z" stroke="#DDFFF0" stroke-width="2.28318"/>
<path d="M2211.26 2.07056H2110.8V102.531H2211.26V2.07056Z" stroke="#DDFFF0" stroke-width="2.28318"/>
<path d="M2311.72 2.07056H2211.26V102.531H2311.72V2.07056Z" stroke="#DDFFF0" stroke-width="2.28318"/>
<path d="M2412.19 2.07056H2311.73V102.531H2412.19V2.07056Z" stroke="#DDFFF0" stroke-width="2.28318"/>
<path d="M2512.65 2.07056H2412.19V102.531H2512.65V2.07056Z" stroke="#DDFFF0" stroke-width="2.28318"/>
<path d="M2613.09 2.07056H2512.63V102.531H2613.09V2.07056Z" stroke="#DDFFF0" stroke-width="2.28318"/>
<path d="M2713.56 2.07056H2613.1V102.531H2713.56V2.07056Z" stroke="#DDFFF0" stroke-width="2.28318"/>
<path d="M2814.02 2.07056H2713.56V102.531H2814.02V2.07056Z" stroke="#DDFFF0" stroke-width="2.28318"/>
<path d="M2914.49 2.07056H2814.03V102.531H2914.49V2.07056Z" stroke="#DDFFF0" stroke-width="2.28318"/>
<path d="M3014.95 2.07056H2914.49V102.531H3014.95V2.07056Z" stroke="#DDFFF0" stroke-width="2.28318"/>
<path d="M3115.39 2.07056H3014.93V102.531H3115.39V2.07056Z" stroke="#DDFFF0" stroke-width="2.28318"/>
<path d="M3215.86 2.07056H3115.4V102.531H3215.86V2.07056Z" stroke="#DDFFF0" stroke-width="2.28318"/>
<path d="M101.602 102.53H1.1416V202.99H101.602V102.53Z" stroke="#DDFFF0" stroke-width="2.28318"/>
<path d="M202.063 102.53H101.603V202.99H202.063V102.53Z" stroke="#DDFFF0" stroke-width="2.28318"/>
<path d="M302.524 102.53H202.064V202.99H302.524V102.53Z" stroke="#DDFFF0" stroke-width="2.28318"/>
<path d="M402.977 102.53H302.517V202.99H402.977V102.53Z" stroke="#DDFFF0" stroke-width="2.28318"/>
<path d="M503.438 102.53H402.978V202.99H503.438V102.53Z" stroke="#DDFFF0" stroke-width="2.28318"/>
<path d="M603.9 102.53H503.44V202.99H603.9V102.53Z" stroke="#DDFFF0" stroke-width="2.28318"/>
<path d="M704.363 102.53H603.903V202.99H704.363V102.53Z" stroke="#DDFFF0" stroke-width="2.28318"/>
<path d="M804.822 102.53H704.362V202.99H804.822V102.53Z" stroke="#DDFFF0" stroke-width="2.28318"/>
<path d="M905.284 102.53H804.824V202.99H905.284V102.53Z" stroke="#DDFFF0" stroke-width="2.28318"/>
<path d="M1005.74 102.53H905.277V202.99H1005.74V102.53Z" stroke="#DDFFF0" stroke-width="2.28318"/>
<path d="M1106.2 102.53H1005.74V202.99H1106.2V102.53Z" stroke="#DDFFF0" stroke-width="2.28318"/>
<path d="M1206.66 102.53H1106.2V202.99H1206.66V102.53Z" stroke="#DDFFF0" stroke-width="2.28318"/>
<path d="M1307.12 102.53H1206.66V202.99H1307.12V102.53Z" stroke="#DDFFF0" stroke-width="2.28318"/>
<path d="M1407.58 102.53H1307.12V202.99H1407.58V102.53Z" stroke="#DDFFF0" stroke-width="2.28318"/>
<path d="M1508.04 102.53H1407.58V202.99H1508.04V102.53Z" stroke="#DDFFF0" stroke-width="2.28318"/>
<path d="M1608.5 102.53H1508.04V202.99H1608.5V102.53Z" stroke="#DDFFF0" stroke-width="2.28318"/>
<path d="M1708.96 102.53H1608.5V202.99H1708.96V102.53Z" stroke="#DDFFF0" stroke-width="2.28318"/>
<path d="M1809.42 102.53H1708.96V202.99H1809.42V102.53Z" stroke="#DDFFF0" stroke-width="2.28318"/>
<path d="M1909.88 102.53H1809.42V202.99H1909.88V102.53Z" stroke="#DDFFF0" stroke-width="2.28318"/>
<path d="M2010.34 102.53H1909.88V202.99H2010.34V102.53Z" stroke="#DDFFF0" stroke-width="2.28318"/>
<path d="M2110.79 102.53H2010.33V202.99H2110.79V102.53Z" stroke="#DDFFF0" stroke-width="2.28318"/>
<path d="M2211.26 102.53H2110.8V202.99H2211.26V102.53Z" stroke="#DDFFF0" stroke-width="2.28318"/>
<path d="M2311.72 102.53H2211.26V202.99H2311.72V102.53Z" stroke="#DDFFF0" stroke-width="2.28318"/>
<path d="M2412.19 102.53H2311.73V202.99H2412.19V102.53Z" stroke="#DDFFF0" stroke-width="2.28318"/>
<path d="M2512.65 102.53H2412.19V202.99H2512.65V102.53Z" stroke="#DDFFF0" stroke-width="2.28318"/>
<path d="M2613.09 102.53H2512.63V202.99H2613.09V102.53Z" stroke="#DDFFF0" stroke-width="2.28318"/>
<path d="M2713.56 102.53H2613.1V202.99H2713.56V102.53Z" stroke="#DDFFF0" stroke-width="2.28318"/>
<path d="M2814.02 102.53H2713.56V202.99H2814.02V102.53Z" stroke="#DDFFF0" stroke-width="2.28318"/>
<path d="M2914.49 102.53H2814.03V202.99H2914.49V102.53Z" stroke="#DDFFF0" stroke-width="2.28318"/>
<path d="M3014.95 102.53H2914.49V202.99H3014.95V102.53Z" stroke="#DDFFF0" stroke-width="2.28318"/>
<path d="M3115.39 102.53H3014.93V202.99H3115.39V102.53Z" stroke="#DDFFF0" stroke-width="2.28318"/>
<path d="M3215.86 102.53H3115.4V202.99H3215.86V102.53Z" stroke="#DDFFF0" stroke-width="2.28318"/>
<path d="M101.602 202.99H1.1416V303.45H101.602V202.99Z" stroke="#DDFFF0" stroke-width="2.28318"/>
<path d="M202.063 202.99H101.603V303.45H202.063V202.99Z" stroke="#DDFFF0" stroke-width="2.28318"/>
<path d="M302.524 202.99H202.064V303.45H302.524V202.99Z" stroke="#DDFFF0" stroke-width="2.28318"/>
<path d="M402.977 202.99H302.517V303.45H402.977V202.99Z" stroke="#DDFFF0" stroke-width="2.28318"/>
<path d="M402.978 202.99H503.438V254.362C503.438 281.472 481.459 303.45 454.349 303.45H402.978V202.99Z" stroke="#DDFFF0" stroke-width="2.28318"/>
<path d="M503.44 202.99H603.9V303.45H552.529C525.417 303.45 503.44 281.472 503.44 254.362V202.99Z" stroke="#DDFFF0" stroke-width="2.28318"/>
<path d="M704.363 202.99H603.903V303.45H704.363V202.99Z" stroke="#DDFFF0" stroke-width="2.28318"/>
<path d="M804.822 202.99H704.362V303.45H804.822V202.99Z" stroke="#DDFFF0" stroke-width="2.28318"/>
<path d="M905.284 202.99H804.824V303.45H905.284V202.99Z" stroke="#DDFFF0" stroke-width="2.28318"/>
<path d="M1005.74 202.99H905.277V303.45H1005.74V202.99Z" stroke="#DDFFF0" stroke-width="2.28318"/>
<path d="M1106.2 202.99H1005.74V303.45H1106.2V202.99Z" stroke="#DDFFF0" stroke-width="2.28318"/>
<path d="M1206.66 202.99H1106.2V303.45H1206.66V202.99Z" stroke="#DDFFF0" stroke-width="2.28318"/>
<path d="M1307.12 202.99H1206.66V303.45H1307.12V202.99Z" stroke="#DDFFF0" stroke-width="2.28318"/>
<path d="M1307.12 202.99H1407.58V254.362C1407.58 281.472 1385.6 303.45 1358.49 303.45H1307.12V202.99Z" stroke="#DDFFF0" stroke-width="2.28318"/>
<path d="M1407.58 202.99H1508.04V303.45H1456.67C1429.56 303.45 1407.58 281.472 1407.58 254.362V202.99Z" stroke="#DDFFF0" stroke-width="2.28318"/>
<path d="M1608.5 202.99H1508.04V303.45H1608.5V202.99Z" stroke="#DDFFF0" stroke-width="2.28318"/>
<path d="M1708.96 202.99H1608.5V303.45H1708.96V202.99Z" stroke="#DDFFF0" stroke-width="2.28318"/>
<path d="M1809.42 202.99H1708.96V303.45H1809.42V202.99Z" stroke="#DDFFF0" stroke-width="2.28318"/>
<path d="M1909.88 202.99H1809.42V303.45H1909.88V202.99Z" stroke="#DDFFF0" stroke-width="2.28318"/>
<path d="M2010.34 202.99H1909.88V303.45H2010.34V202.99Z" stroke="#DDFFF0" stroke-width="2.28318"/>
<path d="M2110.79 202.99H2010.33V303.45H2110.79V202.99Z" stroke="#DDFFF0" stroke-width="2.28318"/>
<path d="M2211.26 202.99H2110.8V303.45H2211.26V202.99Z" stroke="#DDFFF0" stroke-width="2.28318"/>
<path d="M2211.26 202.99H2311.73V254.362C2311.73 281.472 2289.74 303.45 2262.62 303.45H2211.26V202.99Z" stroke="#DDFFF0" stroke-width="2.28318"/>
<path d="M2311.73 202.99H2412.17V303.45H2360.81C2333.69 303.45 2311.73 281.472 2311.73 254.362V202.99Z" stroke="#DDFFF0" stroke-width="2.28318"/>
<path d="M2512.65 202.99H2412.19V303.45H2512.65V202.99Z" stroke="#DDFFF0" stroke-width="2.28318"/>
<path d="M2613.09 202.99H2512.63V303.45H2613.09V202.99Z" stroke="#DDFFF0" stroke-width="2.28318"/>
<path d="M2713.56 202.99H2613.1V303.45H2713.56V202.99Z" stroke="#DDFFF0" stroke-width="2.28318"/>
<path d="M2814.02 202.99H2713.56V303.45H2814.02V202.99Z" stroke="#DDFFF0" stroke-width="2.28318"/>
<path d="M2914.49 202.99H2814.03V303.45H2914.49V202.99Z" stroke="#DDFFF0" stroke-width="2.28318"/>
<path d="M3014.95 202.99H2914.49V303.45H3014.95V202.99Z" stroke="#DDFFF0" stroke-width="2.28318"/>
<path d="M3115.39 202.99H3014.93V303.45H3115.39V202.99Z" stroke="#DDFFF0" stroke-width="2.28318"/>
<path d="M3215.86 202.99H3115.4V303.45H3215.86V202.99Z" stroke="#DDFFF0" stroke-width="2.28318"/>
<path d="M101.602 303.449H1.1416V403.909H101.602V303.449Z" stroke="#DDFFF0" stroke-width="2.28318"/>
<path d="M202.063 303.449H101.603V403.909H202.063V303.449Z" stroke="#DDFFF0" stroke-width="2.28318"/>
<path d="M302.524 303.449H202.064V403.909H302.524V303.449Z" stroke="#DDFFF0" stroke-width="2.28318"/>
<path d="M402.977 303.449H302.517V403.909H402.977V303.449Z" stroke="#DDFFF0" stroke-width="2.28318"/>
<path d="M402.978 303.449H454.349C481.462 303.449 503.438 325.428 503.438 352.538V403.909H402.978V303.449Z" stroke="#DDFFF0" stroke-width="2.28318"/>
<path d="M503.44 352.538C503.44 325.428 525.419 303.449 552.529 303.449H603.9V403.909H503.44V352.538Z" stroke="#DDFFF0" stroke-width="2.28318"/>
<path d="M704.363 303.449H603.903V403.909H704.363V303.449Z" stroke="#DDFFF0" stroke-width="2.28318"/>
<path d="M804.822 303.449H704.362V403.909H804.822V303.449Z" stroke="#DDFFF0" stroke-width="2.28318"/>
<path d="M905.284 303.449H804.824V403.909H905.284V303.449Z" stroke="#DDFFF0" stroke-width="2.28318"/>
<path d="M1005.74 303.449H905.277V403.909H1005.74V303.449Z" stroke="#DDFFF0" stroke-width="2.28318"/>
<path d="M1106.2 303.449H1005.74V403.909H1106.2V303.449Z" stroke="#DDFFF0" stroke-width="2.28318"/>
<path d="M1206.66 303.449H1106.2V403.909H1206.66V303.449Z" stroke="#DDFFF0" stroke-width="2.28318"/>
<path d="M1307.12 303.449H1206.66V403.909H1307.12V303.449Z" stroke="#DDFFF0" stroke-width="2.28318"/>
<path d="M1307.12 303.449H1358.49C1385.6 303.449 1407.58 325.428 1407.58 352.538V403.909H1307.12V303.449Z" stroke="#DDFFF0" stroke-width="2.28318"/>
<path d="M1407.58 352.538C1407.58 325.428 1429.56 303.449 1456.67 303.449H1508.04V403.909H1407.58V352.538Z" stroke="#DDFFF0" stroke-width="2.28318"/>
<path d="M1608.5 303.449H1508.04V403.909H1608.5V303.449Z" stroke="#DDFFF0" stroke-width="2.28318"/>
<path d="M1708.96 303.449H1608.5V403.909H1708.96V303.449Z" stroke="#DDFFF0" stroke-width="2.28318"/>
<path d="M1809.42 303.449H1708.96V403.909H1809.42V303.449Z" stroke="#DDFFF0" stroke-width="2.28318"/>
<path d="M1909.88 303.449H1809.42V403.909H1909.88V303.449Z" stroke="#DDFFF0" stroke-width="2.28318"/>
<path d="M2010.34 303.449H1909.88V403.909H2010.34V303.449Z" stroke="#DDFFF0" stroke-width="2.28318"/>
<path d="M2110.79 303.449H2010.33V403.909H2110.79V303.449Z" stroke="#DDFFF0" stroke-width="2.28318"/>
<path d="M2211.26 303.449H2110.8V403.909H2211.26V303.449Z" stroke="#DDFFF0" stroke-width="2.28318"/>
<path d="M2211.26 303.449H2262.62C2289.74 303.449 2311.73 325.428 2311.73 352.538V403.909H2211.26V303.449Z" stroke="#DDFFF0" stroke-width="2.28318"/>
<path d="M2311.73 352.538C2311.73 325.428 2333.69 303.449 2360.81 303.449H2412.17V403.909H2311.73V352.538Z" stroke="#DDFFF0" stroke-width="2.28318"/>
<path d="M2512.65 303.449H2412.19V403.909H2512.65V303.449Z" stroke="#DDFFF0" stroke-width="2.28318"/>
<path d="M2613.09 303.449H2512.63V403.909H2613.09V303.449Z" stroke="#DDFFF0" stroke-width="2.28318"/>
<path d="M2713.56 303.449H2613.1V403.909H2713.56V303.449Z" stroke="#DDFFF0" stroke-width="2.28318"/>
<path d="M2814.02 303.449H2713.56V403.909H2814.02V303.449Z" stroke="#DDFFF0" stroke-width="2.28318"/>
<path d="M2914.49 303.449H2814.03V403.909H2914.49V303.449Z" stroke="#DDFFF0" stroke-width="2.28318"/>
<path d="M3014.95 303.449H2914.49V403.909H3014.95V303.449Z" stroke="#DDFFF0" stroke-width="2.28318"/>
<path d="M3115.39 303.449H3014.93V403.909H3115.39V303.449Z" stroke="#DDFFF0" stroke-width="2.28318"/>
<path d="M3215.86 303.449H3115.4V403.909H3215.86V303.449Z" stroke="#DDFFF0" stroke-width="2.28318"/>
<path d="M101.602 403.91H1.1416V504.37H101.602V403.91Z" stroke="#DDFFF0" stroke-width="2.28318"/>
<path d="M202.063 403.91H101.603V504.37H202.063V403.91Z" stroke="#DDFFF0" stroke-width="2.28318"/>
<path d="M302.524 403.91H202.064V504.37H302.524V403.91Z" stroke="#DDFFF0" stroke-width="2.28318"/>
<path d="M402.977 403.91H302.517V504.37H402.977V403.91Z" stroke="#DDFFF0" stroke-width="2.28318"/>
<path d="M503.438 403.91H402.978V504.37H503.438V403.91Z" stroke="#DDFFF0" stroke-width="2.28318"/>
<path d="M603.9 403.91H503.44V504.37H603.9V403.91Z" stroke="#DDFFF0" stroke-width="2.28318"/>
<path d="M704.363 403.91H603.903V504.37H704.363V403.91Z" stroke="#DDFFF0" stroke-width="2.28318"/>
<path d="M804.822 403.91H704.362V504.37H804.822V403.91Z" stroke="#DDFFF0" stroke-width="2.28318"/>
<path d="M905.284 403.91H804.824V504.37H905.284V403.91Z" stroke="#DDFFF0" stroke-width="2.28318"/>
<path d="M1005.74 403.91H905.277V504.37H1005.74V403.91Z" stroke="#DDFFF0" stroke-width="2.28318"/>
<path d="M1106.2 403.91H1005.74V504.37H1106.2V403.91Z" stroke="#DDFFF0" stroke-width="2.28318"/>
<path d="M1206.66 403.91H1106.2V504.37H1206.66V403.91Z" stroke="#DDFFF0" stroke-width="2.28318"/>
<path d="M1307.12 403.91H1206.66V504.37H1307.12V403.91Z" stroke="#DDFFF0" stroke-width="2.28318"/>
<path d="M1407.58 403.91H1307.12V504.37H1407.58V403.91Z" stroke="#DDFFF0" stroke-width="2.28318"/>
<path d="M1508.04 403.91H1407.58V504.37H1508.04V403.91Z" stroke="#DDFFF0" stroke-width="2.28318"/>
<path d="M1608.5 403.91H1508.04V504.37H1608.5V403.91Z" stroke="#DDFFF0" stroke-width="2.28318"/>
<path d="M1708.96 403.91H1608.5V504.37H1708.96V403.91Z" stroke="#DDFFF0" stroke-width="2.28318"/>
<path d="M1809.42 403.91H1708.96V504.37H1809.42V403.91Z" stroke="#DDFFF0" stroke-width="2.28318"/>
<path d="M1909.88 403.91H1809.42V504.37H1909.88V403.91Z" stroke="#DDFFF0" stroke-width="2.28318"/>
<path d="M2010.34 403.91H1909.88V504.37H2010.34V403.91Z" stroke="#DDFFF0" stroke-width="2.28318"/>
<path d="M2110.79 403.91H2010.33V504.37H2110.79V403.91Z" stroke="#DDFFF0" stroke-width="2.28318"/>
<path d="M2211.26 403.91H2110.8V504.37H2211.26V403.91Z" stroke="#DDFFF0" stroke-width="2.28318"/>
<path d="M2311.72 403.91H2211.26V504.37H2311.72V403.91Z" stroke="#DDFFF0" stroke-width="2.28318"/>
<path d="M2412.19 403.91H2311.73V504.37H2412.19V403.91Z" stroke="#DDFFF0" stroke-width="2.28318"/>
<path d="M2512.65 403.91H2412.19V504.37H2512.65V403.91Z" stroke="#DDFFF0" stroke-width="2.28318"/>
<path d="M2613.09 403.91H2512.63V504.37H2613.09V403.91Z" stroke="#DDFFF0" stroke-width="2.28318"/>
<path d="M2713.56 403.91H2613.1V504.37H2713.56V403.91Z" stroke="#DDFFF0" stroke-width="2.28318"/>
<path d="M2814.02 403.91H2713.56V504.37H2814.02V403.91Z" stroke="#DDFFF0" stroke-width="2.28318"/>
<path d="M2914.49 403.91H2814.03V504.37H2914.49V403.91Z" stroke="#DDFFF0" stroke-width="2.28318"/>
<path d="M3014.95 403.91H2914.49V504.37H3014.95V403.91Z" stroke="#DDFFF0" stroke-width="2.28318"/>
<path d="M3115.39 403.91H3014.93V504.37H3115.39V403.91Z" stroke="#DDFFF0" stroke-width="2.28318"/>
<path d="M3215.86 403.91H3115.4V504.37H3215.86V403.91Z" stroke="#DDFFF0" stroke-width="2.28318"/>
<path d="M101.602 504.369H1.1416V604.829H101.602V504.369Z" stroke="#DDFFF0" stroke-width="2.28318"/>
<path d="M202.063 504.369H101.603V604.829H202.063V504.369Z" stroke="#DDFFF0" stroke-width="2.28318"/>
<path d="M302.524 504.369H202.064V604.829H302.524V504.369Z" stroke="#DDFFF0" stroke-width="2.28318"/>
<path d="M402.977 504.369H302.517V604.829H402.977V504.369Z" stroke="#DDFFF0" stroke-width="2.28318"/>
<path d="M503.438 504.369H402.978V604.829H503.438V504.369Z" stroke="#DDFFF0" stroke-width="2.28318"/>
<path d="M603.9 504.369H503.44V604.829H603.9V504.369Z" stroke="#DDFFF0" stroke-width="2.28318"/>
<path d="M704.363 504.369H603.903V604.829H704.363V504.369Z" stroke="#DDFFF0" stroke-width="2.28318"/>
<path d="M804.822 504.369H704.362V604.829H804.822V504.369Z" stroke="#DDFFF0" stroke-width="2.28318"/>
<path d="M905.284 504.369H804.824V604.829H905.284V504.369Z" stroke="#DDFFF0" stroke-width="2.28318"/>
<path d="M1005.74 504.369H905.277V604.829H1005.74V504.369Z" stroke="#DDFFF0" stroke-width="2.28318"/>
<path d="M1106.2 504.369H1005.74V604.829H1106.2V504.369Z" stroke="#DDFFF0" stroke-width="2.28318"/>
<path d="M1206.66 504.369H1106.2V604.829H1206.66V504.369Z" stroke="#DDFFF0" stroke-width="2.28318"/>
<path d="M1307.12 504.369H1206.66V604.829H1307.12V504.369Z" stroke="#DDFFF0" stroke-width="2.28318"/>
<path d="M1407.58 504.369H1307.12V604.829H1407.58V504.369Z" stroke="#DDFFF0" stroke-width="2.28318"/>
<path d="M1508.04 504.369H1407.58V604.829H1508.04V504.369Z" stroke="#DDFFF0" stroke-width="2.28318"/>
<path d="M1608.5 504.369H1508.04V604.829H1608.5V504.369Z" stroke="#DDFFF0" stroke-width="2.28318"/>
<path d="M1708.96 504.369H1608.5V604.829H1708.96V504.369Z" stroke="#DDFFF0" stroke-width="2.28318"/>
<path d="M1809.42 504.369H1708.96V604.829H1809.42V504.369Z" stroke="#DDFFF0" stroke-width="2.28318"/>
<path d="M1909.88 504.369H1809.42V604.829H1909.88V504.369Z" stroke="#DDFFF0" stroke-width="2.28318"/>
<path d="M2010.34 504.369H1909.88V604.829H2010.34V504.369Z" stroke="#DDFFF0" stroke-width="2.28318"/>
<path d="M2010.33 504.369H2110.79V555.741C2110.79 582.853 2088.82 604.829 2061.71 604.829H2010.33V504.369Z" stroke="#DDFFF0" stroke-width="2.28318"/>
<path d="M2110.8 504.369H2211.26V604.829H2159.88C2132.78 604.829 2110.8 582.853 2110.8 555.741V504.369Z" stroke="#DDFFF0" stroke-width="2.28318"/>
<path d="M2311.72 504.369H2211.26V604.829H2311.72V504.369Z" stroke="#DDFFF0" stroke-width="2.28318"/>
<path d="M2412.19 504.369H2311.73V604.829H2412.19V504.369Z" stroke="#DDFFF0" stroke-width="2.28318"/>
<path d="M2512.65 504.369H2412.19V604.829H2512.65V504.369Z" stroke="#DDFFF0" stroke-width="2.28318"/>
<path d="M2613.09 504.369H2512.63V604.829H2613.09V504.369Z" stroke="#DDFFF0" stroke-width="2.28318"/>
<path d="M2713.56 504.369H2613.1V604.829H2713.56V504.369Z" stroke="#DDFFF0" stroke-width="2.28318"/>
<path d="M2814.02 504.369H2713.56V604.829H2814.02V504.369Z" stroke="#DDFFF0" stroke-width="2.28318"/>
<path d="M2914.49 504.369H2814.03V604.829H2914.49V504.369Z" stroke="#DDFFF0" stroke-width="2.28318"/>
<path d="M3014.95 504.369H2914.49V604.829H3014.95V504.369Z" stroke="#DDFFF0" stroke-width="2.28318"/>
<path d="M3115.39 504.369H3014.93V604.829H3115.39V504.369Z" stroke="#DDFFF0" stroke-width="2.28318"/>
<path d="M3215.86 504.369H3115.4V604.829H3215.86V504.369Z" stroke="#DDFFF0" stroke-width="2.28318"/>
<path d="M101.602 604.83H1.1416V705.29H101.602V604.83Z" stroke="#DDFFF0" stroke-width="2.28318"/>
<path d="M202.063 604.83H101.603V705.29H202.063V604.83Z" stroke="#DDFFF0" stroke-width="2.28318"/>
<path d="M302.524 604.83H202.064V705.29H302.524V604.83Z" stroke="#DDFFF0" stroke-width="2.28318"/>
<path d="M402.977 604.83H302.517V705.29H402.977V604.83Z" stroke="#DDFFF0" stroke-width="2.28318"/>
<path d="M503.438 604.83H402.978V705.29H503.438V604.83Z" stroke="#DDFFF0" stroke-width="2.28318"/>
<path d="M603.9 604.83H503.44V705.29H603.9V604.83Z" stroke="#DDFFF0" stroke-width="2.28318"/>
<path d="M704.363 604.83H603.903V705.29H704.363V604.83Z" stroke="#DDFFF0" stroke-width="2.28318"/>
<path d="M804.822 604.83H704.362V705.29H804.822V604.83Z" stroke="#DDFFF0" stroke-width="2.28318"/>
<path d="M804.824 604.83H905.284V656.201C905.284 683.313 883.305 705.289 856.195 705.289H804.824V604.83Z" stroke="#DDFFF0" stroke-width="2.28318"/>
<path d="M905.277 604.83H1005.74V705.289H954.365C927.256 705.289 905.277 683.313 905.277 656.201V604.83Z" stroke="#DDFFF0" stroke-width="2.28318"/>
<path d="M1106.2 604.83H1005.74V705.29H1106.2V604.83Z" stroke="#DDFFF0" stroke-width="2.28318"/>
<path d="M1206.66 604.83H1106.2V705.29H1206.66V604.83Z" stroke="#DDFFF0" stroke-width="2.28318"/>
<path d="M1307.12 604.83H1206.66V705.29H1307.12V604.83Z" stroke="#DDFFF0" stroke-width="2.28318"/>
<path d="M1407.58 604.83H1307.12V705.29H1407.58V604.83Z" stroke="#DDFFF0" stroke-width="2.28318"/>
<path d="M1508.04 604.83H1407.58V705.29H1508.04V604.83Z" stroke="#DDFFF0" stroke-width="2.28318"/>
<path d="M1608.5 604.83H1508.04V705.29H1608.5V604.83Z" stroke="#DDFFF0" stroke-width="2.28318"/>
<path d="M1708.96 604.83H1608.5V705.29H1708.96V604.83Z" stroke="#DDFFF0" stroke-width="2.28318"/>
<path d="M1809.42 604.83H1708.96V705.29H1809.42V604.83Z" stroke="#DDFFF0" stroke-width="2.28318"/>
<path d="M1909.88 604.83H1809.42V705.29H1909.88V604.83Z" stroke="#DDFFF0" stroke-width="2.28318"/>
<path d="M2010.34 604.83H1909.88V705.29H2010.34V604.83Z" stroke="#DDFFF0" stroke-width="2.28318"/>
<path d="M2010.33 604.83H2061.71C2088.82 604.83 2110.79 626.808 2110.79 653.918V705.289H2010.33V604.83Z" stroke="#DDFFF0" stroke-width="2.28318"/>
<path d="M2110.8 653.918C2110.8 626.808 2132.78 604.83 2159.88 604.83H2211.26V705.289H2110.8V653.918Z" stroke="#DDFFF0" stroke-width="2.28318"/>
<path d="M2311.72 604.83H2211.26V705.29H2311.72V604.83Z" stroke="#DDFFF0" stroke-width="2.28318"/>
<path d="M2412.19 604.83H2311.73V705.29H2412.19V604.83Z" stroke="#DDFFF0" stroke-width="2.28318"/>
<path d="M2512.65 604.83H2412.19V705.29H2512.65V604.83Z" stroke="#DDFFF0" stroke-width="2.28318"/>
<path d="M2613.09 604.83H2512.63V705.29H2613.09V604.83Z" stroke="#DDFFF0" stroke-width="2.28318"/>
<path d="M2713.56 604.83H2613.1V705.29H2713.56V604.83Z" stroke="#DDFFF0" stroke-width="2.28318"/>
<path d="M2814.02 604.83H2713.56V705.29H2814.02V604.83Z" stroke="#DDFFF0" stroke-width="2.28318"/>
<path d="M2814.03 604.83H2914.47V656.201C2914.47 683.313 2892.51 705.289 2865.39 705.289H2814.03V604.83Z" stroke="#DDFFF0" stroke-width="2.28318"/>
<path d="M2914.49 604.83H3014.93V705.289H2963.57C2936.45 705.289 2914.49 683.313 2914.49 656.201V604.83Z" stroke="#DDFFF0" stroke-width="2.28318"/>
<path d="M3115.39 604.83H3014.93V705.29H3115.39V604.83Z" stroke="#DDFFF0" stroke-width="2.28318"/>
<path d="M3215.86 604.83H3115.4V705.29H3215.86V604.83Z" stroke="#DDFFF0" stroke-width="2.28318"/>
<path d="M101.602 705.289H1.1416V805.749H101.602V705.289Z" stroke="#DDFFF0" stroke-width="2.28318"/>
<path d="M202.063 705.289H101.603V805.749H202.063V705.289Z" stroke="#DDFFF0" stroke-width="2.28318"/>
<path d="M302.524 705.289H202.064V805.749H302.524V705.289Z" stroke="#DDFFF0" stroke-width="2.28318"/>
<path d="M402.977 705.289H302.517V805.749H402.977V705.289Z" stroke="#DDFFF0" stroke-width="2.28318"/>
<path d="M503.438 705.289H402.978V805.749H503.438V705.289Z" stroke="#DDFFF0" stroke-width="2.28318"/>
<path d="M603.9 705.289H503.44V805.749H603.9V705.289Z" stroke="#DDFFF0" stroke-width="2.28318"/>
<path d="M704.363 705.289H603.903V805.749H704.363V705.289Z" stroke="#DDFFF0" stroke-width="2.28318"/>
<path d="M804.822 705.289H704.362V805.749H804.822V705.289Z" stroke="#DDFFF0" stroke-width="2.28318"/>
<path d="M804.824 705.289H856.195C883.307 705.289 905.284 727.267 905.284 754.377V805.748H804.824V705.289Z" stroke="#DDFFF0" stroke-width="2.28318"/>
<path d="M905.277 754.377C905.277 727.267 927.256 705.289 954.365 705.289H1005.74V805.748H905.277V754.377Z" stroke="#DDFFF0" stroke-width="2.28318"/>
<path d="M1106.2 705.289H1005.74V805.749H1106.2V705.289Z" stroke="#DDFFF0" stroke-width="2.28318"/>
<path d="M1206.66 705.289H1106.2V805.749H1206.66V705.289Z" stroke="#DDFFF0" stroke-width="2.28318"/>
<path d="M1307.12 705.289H1206.66V805.749H1307.12V705.289Z" stroke="#DDFFF0" stroke-width="2.28318"/>
<path d="M1407.58 705.289H1307.12V805.749H1407.58V705.289Z" stroke="#DDFFF0" stroke-width="2.28318"/>
<path d="M1508.04 705.289H1407.58V805.749H1508.04V705.289Z" stroke="#DDFFF0" stroke-width="2.28318"/>
<path d="M1608.5 705.289H1508.04V805.749H1608.5V705.289Z" stroke="#DDFFF0" stroke-width="2.28318"/>
<path d="M1708.96 705.289H1608.5V805.749H1708.96V705.289Z" stroke="#DDFFF0" stroke-width="2.28318"/>
<path d="M1809.42 705.289H1708.96V805.749H1809.42V705.289Z" stroke="#DDFFF0" stroke-width="2.28318"/>
<path d="M1909.88 705.289H1809.42V805.749H1909.88V705.289Z" stroke="#DDFFF0" stroke-width="2.28318"/>
<path d="M2010.34 705.289H1909.88V805.749H2010.34V705.289Z" stroke="#DDFFF0" stroke-width="2.28318"/>
<path d="M2110.79 705.289H2010.33V805.749H2110.79V705.289Z" stroke="#DDFFF0" stroke-width="2.28318"/>
<path d="M2211.26 705.289H2110.8V805.749H2211.26V705.289Z" stroke="#DDFFF0" stroke-width="2.28318"/>
<path d="M2311.72 705.289H2211.26V805.749H2311.72V705.289Z" stroke="#DDFFF0" stroke-width="2.28318"/>
<path d="M2412.19 705.289H2311.73V805.749H2412.19V705.289Z" stroke="#DDFFF0" stroke-width="2.28318"/>
<path d="M2512.65 705.289H2412.19V805.749H2512.65V705.289Z" stroke="#DDFFF0" stroke-width="2.28318"/>
<path d="M2613.09 705.289H2512.63V805.749H2613.09V705.289Z" stroke="#DDFFF0" stroke-width="2.28318"/>
<path d="M2713.56 705.289H2613.1V805.749H2713.56V705.289Z" stroke="#DDFFF0" stroke-width="2.28318"/>
<path d="M2814.02 705.289H2713.56V805.749H2814.02V705.289Z" stroke="#DDFFF0" stroke-width="2.28318"/>
<path d="M2814.03 705.289H2865.39C2892.51 705.289 2914.47 727.267 2914.47 754.377V805.748H2814.03V705.289Z" stroke="#DDFFF0" stroke-width="2.28318"/>
<path d="M2914.49 754.377C2914.49 727.267 2936.45 705.289 2963.57 705.289H3014.93V805.748H2914.49V754.377Z" stroke="#DDFFF0" stroke-width="2.28318"/>
<path d="M3115.39 705.289H3014.93V805.749H3115.39V705.289Z" stroke="#DDFFF0" stroke-width="2.28318"/>
<path d="M3215.86 705.289H3115.4V805.749H3215.86V705.289Z" stroke="#DDFFF0" stroke-width="2.28318"/>
<path d="M101.602 805.751H1.1416V906.211H101.602V805.751Z" stroke="#DDFFF0" stroke-width="2.28318"/>
<path d="M202.063 805.751H101.603V906.211H202.063V805.751Z" stroke="#DDFFF0" stroke-width="2.28318"/>
<path d="M302.524 805.751H202.064V906.211H302.524V805.751Z" stroke="#DDFFF0" stroke-width="2.28318"/>
<path d="M402.977 805.751H302.517V906.211H402.977V805.751Z" stroke="#DDFFF0" stroke-width="2.28318"/>
<path d="M402.978 805.751H503.438V857.122C503.438 884.232 481.459 906.211 454.349 906.211H402.978V805.751Z" stroke="#DDFFF0" stroke-width="2.28318"/>
<path d="M503.44 805.751H603.9V906.211H552.529C525.417 906.211 503.44 884.232 503.44 857.122V805.751Z" stroke="#DDFFF0" stroke-width="2.28318"/>
<path d="M704.363 805.751H603.903V906.211H704.363V805.751Z" stroke="#DDFFF0" stroke-width="2.28318"/>
<path d="M804.822 805.751H704.362V906.211H804.822V805.751Z" stroke="#DDFFF0" stroke-width="2.28318"/>
<path d="M905.284 805.751H804.824V906.211H905.284V805.751Z" stroke="#DDFFF0" stroke-width="2.28318"/>
<path d="M1005.74 805.751H905.277V906.211H1005.74V805.751Z" stroke="#DDFFF0" stroke-width="2.28318"/>
<path d="M1106.2 805.751H1005.74V906.211H1106.2V805.751Z" stroke="#DDFFF0" stroke-width="2.28318"/>
<path d="M1206.66 805.751H1106.2V906.211H1206.66V805.751Z" stroke="#DDFFF0" stroke-width="2.28318"/>
<path d="M1307.12 805.751H1206.66V906.211H1307.12V805.751Z" stroke="#DDFFF0" stroke-width="2.28318"/>
<path d="M1307.12 805.751H1407.58V906.211H1307.12V805.751Z" stroke="#DDFFF0" stroke-width="2.28318"/>
<path d="M1407.58 805.751H1508.04V906.211H1407.58V805.751Z" stroke="#DDFFF0" stroke-width="2.28318"/>
<path d="M1608.5 805.751H1508.04V906.211H1608.5V805.751Z" stroke="#DDFFF0" stroke-width="2.28318"/>
<path d="M1708.96 805.751H1608.5V906.211H1708.96V805.751Z" stroke="#DDFFF0" stroke-width="2.28318"/>
<path d="M1809.42 805.751H1708.96V906.211H1809.42V805.751Z" stroke="#DDFFF0" stroke-width="2.28318"/>
<path d="M1909.88 805.751H1809.42V906.211H1909.88V805.751Z" stroke="#DDFFF0" stroke-width="2.28318"/>
<path d="M2010.34 805.751H1909.88V906.211H2010.34V805.751Z" stroke="#DDFFF0" stroke-width="2.28318"/>
<path d="M2110.79 805.751H2010.33V906.211H2110.79V805.751Z" stroke="#DDFFF0" stroke-width="2.28318"/>
<path d="M2110.8 805.751H2211.26V857.122C2211.26 884.232 2189.28 906.211 2162.17 906.211H2110.8V805.751Z" stroke="#DDFFF0" stroke-width="2.28318"/>
<path d="M2211.26 805.751H2311.73V906.211H2260.34C2233.24 906.211 2211.26 884.232 2211.26 857.122V805.751Z" stroke="#DDFFF0" stroke-width="2.28318"/>
<path d="M2412.19 805.751H2311.73V906.211H2412.19V805.751Z" stroke="#DDFFF0" stroke-width="2.28318"/>
<path d="M2512.65 805.751H2412.19V906.211H2512.65V805.751Z" stroke="#DDFFF0" stroke-width="2.28318"/>
<path d="M2613.09 805.751H2512.63V906.211H2613.09V805.751Z" stroke="#DDFFF0" stroke-width="2.28318"/>
<path d="M2713.56 805.751H2613.1V906.211H2713.56V805.751Z" stroke="#DDFFF0" stroke-width="2.28318"/>
<path d="M2814.02 805.751H2713.56V906.211H2814.02V805.751Z" stroke="#DDFFF0" stroke-width="2.28318"/>
<path d="M2914.49 805.751H2814.03V906.211H2914.49V805.751Z" stroke="#DDFFF0" stroke-width="2.28318"/>
<path d="M3014.95 805.751H2914.49V906.211H3014.95V805.751Z" stroke="#DDFFF0" stroke-width="2.28318"/>
<path d="M3115.39 805.751H3014.93V906.211H3115.39V805.751Z" stroke="#DDFFF0" stroke-width="2.28318"/>
<path d="M3215.86 805.751H3115.4V906.211H3215.86V805.751Z" stroke="#DDFFF0" stroke-width="2.28318"/>
<path d="M101.602 906.21H1.1416V1006.67H101.602V906.21Z" stroke="#DDFFF0" stroke-width="2.28318"/>
<path d="M202.063 906.21H101.603V1006.67H202.063V906.21Z" stroke="#DDFFF0" stroke-width="2.28318"/>
<path d="M302.524 906.21H202.064V1006.67H302.524V906.21Z" stroke="#DDFFF0" stroke-width="2.28318"/>
<path d="M402.977 906.21H302.517V1006.67H402.977V906.21Z" stroke="#DDFFF0" stroke-width="2.28318"/>
<path d="M402.978 906.21H454.349C481.462 906.21 503.438 928.187 503.438 955.299V1006.67H402.978V906.21Z" stroke="#DDFFF0" stroke-width="2.28318"/>
<path d="M503.44 955.299C503.44 928.187 525.419 906.21 552.529 906.21H603.9V1006.67H503.44V955.299Z" stroke="#DDFFF0" stroke-width="2.28318"/>
<path d="M704.363 906.21H603.903V1006.67H704.363V906.21Z" stroke="#DDFFF0" stroke-width="2.28318"/>
<path d="M804.822 906.21H704.362V1006.67H804.822V906.21Z" stroke="#DDFFF0" stroke-width="2.28318"/>
<path d="M905.284 906.21H804.824V1006.67H905.284V906.21Z" stroke="#DDFFF0" stroke-width="2.28318"/>
<path d="M1005.74 906.21H905.277V1006.67H1005.74V906.21Z" stroke="#DDFFF0" stroke-width="2.28318"/>
<path d="M1106.2 906.21H1005.74V1006.67H1106.2V906.21Z" stroke="#DDFFF0" stroke-width="2.28318"/>
<path d="M1206.66 906.21H1106.2V1006.67H1206.66V906.21Z" stroke="#DDFFF0" stroke-width="2.28318"/>
<path d="M1307.12 906.21H1206.66V1006.67H1307.12V906.21Z" stroke="#DDFFF0" stroke-width="2.28318"/>
<path d="M1307.12 906.21H1407.58V1006.67H1307.12V906.21Z" stroke="#DDFFF0" stroke-width="2.28318"/>
<path d="M1407.58 906.21H1508.04V1006.67H1407.58V906.21Z" stroke="#DDFFF0" stroke-width="2.28318"/>
<path d="M1608.5 906.21H1508.04V1006.67H1608.5V906.21Z" stroke="#DDFFF0" stroke-width="2.28318"/>
<path d="M1708.96 906.21H1608.5V1006.67H1708.96V906.21Z" stroke="#DDFFF0" stroke-width="2.28318"/>
<path d="M1809.42 906.21H1708.96V1006.67H1809.42V906.21Z" stroke="#DDFFF0" stroke-width="2.28318"/>
<path d="M1909.88 906.21H1809.42V1006.67H1909.88V906.21Z" stroke="#DDFFF0" stroke-width="2.28318"/>
<path d="M2010.34 906.21H1909.88V1006.67H2010.34V906.21Z" stroke="#DDFFF0" stroke-width="2.28318"/>
<path d="M2110.79 906.21H2010.33V1006.67H2110.79V906.21Z" stroke="#DDFFF0" stroke-width="2.28318"/>
<path d="M2110.8 906.21H2162.17C2189.28 906.21 2211.26 928.187 2211.26 955.299V1006.67H2110.8V906.21Z" stroke="#DDFFF0" stroke-width="2.28318"/>
<path d="M2211.26 955.299C2211.26 928.187 2233.24 906.21 2260.34 906.21H2311.73V1006.67H2211.26V955.299Z" stroke="#DDFFF0" stroke-width="2.28318"/>
<path d="M2412.19 906.21H2311.73V1006.67H2412.19V906.21Z" stroke="#DDFFF0" stroke-width="2.28318"/>
<path d="M2512.65 906.21H2412.19V1006.67H2512.65V906.21Z" stroke="#DDFFF0" stroke-width="2.28318"/>
<path d="M2613.09 906.21H2512.63V1006.67H2613.09V906.21Z" stroke="#DDFFF0" stroke-width="2.28318"/>
<path d="M2713.56 906.21H2613.1V1006.67H2713.56V906.21Z" stroke="#DDFFF0" stroke-width="2.28318"/>
<path d="M2814.02 906.21H2713.56V1006.67H2814.02V906.21Z" stroke="#DDFFF0" stroke-width="2.28318"/>
<path d="M2914.49 906.21H2814.03V1006.67H2914.49V906.21Z" stroke="#DDFFF0" stroke-width="2.28318"/>
<path d="M3014.95 906.21H2914.49V1006.67H3014.95V906.21Z" stroke="#DDFFF0" stroke-width="2.28318"/>
<path d="M3115.39 906.21H3014.93V1006.67H3115.39V906.21Z" stroke="#DDFFF0" stroke-width="2.28318"/>
<path d="M3215.86 906.21H3115.4V1006.67H3215.86V906.21Z" stroke="#DDFFF0" stroke-width="2.28318"/>
<path d="M101.602 1006.67H1.1416V1107.13H101.602V1006.67Z" stroke="#DDFFF0" stroke-width="2.28318"/>
<path d="M202.063 1006.67H101.603V1107.13H202.063V1006.67Z" stroke="#DDFFF0" stroke-width="2.28318"/>
<path d="M302.524 1006.67H202.064V1107.13H302.524V1006.67Z" stroke="#DDFFF0" stroke-width="2.28318"/>
<path d="M402.977 1006.67H302.517V1107.13H402.977V1006.67Z" stroke="#DDFFF0" stroke-width="2.28318"/>
<path d="M503.438 1006.67H402.978V1107.13H503.438V1006.67Z" stroke="#DDFFF0" stroke-width="2.28318"/>
<path d="M603.9 1006.67H503.44V1107.13H603.9V1006.67Z" stroke="#DDFFF0" stroke-width="2.28318"/>
<path d="M704.363 1006.67H603.903V1107.13H704.363V1006.67Z" stroke="#DDFFF0" stroke-width="2.28318"/>
<path d="M804.822 1006.67H704.362V1107.13H804.822V1006.67Z" stroke="#DDFFF0" stroke-width="2.28318"/>
<path d="M905.284 1006.67H804.824V1107.13H905.284V1006.67Z" stroke="#DDFFF0" stroke-width="2.28318"/>
<path d="M1005.74 1006.67H905.277V1107.13H1005.74V1006.67Z" stroke="#DDFFF0" stroke-width="2.28318"/>
<path d="M1106.2 1006.67H1005.74V1107.13H1106.2V1006.67Z" stroke="#DDFFF0" stroke-width="2.28318"/>
<path d="M1206.66 1006.67H1106.2V1107.13H1206.66V1006.67Z" stroke="#DDFFF0" stroke-width="2.28318"/>
<path d="M1307.12 1006.67H1206.66V1107.13H1307.12V1006.67Z" stroke="#DDFFF0" stroke-width="2.28318"/>
<path d="M1407.58 1006.67H1307.12V1107.13H1407.58V1006.67Z" stroke="#DDFFF0" stroke-width="2.28318"/>
<path d="M1508.04 1006.67H1407.58V1107.13H1508.04V1006.67Z" stroke="#DDFFF0" stroke-width="2.28318"/>
<path d="M1608.5 1006.67H1508.04V1107.13H1608.5V1006.67Z" stroke="#DDFFF0" stroke-width="2.28318"/>
<path d="M1708.96 1006.67H1608.5V1107.13H1708.96V1006.67Z" stroke="#DDFFF0" stroke-width="2.28318"/>
<path d="M1809.42 1006.67H1708.96V1107.13H1809.42V1006.67Z" stroke="#DDFFF0" stroke-width="2.28318"/>
<path d="M1909.88 1006.67H1809.42V1107.13H1909.88V1006.67Z" stroke="#DDFFF0" stroke-width="2.28318"/>
<path d="M2010.34 1006.67H1909.88V1107.13H2010.34V1006.67Z" stroke="#DDFFF0" stroke-width="2.28318"/>
<path d="M2110.79 1006.67H2010.33V1107.13H2110.79V1006.67Z" stroke="#DDFFF0" stroke-width="2.28318"/>
<path d="M2211.26 1006.67H2110.8V1107.13H2211.26V1006.67Z" stroke="#DDFFF0" stroke-width="2.28318"/>
<path d="M2311.72 1006.67H2211.26V1107.13H2311.72V1006.67Z" stroke="#DDFFF0" stroke-width="2.28318"/>
<path d="M2412.19 1006.67H2311.73V1107.13H2412.19V1006.67Z" stroke="#DDFFF0" stroke-width="2.28318"/>
<path d="M2512.65 1006.67H2412.19V1107.13H2512.65V1006.67Z" stroke="#DDFFF0" stroke-width="2.28318"/>
<path d="M2613.09 1006.67H2512.63V1107.13H2613.09V1006.67Z" stroke="#DDFFF0" stroke-width="2.28318"/>
<path d="M2713.56 1006.67H2613.1V1107.13H2713.56V1006.67Z" stroke="#DDFFF0" stroke-width="2.28318"/>
<path d="M2814.02 1006.67H2713.56V1107.13H2814.02V1006.67Z" stroke="#DDFFF0" stroke-width="2.28318"/>
<path d="M2914.49 1006.67H2814.03V1107.13H2914.49V1006.67Z" stroke="#DDFFF0" stroke-width="2.28318"/>
<path d="M3014.95 1006.67H2914.49V1107.13H3014.95V1006.67Z" stroke="#DDFFF0" stroke-width="2.28318"/>
<path d="M3115.39 1006.67H3014.93V1107.13H3115.39V1006.67Z" stroke="#DDFFF0" stroke-width="2.28318"/>
<path d="M3215.86 1006.67H3115.4V1107.13H3215.86V1006.67Z" stroke="#DDFFF0" stroke-width="2.28318"/>
<path d="M101.602 1107.13H1.1416V1207.59H101.602V1107.13Z" stroke="#DDFFF0" stroke-width="2.28318"/>
<path d="M202.063 1107.13H101.603V1207.59H202.063V1107.13Z" stroke="#DDFFF0" stroke-width="2.28318"/>
<path d="M302.524 1107.13H202.064V1207.59H302.524V1107.13Z" stroke="#DDFFF0" stroke-width="2.28318"/>
<path d="M402.977 1107.13H302.517V1207.59H402.977V1107.13Z" stroke="#DDFFF0" stroke-width="2.28318"/>
<path d="M503.438 1107.13H402.978V1207.59H503.438V1107.13Z" stroke="#DDFFF0" stroke-width="2.28318"/>
<path d="M603.9 1107.13H503.44V1207.59H603.9V1107.13Z" stroke="#DDFFF0" stroke-width="2.28318"/>
<path d="M704.363 1107.13H603.903V1207.59H704.363V1107.13Z" stroke="#DDFFF0" stroke-width="2.28318"/>
<path d="M804.822 1107.13H704.362V1207.59H804.822V1107.13Z" stroke="#DDFFF0" stroke-width="2.28318"/>
<path d="M905.284 1107.13H804.824V1207.59H905.284V1107.13Z" stroke="#DDFFF0" stroke-width="2.28318"/>
<path d="M1005.74 1107.13H905.277V1207.59H1005.74V1107.13Z" stroke="#DDFFF0" stroke-width="2.28318"/>
<path d="M1106.2 1107.13H1005.74V1207.59H1106.2V1107.13Z" stroke="#DDFFF0" stroke-width="2.28318"/>
<path d="M1206.66 1107.13H1106.2V1207.59H1206.66V1107.13Z" stroke="#DDFFF0" stroke-width="2.28318"/>
<path d="M1307.12 1107.13H1206.66V1207.59H1307.12V1107.13Z" stroke="#DDFFF0" stroke-width="2.28318"/>
<path d="M1407.58 1107.13H1307.12V1207.59H1407.58V1107.13Z" stroke="#DDFFF0" stroke-width="2.28318"/>
<path d="M1508.04 1107.13H1407.58V1207.59H1508.04V1107.13Z" stroke="#DDFFF0" stroke-width="2.28318"/>
<path d="M1608.5 1107.13H1508.04V1207.59H1608.5V1107.13Z" stroke="#DDFFF0" stroke-width="2.28318"/>
<path d="M1708.96 1107.13H1608.5V1207.59H1708.96V1107.13Z" stroke="#DDFFF0" stroke-width="2.28318"/>
<path d="M1809.42 1107.13H1708.96V1207.59H1809.42V1107.13Z" stroke="#DDFFF0" stroke-width="2.28318"/>
<path d="M1809.42 1107.13H1909.88V1158.5C1909.88 1185.61 1887.9 1207.59 1860.79 1207.59H1809.42V1107.13Z" stroke="#DDFFF0" stroke-width="2.28318"/>
<path d="M1909.88 1107.13H2010.34V1207.59H1958.97C1931.86 1207.59 1909.88 1185.61 1909.88 1158.5V1107.13Z" stroke="#DDFFF0" stroke-width="2.28318"/>
<path d="M2110.79 1107.13H2010.33V1207.59H2110.79V1107.13Z" stroke="#DDFFF0" stroke-width="2.28318"/>
<path d="M2211.26 1107.13H2110.8V1207.59H2211.26V1107.13Z" stroke="#DDFFF0" stroke-width="2.28318"/>
<path d="M2311.72 1107.13H2211.26V1207.59H2311.72V1107.13Z" stroke="#DDFFF0" stroke-width="2.28318"/>
<path d="M2412.19 1107.13H2311.73V1207.59H2412.19V1107.13Z" stroke="#DDFFF0" stroke-width="2.28318"/>
<path d="M2512.65 1107.13H2412.19V1207.59H2512.65V1107.13Z" stroke="#DDFFF0" stroke-width="2.28318"/>
<path d="M2613.09 1107.13H2512.63V1207.59H2613.09V1107.13Z" stroke="#DDFFF0" stroke-width="2.28318"/>
<path d="M2713.56 1107.13H2613.1V1207.59H2713.56V1107.13Z" stroke="#DDFFF0" stroke-width="2.28318"/>
<path d="M2814.02 1107.13H2713.56V1207.59H2814.02V1107.13Z" stroke="#DDFFF0" stroke-width="2.28318"/>
<path d="M2914.49 1107.13H2814.03V1207.59H2914.49V1107.13Z" stroke="#DDFFF0" stroke-width="2.28318"/>
<path d="M3014.95 1107.13H2914.49V1207.59H3014.95V1107.13Z" stroke="#DDFFF0" stroke-width="2.28318"/>
<path d="M3115.39 1107.13H3014.93V1207.59H3115.39V1107.13Z" stroke="#DDFFF0" stroke-width="2.28318"/>
<path d="M3215.86 1107.13H3115.4V1207.59H3215.86V1107.13Z" stroke="#DDFFF0" stroke-width="2.28318"/>
<path d="M101.602 1207.59H1.1416V1308.05H101.602V1207.59Z" stroke="#DDFFF0" stroke-width="2.28318"/>
<path d="M202.063 1207.59H101.603V1308.05H202.063V1207.59Z" stroke="#DDFFF0" stroke-width="2.28318"/>
<path d="M302.524 1207.59H202.064V1308.05H302.524V1207.59Z" stroke="#DDFFF0" stroke-width="2.28318"/>
<path d="M402.977 1207.59H302.517V1308.05H402.977V1207.59Z" stroke="#DDFFF0" stroke-width="2.28318"/>
<path d="M503.438 1207.59H402.978V1308.05H503.438V1207.59Z" stroke="#DDFFF0" stroke-width="2.28318"/>
<path d="M603.9 1207.59H503.44V1308.05H603.9V1207.59Z" stroke="#DDFFF0" stroke-width="2.28318"/>
<path d="M704.363 1207.59H603.903V1308.05H704.363V1207.59Z" stroke="#DDFFF0" stroke-width="2.28318"/>
<path d="M804.822 1207.59H704.362V1308.05H804.822V1207.59Z" stroke="#DDFFF0" stroke-width="2.28318"/>
<path d="M905.284 1207.59H804.824V1308.05H905.284V1207.59Z" stroke="#DDFFF0" stroke-width="2.28318"/>
<path d="M1005.74 1207.59H905.277V1308.05H1005.74V1207.59Z" stroke="#DDFFF0" stroke-width="2.28318"/>
<path d="M1106.2 1207.59H1005.74V1308.05H1106.2V1207.59Z" stroke="#DDFFF0" stroke-width="2.28318"/>
<path d="M1206.66 1207.59H1106.2V1308.05H1206.66V1207.59Z" stroke="#DDFFF0" stroke-width="2.28318"/>
<path d="M1307.12 1207.59H1206.66V1308.05H1307.12V1207.59Z" stroke="#DDFFF0" stroke-width="2.28318"/>
<path d="M1407.58 1207.59H1307.12V1308.05H1407.58V1207.59Z" stroke="#DDFFF0" stroke-width="2.28318"/>
<path d="M1508.04 1207.59H1407.58V1308.05H1508.04V1207.59Z" stroke="#DDFFF0" stroke-width="2.28318"/>
<path d="M1608.5 1207.59H1508.04V1308.05H1608.5V1207.59Z" stroke="#DDFFF0" stroke-width="2.28318"/>
<path d="M1708.96 1207.59H1608.5V1308.05H1708.96V1207.59Z" stroke="#DDFFF0" stroke-width="2.28318"/>
<path d="M1809.42 1207.59H1708.96V1308.05H1809.42V1207.59Z" stroke="#DDFFF0" stroke-width="2.28318"/>
<path d="M1809.42 1207.59H1860.79C1887.9 1207.59 1909.88 1229.57 1909.88 1256.68V1308.05H1809.42V1207.59Z" stroke="#DDFFF0" stroke-width="2.28318"/>
<path d="M1909.88 1256.68C1909.88 1229.57 1931.86 1207.59 1958.97 1207.59H2010.34V1308.05H1909.88V1256.68Z" stroke="#DDFFF0" stroke-width="2.28318"/>
<path d="M2110.79 1207.59H2010.33V1308.05H2110.79V1207.59Z" stroke="#DDFFF0" stroke-width="2.28318"/>
<path d="M2211.26 1207.59H2110.8V1308.05H2211.26V1207.59Z" stroke="#DDFFF0" stroke-width="2.28318"/>
<path d="M2311.72 1207.59H2211.26V1308.05H2311.72V1207.59Z" stroke="#DDFFF0" stroke-width="2.28318"/>
<path d="M2412.19 1207.59H2311.73V1308.05H2412.19V1207.59Z" stroke="#DDFFF0" stroke-width="2.28318"/>
<path d="M2512.65 1207.59H2412.19V1308.05H2512.65V1207.59Z" stroke="#DDFFF0" stroke-width="2.28318"/>
<path d="M2613.09 1207.59H2512.63V1308.05H2613.09V1207.59Z" stroke="#DDFFF0" stroke-width="2.28318"/>
<path d="M2713.56 1207.59H2613.1V1308.05H2713.56V1207.59Z" stroke="#DDFFF0" stroke-width="2.28318"/>
<path d="M2814.02 1207.59H2713.56V1308.05H2814.02V1207.59Z" stroke="#DDFFF0" stroke-width="2.28318"/>
<path d="M2914.49 1207.59H2814.03V1308.05H2914.49V1207.59Z" stroke="#DDFFF0" stroke-width="2.28318"/>
<path d="M3014.95 1207.59H2914.49V1308.05H3014.95V1207.59Z" stroke="#DDFFF0" stroke-width="2.28318"/>
<path d="M3115.39 1207.59H3014.93V1308.05H3115.39V1207.59Z" stroke="#DDFFF0" stroke-width="2.28318"/>
<path d="M3215.86 1207.59H3115.4V1308.05H3215.86V1207.59Z" stroke="#DDFFF0" stroke-width="2.28318"/>
<path d="M101.602 1308.05H1.1416V1408.51H101.602V1308.05Z" stroke="#DDFFF0" stroke-width="2.28318"/>
<path d="M202.063 1308.05H101.603V1408.51H202.063V1308.05Z" stroke="#DDFFF0" stroke-width="2.28318"/>
<path d="M302.524 1308.05H202.064V1408.51H302.524V1308.05Z" stroke="#DDFFF0" stroke-width="2.28318"/>
<path d="M402.977 1308.05H302.517V1408.51H402.977V1308.05Z" stroke="#DDFFF0" stroke-width="2.28318"/>
<path d="M503.438 1308.05H402.978V1408.51H503.438V1308.05Z" stroke="#DDFFF0" stroke-width="2.28318"/>
<path d="M603.9 1308.05H503.44V1408.51H603.9V1308.05Z" stroke="#DDFFF0" stroke-width="2.28318"/>
<path d="M704.363 1308.05H603.903V1408.51H704.363V1308.05Z" stroke="#DDFFF0" stroke-width="2.28318"/>
<path d="M804.822 1308.05H704.362V1408.51H804.822V1308.05Z" stroke="#DDFFF0" stroke-width="2.28318"/>
<path d="M905.284 1308.05H804.824V1408.51H905.284V1308.05Z" stroke="#DDFFF0" stroke-width="2.28318"/>
<path d="M1005.74 1308.05H905.277V1408.51H1005.74V1308.05Z" stroke="#DDFFF0" stroke-width="2.28318"/>
<path d="M1106.2 1308.05H1005.74V1408.51H1106.2V1308.05Z" stroke="#DDFFF0" stroke-width="2.28318"/>
<path d="M1206.66 1308.05H1106.2V1408.51H1206.66V1308.05Z" stroke="#DDFFF0" stroke-width="2.28318"/>
<path d="M1307.12 1308.05H1206.66V1408.51H1307.12V1308.05Z" stroke="#DDFFF0" stroke-width="2.28318"/>
<path d="M1407.58 1308.05H1307.12V1408.51H1407.58V1308.05Z" stroke="#DDFFF0" stroke-width="2.28318"/>
<path d="M1508.04 1308.05H1407.58V1408.51H1508.04V1308.05Z" stroke="#DDFFF0" stroke-width="2.28318"/>
<path d="M1608.5 1308.05H1508.04V1408.51H1608.5V1308.05Z" stroke="#DDFFF0" stroke-width="2.28318"/>
<path d="M1708.96 1308.05H1608.5V1408.51H1708.96V1308.05Z" stroke="#DDFFF0" stroke-width="2.28318"/>
<path d="M1809.42 1308.05H1708.96V1408.51H1809.42V1308.05Z" stroke="#DDFFF0" stroke-width="2.28318"/>
<path d="M1909.88 1308.05H1809.42V1408.51H1909.88V1308.05Z" stroke="#DDFFF0" stroke-width="2.28318"/>
<path d="M2010.34 1308.05H1909.88V1408.51H2010.34V1308.05Z" stroke="#DDFFF0" stroke-width="2.28318"/>
<path d="M2110.79 1308.05H2010.33V1408.51H2110.79V1308.05Z" stroke="#DDFFF0" stroke-width="2.28318"/>
<path d="M2211.26 1308.05H2110.8V1408.51H2211.26V1308.05Z" stroke="#DDFFF0" stroke-width="2.28318"/>
<path d="M2311.72 1308.05H2211.26V1408.51H2311.72V1308.05Z" stroke="#DDFFF0" stroke-width="2.28318"/>
<path d="M2412.19 1308.05H2311.73V1408.51H2412.19V1308.05Z" stroke="#DDFFF0" stroke-width="2.28318"/>
<path d="M2512.65 1308.05H2412.19V1408.51H2512.65V1308.05Z" stroke="#DDFFF0" stroke-width="2.28318"/>
<path d="M2613.09 1308.05H2512.63V1408.51H2613.09V1308.05Z" stroke="#DDFFF0" stroke-width="2.28318"/>
<path d="M2713.56 1308.05H2613.1V1408.51H2713.56V1308.05Z" stroke="#DDFFF0" stroke-width="2.28318"/>
<path d="M2814.02 1308.05H2713.56V1408.51H2814.02V1308.05Z" stroke="#DDFFF0" stroke-width="2.28318"/>
<path d="M2914.49 1308.05H2814.03V1408.51H2914.49V1308.05Z" stroke="#DDFFF0" stroke-width="2.28318"/>
<path d="M3014.95 1308.05H2914.49V1408.51H3014.95V1308.05Z" stroke="#DDFFF0" stroke-width="2.28318"/>
<path d="M3115.39 1308.05H3014.93V1408.51H3115.39V1308.05Z" stroke="#DDFFF0" stroke-width="2.28318"/>
<path d="M3215.86 1308.05H3115.4V1408.51H3215.86V1308.05Z" stroke="#DDFFF0" stroke-width="2.28318"/>
<path d="M101.602 1408.51H1.1416V1508.97H101.602V1408.51Z" stroke="#DDFFF0" stroke-width="2.28318"/>
<path d="M202.063 1408.51H101.603V1508.97H202.063V1408.51Z" stroke="#DDFFF0" stroke-width="2.28318"/>
<path d="M302.524 1408.51H202.064V1508.97H302.524V1408.51Z" stroke="#DDFFF0" stroke-width="2.28318"/>
<path d="M402.977 1408.51H302.517V1508.97H402.977V1408.51Z" stroke="#DDFFF0" stroke-width="2.28318"/>
<path d="M503.438 1408.51H402.978V1508.97H503.438V1408.51Z" stroke="#DDFFF0" stroke-width="2.28318"/>
<path d="M603.9 1408.51H503.44V1508.97H603.9V1408.51Z" stroke="#DDFFF0" stroke-width="2.28318"/>
<path d="M704.363 1408.51H603.903V1508.97H704.363V1408.51Z" stroke="#DDFFF0" stroke-width="2.28318"/>
<path d="M804.822 1408.51H704.362V1508.97H804.822V1408.51Z" stroke="#DDFFF0" stroke-width="2.28318"/>
<path d="M905.284 1408.51H804.824V1508.97H905.284V1408.51Z" stroke="#DDFFF0" stroke-width="2.28318"/>
<path d="M1005.74 1408.51H905.277V1508.97H1005.74V1408.51Z" stroke="#DDFFF0" stroke-width="2.28318"/>
<path d="M1106.2 1408.51H1005.74V1508.97H1106.2V1408.51Z" stroke="#DDFFF0" stroke-width="2.28318"/>
<path d="M1206.66 1408.51H1106.2V1508.97H1206.66V1408.51Z" stroke="#DDFFF0" stroke-width="2.28318"/>
<path d="M1307.12 1408.51H1206.66V1508.97H1307.12V1408.51Z" stroke="#DDFFF0" stroke-width="2.28318"/>
<path d="M1407.58 1408.51H1307.12V1508.97H1407.58V1408.51Z" stroke="#DDFFF0" stroke-width="2.28318"/>
<path d="M1508.04 1408.51H1407.58V1508.97H1508.04V1408.51Z" stroke="#DDFFF0" stroke-width="2.28318"/>
<path d="M1608.5 1408.51H1508.04V1508.97H1608.5V1408.51Z" stroke="#DDFFF0" stroke-width="2.28318"/>
<path d="M1708.96 1408.51H1608.5V1508.97H1708.96V1408.51Z" stroke="#DDFFF0" stroke-width="2.28318"/>
<path d="M1809.42 1408.51H1708.96V1508.97H1809.42V1408.51Z" stroke="#DDFFF0" stroke-width="2.28318"/>
<path d="M1909.88 1408.51H1809.42V1508.97H1909.88V1408.51Z" stroke="#DDFFF0" stroke-width="2.28318"/>
<path d="M2010.34 1408.51H1909.88V1508.97H2010.34V1408.51Z" stroke="#DDFFF0" stroke-width="2.28318"/>
<path d="M2110.79 1408.51H2010.33V1508.97H2110.79V1408.51Z" stroke="#DDFFF0" stroke-width="2.28318"/>
<path d="M2211.26 1408.51H2110.8V1508.97H2211.26V1408.51Z" stroke="#DDFFF0" stroke-width="2.28318"/>
<path d="M2311.72 1408.51H2211.26V1508.97H2311.72V1408.51Z" stroke="#DDFFF0" stroke-width="2.28318"/>
<path d="M2412.19 1408.51H2311.73V1508.97H2412.19V1408.51Z" stroke="#DDFFF0" stroke-width="2.28318"/>
<path d="M2512.65 1408.51H2412.19V1508.97H2512.65V1408.51Z" stroke="#DDFFF0" stroke-width="2.28318"/>
<path d="M2613.09 1408.51H2512.63V1508.97H2613.09V1408.51Z" stroke="#DDFFF0" stroke-width="2.28318"/>
<path d="M2713.56 1408.51H2613.1V1508.97H2713.56V1408.51Z" stroke="#DDFFF0" stroke-width="2.28318"/>
<path d="M2814.02 1408.51H2713.56V1508.97H2814.02V1408.51Z" stroke="#DDFFF0" stroke-width="2.28318"/>
<path d="M2914.49 1408.51H2814.03V1508.97H2914.49V1408.51Z" stroke="#DDFFF0" stroke-width="2.28318"/>
<path d="M3014.95 1408.51H2914.49V1508.97H3014.95V1408.51Z" stroke="#DDFFF0" stroke-width="2.28318"/>
<path d="M3115.39 1408.51H3014.93V1508.97H3115.39V1408.51Z" stroke="#DDFFF0" stroke-width="2.28318"/>
<path d="M3215.86 1408.51H3115.4V1508.97H3215.86V1408.51Z" stroke="#DDFFF0" stroke-width="2.28318"/>
<path d="M101.602 1508.97H1.1416V1609.43H101.602V1508.97Z" stroke="#DDFFF0" stroke-width="2.28318"/>
<path d="M202.063 1508.97H101.603V1609.43H202.063V1508.97Z" stroke="#DDFFF0" stroke-width="2.28318"/>
<path d="M302.524 1508.97H202.064V1609.43H302.524V1508.97Z" stroke="#DDFFF0" stroke-width="2.28318"/>
<path d="M402.977 1508.97H302.517V1609.43H402.977V1508.97Z" stroke="#DDFFF0" stroke-width="2.28318"/>
<path d="M503.438 1508.97H402.978V1609.43H503.438V1508.97Z" stroke="#DDFFF0" stroke-width="2.28318"/>
<path d="M603.9 1508.97H503.44V1609.43H603.9V1508.97Z" stroke="#DDFFF0" stroke-width="2.28318"/>
<path d="M704.363 1508.97H603.903V1609.43H704.363V1508.97Z" stroke="#DDFFF0" stroke-width="2.28318"/>
<path d="M804.822 1508.97H704.362V1609.43H804.822V1508.97Z" stroke="#DDFFF0" stroke-width="2.28318"/>
<path d="M905.284 1508.97H804.824V1609.43H905.284V1508.97Z" stroke="#DDFFF0" stroke-width="2.28318"/>
<path d="M1005.74 1508.97H905.277V1609.43H1005.74V1508.97Z" stroke="#DDFFF0" stroke-width="2.28318"/>
<path d="M1106.2 1508.97H1005.74V1609.43H1106.2V1508.97Z" stroke="#DDFFF0" stroke-width="2.28318"/>
<path d="M1206.66 1508.97H1106.2V1609.43H1206.66V1508.97Z" stroke="#DDFFF0" stroke-width="2.28318"/>
<path d="M1307.12 1508.97H1206.66V1609.43H1307.12V1508.97Z" stroke="#DDFFF0" stroke-width="2.28318"/>
<path d="M1407.58 1508.97H1307.12V1609.43H1407.58V1508.97Z" stroke="#DDFFF0" stroke-width="2.28318"/>
<path d="M1508.04 1508.97H1407.58V1609.43H1508.04V1508.97Z" stroke="#DDFFF0" stroke-width="2.28318"/>
<path d="M1608.5 1508.97H1508.04V1609.43H1608.5V1508.97Z" stroke="#DDFFF0" stroke-width="2.28318"/>
<path d="M1708.96 1508.97H1608.5V1609.43H1708.96V1508.97Z" stroke="#DDFFF0" stroke-width="2.28318"/>
<path d="M1809.42 1508.97H1708.96V1609.43H1809.42V1508.97Z" stroke="#DDFFF0" stroke-width="2.28318"/>
<path d="M1909.88 1508.97H1809.42V1609.43H1909.88V1508.97Z" stroke="#DDFFF0" stroke-width="2.28318"/>
<path d="M2010.34 1508.97H1909.88V1609.43H2010.34V1508.97Z" stroke="#DDFFF0" stroke-width="2.28318"/>
<path d="M2110.79 1508.97H2010.33V1609.43H2110.79V1508.97Z" stroke="#DDFFF0" stroke-width="2.28318"/>
<path d="M2211.26 1508.97H2110.8V1609.43H2211.26V1508.97Z" stroke="#DDFFF0" stroke-width="2.28318"/>
<path d="M2311.72 1508.97H2211.26V1609.43H2311.72V1508.97Z" stroke="#DDFFF0" stroke-width="2.28318"/>
<path d="M2412.19 1508.97H2311.73V1609.43H2412.19V1508.97Z" stroke="#DDFFF0" stroke-width="2.28318"/>
<path d="M2512.65 1508.97H2412.19V1609.43H2512.65V1508.97Z" stroke="#DDFFF0" stroke-width="2.28318"/>
<path d="M2613.09 1508.97H2512.63V1609.43H2613.09V1508.97Z" stroke="#DDFFF0" stroke-width="2.28318"/>
<path d="M2713.56 1508.97H2613.1V1609.43H2713.56V1508.97Z" stroke="#DDFFF0" stroke-width="2.28318"/>
<path d="M2814.02 1508.97H2713.56V1609.43H2814.02V1508.97Z" stroke="#DDFFF0" stroke-width="2.28318"/>
<path d="M2914.49 1508.97H2814.03V1609.43H2914.49V1508.97Z" stroke="#DDFFF0" stroke-width="2.28318"/>
<path d="M3014.95 1508.97H2914.49V1609.43H3014.95V1508.97Z" stroke="#DDFFF0" stroke-width="2.28318"/>
<path d="M3115.39 1508.97H3014.93V1609.43H3115.39V1508.97Z" stroke="#DDFFF0" stroke-width="2.28318"/>
<path d="M3215.86 1508.97H3115.4V1609.43H3215.86V1508.97Z" stroke="#DDFFF0" stroke-width="2.28318"/>
<path d="M101.602 1609.43H1.1416V1709.89H101.602V1609.43Z" stroke="#DDFFF0" stroke-width="2.28318"/>
<path d="M202.063 1609.43H101.603V1709.89H202.063V1609.43Z" stroke="#DDFFF0" stroke-width="2.28318"/>
<path d="M302.524 1609.43H202.064V1709.89H302.524V1609.43Z" stroke="#DDFFF0" stroke-width="2.28318"/>
<path d="M402.977 1609.43H302.517V1709.89H402.977V1609.43Z" stroke="#DDFFF0" stroke-width="2.28318"/>
<path d="M503.438 1609.43H402.978V1709.89H503.438V1609.43Z" stroke="#DDFFF0" stroke-width="2.28318"/>
<path d="M603.9 1609.43H503.44V1709.89H603.9V1609.43Z" stroke="#DDFFF0" stroke-width="2.28318"/>
<path d="M704.363 1609.43H603.903V1709.89H704.363V1609.43Z" stroke="#DDFFF0" stroke-width="2.28318"/>
<path d="M804.822 1609.43H704.362V1709.89H804.822V1609.43Z" stroke="#DDFFF0" stroke-width="2.28318"/>
<path d="M905.284 1609.43H804.824V1709.89H905.284V1609.43Z" stroke="#DDFFF0" stroke-width="2.28318"/>
<path d="M1005.74 1609.43H905.277V1709.89H1005.74V1609.43Z" stroke="#DDFFF0" stroke-width="2.28318"/>
<path d="M1106.2 1609.43H1005.74V1709.89H1106.2V1609.43Z" stroke="#DDFFF0" stroke-width="2.28318"/>
<path d="M1206.66 1609.43H1106.2V1709.89H1206.66V1609.43Z" stroke="#DDFFF0" stroke-width="2.28318"/>
<path d="M1307.12 1609.43H1206.66V1709.89H1307.12V1609.43Z" stroke="#DDFFF0" stroke-width="2.28318"/>
<path d="M1407.58 1609.43H1307.12V1709.89H1407.58V1609.43Z" stroke="#DDFFF0" stroke-width="2.28318"/>
<path d="M1508.04 1609.43H1407.58V1709.89H1508.04V1609.43Z" stroke="#DDFFF0" stroke-width="2.28318"/>
<path d="M1608.5 1609.43H1508.04V1709.89H1608.5V1609.43Z" stroke="#DDFFF0" stroke-width="2.28318"/>
<path d="M1708.96 1609.43H1608.5V1709.89H1708.96V1609.43Z" stroke="#DDFFF0" stroke-width="2.28318"/>
<path d="M1809.42 1609.43H1708.96V1709.89H1809.42V1609.43Z" stroke="#DDFFF0" stroke-width="2.28318"/>
<path d="M1909.88 1609.43H1809.42V1709.89H1909.88V1609.43Z" stroke="#DDFFF0" stroke-width="2.28318"/>
<path d="M2010.34 1609.43H1909.88V1709.89H2010.34V1609.43Z" stroke="#DDFFF0" stroke-width="2.28318"/>
<path d="M2110.79 1609.43H2010.33V1709.89H2110.79V1609.43Z" stroke="#DDFFF0" stroke-width="2.28318"/>
<path d="M2211.26 1609.43H2110.8V1709.89H2211.26V1609.43Z" stroke="#DDFFF0" stroke-width="2.28318"/>
<path d="M2311.72 1609.43H2211.26V1709.89H2311.72V1609.43Z" stroke="#DDFFF0" stroke-width="2.28318"/>
<path d="M2412.19 1609.43H2311.73V1709.89H2412.19V1609.43Z" stroke="#DDFFF0" stroke-width="2.28318"/>
<path d="M2512.65 1609.43H2412.19V1709.89H2512.65V1609.43Z" stroke="#DDFFF0" stroke-width="2.28318"/>
<path d="M2613.09 1609.43H2512.63V1709.89H2613.09V1609.43Z" stroke="#DDFFF0" stroke-width="2.28318"/>
<path d="M2713.56 1609.43H2613.1V1709.89H2713.56V1609.43Z" stroke="#DDFFF0" stroke-width="2.28318"/>
<path d="M2814.02 1609.43H2713.56V1709.89H2814.02V1609.43Z" stroke="#DDFFF0" stroke-width="2.28318"/>
<path d="M2914.49 1609.43H2814.03V1709.89H2914.49V1609.43Z" stroke="#DDFFF0" stroke-width="2.28318"/>
<path d="M3014.95 1609.43H2914.49V1709.89H3014.95V1609.43Z" stroke="#DDFFF0" stroke-width="2.28318"/>
<path d="M3115.39 1609.43H3014.93V1709.89H3115.39V1609.43Z" stroke="#DDFFF0" stroke-width="2.28318"/>
<path d="M3215.86 1609.43H3115.4V1709.89H3215.86V1609.43Z" stroke="#DDFFF0" stroke-width="2.28318"/>
<path d="M101.602 1709.89H1.1416V1810.35H101.602V1709.89Z" stroke="#DDFFF0" stroke-width="2.28318"/>
<path d="M202.063 1709.89H101.603V1810.35H202.063V1709.89Z" stroke="#DDFFF0" stroke-width="2.28318"/>
<path d="M302.524 1709.89H202.064V1810.35H302.524V1709.89Z" stroke="#DDFFF0" stroke-width="2.28318"/>
<path d="M402.977 1709.89H302.517V1810.35H402.977V1709.89Z" stroke="#DDFFF0" stroke-width="2.28318"/>
<path d="M503.438 1709.89H402.978V1810.35H503.438V1709.89Z" stroke="#DDFFF0" stroke-width="2.28318"/>
<path d="M603.9 1709.89H503.44V1810.35H603.9V1709.89Z" stroke="#DDFFF0" stroke-width="2.28318"/>
<path d="M704.363 1709.89H603.903V1810.35H704.363V1709.89Z" stroke="#DDFFF0" stroke-width="2.28318"/>
<path d="M804.822 1709.89H704.362V1810.35H804.822V1709.89Z" stroke="#DDFFF0" stroke-width="2.28318"/>
<path d="M905.284 1709.89H804.824V1810.35H905.284V1709.89Z" stroke="#DDFFF0" stroke-width="2.28318"/>
<path d="M1005.74 1709.89H905.277V1810.35H1005.74V1709.89Z" stroke="#DDFFF0" stroke-width="2.28318"/>
<path d="M1106.2 1709.89H1005.74V1810.35H1106.2V1709.89Z" stroke="#DDFFF0" stroke-width="2.28318"/>
<path d="M1206.66 1709.89H1106.2V1810.35H1206.66V1709.89Z" stroke="#DDFFF0" stroke-width="2.28318"/>
<path d="M1307.12 1709.89H1206.66V1810.35H1307.12V1709.89Z" stroke="#DDFFF0" stroke-width="2.28318"/>
<path d="M1407.58 1709.89H1307.12V1810.35H1407.58V1709.89Z" stroke="#DDFFF0" stroke-width="2.28318"/>
<path d="M1508.04 1709.89H1407.58V1810.35H1508.04V1709.89Z" stroke="#DDFFF0" stroke-width="2.28318"/>
<path d="M1608.5 1709.89H1508.04V1810.35H1608.5V1709.89Z" stroke="#DDFFF0" stroke-width="2.28318"/>
<path d="M1708.96 1709.89H1608.5V1810.35H1708.96V1709.89Z" stroke="#DDFFF0" stroke-width="2.28318"/>
<path d="M1809.42 1709.89H1708.96V1810.35H1809.42V1709.89Z" stroke="#DDFFF0" stroke-width="2.28318"/>
<path d="M1909.88 1709.89H1809.42V1810.35H1909.88V1709.89Z" stroke="#DDFFF0" stroke-width="2.28318"/>
<path d="M2010.34 1709.89H1909.88V1810.35H2010.34V1709.89Z" stroke="#DDFFF0" stroke-width="2.28318"/>
<path d="M2110.79 1709.89H2010.33V1810.35H2110.79V1709.89Z" stroke="#DDFFF0" stroke-width="2.28318"/>
<path d="M2211.26 1709.89H2110.8V1810.35H2211.26V1709.89Z" stroke="#DDFFF0" stroke-width="2.28318"/>
<path d="M2311.72 1709.89H2211.26V1810.35H2311.72V1709.89Z" stroke="#DDFFF0" stroke-width="2.28318"/>
<path d="M2412.19 1709.89H2311.73V1810.35H2412.19V1709.89Z" stroke="#DDFFF0" stroke-width="2.28318"/>
<path d="M2512.65 1709.89H2412.19V1810.35H2512.65V1709.89Z" stroke="#DDFFF0" stroke-width="2.28318"/>
<path d="M2613.09 1709.89H2512.63V1810.35H2613.09V1709.89Z" stroke="#DDFFF0" stroke-width="2.28318"/>
<path d="M2713.56 1709.89H2613.1V1810.35H2713.56V1709.89Z" stroke="#DDFFF0" stroke-width="2.28318"/>
<path d="M2814.02 1709.89H2713.56V1810.35H2814.02V1709.89Z" stroke="#DDFFF0" stroke-width="2.28318"/>
<path d="M2914.49 1709.89H2814.03V1810.35H2914.49V1709.89Z" stroke="#DDFFF0" stroke-width="2.28318"/>
<path d="M3014.95 1709.89H2914.49V1810.35H3014.95V1709.89Z" stroke="#DDFFF0" stroke-width="2.28318"/>
<path d="M3115.39 1709.89H3014.93V1810.35H3115.39V1709.89Z" stroke="#DDFFF0" stroke-width="2.28318"/>
<path d="M3215.86 1709.89H3115.4V1810.35H3215.86V1709.89Z" stroke="#DDFFF0" stroke-width="2.28318"/>
<path d="M101.602 1810.35H1.1416V1910.81H101.602V1810.35Z" stroke="#DDFFF0" stroke-width="2.28318"/>
<path d="M202.063 1810.35H101.603V1910.81H202.063V1810.35Z" stroke="#DDFFF0" stroke-width="2.28318"/>
<path d="M302.524 1810.35H202.064V1910.81H302.524V1810.35Z" stroke="#DDFFF0" stroke-width="2.28318"/>
<path d="M402.977 1810.35H302.517V1910.81H402.977V1810.35Z" stroke="#DDFFF0" stroke-width="2.28318"/>
<path d="M503.438 1810.35H402.978V1910.81H503.438V1810.35Z" stroke="#DDFFF0" stroke-width="2.28318"/>
<path d="M603.9 1810.35H503.44V1910.81H603.9V1810.35Z" stroke="#DDFFF0" stroke-width="2.28318"/>
<path d="M704.363 1810.35H603.903V1910.81H704.363V1810.35Z" stroke="#DDFFF0" stroke-width="2.28318"/>
<path d="M804.822 1810.35H704.362V1910.81H804.822V1810.35Z" stroke="#DDFFF0" stroke-width="2.28318"/>
<path d="M905.284 1810.35H804.824V1910.81H905.284V1810.35Z" stroke="#DDFFF0" stroke-width="2.28318"/>
<path d="M1005.74 1810.35H905.277V1910.81H1005.74V1810.35Z" stroke="#DDFFF0" stroke-width="2.28318"/>
<path d="M1106.2 1810.35H1005.74V1910.81H1106.2V1810.35Z" stroke="#DDFFF0" stroke-width="2.28318"/>
<path d="M1206.66 1810.35H1106.2V1910.81H1206.66V1810.35Z" stroke="#DDFFF0" stroke-width="2.28318"/>
<path d="M1307.12 1810.35H1206.66V1910.81H1307.12V1810.35Z" stroke="#DDFFF0" stroke-width="2.28318"/>
<path d="M1407.58 1810.35H1307.12V1910.81H1407.58V1810.35Z" stroke="#DDFFF0" stroke-width="2.28318"/>
<path d="M1508.04 1810.35H1407.58V1910.81H1508.04V1810.35Z" stroke="#DDFFF0" stroke-width="2.28318"/>
<path d="M1608.5 1810.35H1508.04V1910.81H1608.5V1810.35Z" stroke="#DDFFF0" stroke-width="2.28318"/>
<path d="M1708.96 1810.35H1608.5V1910.81H1708.96V1810.35Z" stroke="#DDFFF0" stroke-width="2.28318"/>
<path d="M1809.42 1810.35H1708.96V1910.81H1809.42V1810.35Z" stroke="#DDFFF0" stroke-width="2.28318"/>
<path d="M1909.88 1810.35H1809.42V1910.81H1909.88V1810.35Z" stroke="#DDFFF0" stroke-width="2.28318"/>
<path d="M2010.34 1810.35H1909.88V1910.81H2010.34V1810.35Z" stroke="#DDFFF0" stroke-width="2.28318"/>
<path d="M2110.79 1810.35H2010.33V1910.81H2110.79V1810.35Z" stroke="#DDFFF0" stroke-width="2.28318"/>
<path d="M2211.26 1810.35H2110.8V1910.81H2211.26V1810.35Z" stroke="#DDFFF0" stroke-width="2.28318"/>
<path d="M2311.72 1810.35H2211.26V1910.81H2311.72V1810.35Z" stroke="#DDFFF0" stroke-width="2.28318"/>
<path d="M2412.19 1810.35H2311.73V1910.81H2412.19V1810.35Z" stroke="#DDFFF0" stroke-width="2.28318"/>
<path d="M2512.65 1810.35H2412.19V1910.81H2512.65V1810.35Z" stroke="#DDFFF0" stroke-width="2.28318"/>
<path d="M2613.09 1810.35H2512.63V1910.81H2613.09V1810.35Z" stroke="#DDFFF0" stroke-width="2.28318"/>
<path d="M2713.56 1810.35H2613.1V1910.81H2713.56V1810.35Z" stroke="#DDFFF0" stroke-width="2.28318"/>
<path d="M2814.02 1810.35H2713.56V1910.81H2814.02V1810.35Z" stroke="#DDFFF0" stroke-width="2.28318"/>
<path d="M2914.49 1810.35H2814.03V1910.81H2914.49V1810.35Z" stroke="#DDFFF0" stroke-width="2.28318"/>
<path d="M3014.95 1810.35H2914.49V1910.81H3014.95V1810.35Z" stroke="#DDFFF0" stroke-width="2.28318"/>
<path d="M3115.39 1810.35H3014.93V1910.81H3115.39V1810.35Z" stroke="#DDFFF0" stroke-width="2.28318"/>
<path d="M3215.86 1810.35H3115.4V1910.81H3215.86V1810.35Z" stroke="#DDFFF0" stroke-width="2.28318"/>
<path d="M101.602 1910.81H1.1416V2011.27H101.602V1910.81Z" stroke="#DDFFF0" stroke-width="2.28318"/>
<path d="M202.063 1910.81H101.603V2011.27H202.063V1910.81Z" stroke="#DDFFF0" stroke-width="2.28318"/>
<path d="M302.524 1910.81H202.064V2011.27H302.524V1910.81Z" stroke="#DDFFF0" stroke-width="2.28318"/>
<path d="M402.977 1910.81H302.517V2011.27H402.977V1910.81Z" stroke="#DDFFF0" stroke-width="2.28318"/>
<path d="M503.438 1910.81H402.978V2011.27H503.438V1910.81Z" stroke="#DDFFF0" stroke-width="2.28318"/>
<path d="M603.9 1910.81H503.44V2011.27H603.9V1910.81Z" stroke="#DDFFF0" stroke-width="2.28318"/>
<path d="M704.363 1910.81H603.903V2011.27H704.363V1910.81Z" stroke="#DDFFF0" stroke-width="2.28318"/>
<path d="M804.822 1910.81H704.362V2011.27H804.822V1910.81Z" stroke="#DDFFF0" stroke-width="2.28318"/>
<path d="M905.284 1910.81H804.824V2011.27H905.284V1910.81Z" stroke="#DDFFF0" stroke-width="2.28318"/>
<path d="M1005.74 1910.81H905.277V2011.27H1005.74V1910.81Z" stroke="#DDFFF0" stroke-width="2.28318"/>
<path d="M1106.2 1910.81H1005.74V2011.27H1106.2V1910.81Z" stroke="#DDFFF0" stroke-width="2.28318"/>
<path d="M1206.66 1910.81H1106.2V2011.27H1206.66V1910.81Z" stroke="#DDFFF0" stroke-width="2.28318"/>
<path d="M1307.12 1910.81H1206.66V2011.27H1307.12V1910.81Z" stroke="#DDFFF0" stroke-width="2.28318"/>
<path d="M1407.58 1910.81H1307.12V2011.27H1407.58V1910.81Z" stroke="#DDFFF0" stroke-width="2.28318"/>
<path d="M1508.04 1910.81H1407.58V2011.27H1508.04V1910.81Z" stroke="#DDFFF0" stroke-width="2.28318"/>
<path d="M1608.5 1910.81H1508.04V2011.27H1608.5V1910.81Z" stroke="#DDFFF0" stroke-width="2.28318"/>
<path d="M1708.96 1910.81H1608.5V2011.27H1708.96V1910.81Z" stroke="#DDFFF0" stroke-width="2.28318"/>
<path d="M1809.42 1910.81H1708.96V2011.27H1809.42V1910.81Z" stroke="#DDFFF0" stroke-width="2.28318"/>
<path d="M1909.88 1910.81H1809.42V2011.27H1909.88V1910.81Z" stroke="#DDFFF0" stroke-width="2.28318"/>
<path d="M2010.34 1910.81H1909.88V2011.27H2010.34V1910.81Z" stroke="#DDFFF0" stroke-width="2.28318"/>
<path d="M2110.79 1910.81H2010.33V2011.27H2110.79V1910.81Z" stroke="#DDFFF0" stroke-width="2.28318"/>
<path d="M2211.26 1910.81H2110.8V2011.27H2211.26V1910.81Z" stroke="#DDFFF0" stroke-width="2.28318"/>
<path d="M2311.72 1910.81H2211.26V2011.27H2311.72V1910.81Z" stroke="#DDFFF0" stroke-width="2.28318"/>
<path d="M2412.19 1910.81H2311.73V2011.27H2412.19V1910.81Z" stroke="#DDFFF0" stroke-width="2.28318"/>
<path d="M2512.65 1910.81H2412.19V2011.27H2512.65V1910.81Z" stroke="#DDFFF0" stroke-width="2.28318"/>
<path d="M2613.09 1910.81H2512.63V2011.27H2613.09V1910.81Z" stroke="#DDFFF0" stroke-width="2.28318"/>
<path d="M2713.56 1910.81H2613.1V2011.27H2713.56V1910.81Z" stroke="#DDFFF0" stroke-width="2.28318"/>
<path d="M2814.02 1910.81H2713.56V2011.27H2814.02V1910.81Z" stroke="#DDFFF0" stroke-width="2.28318"/>
<path d="M2914.49 1910.81H2814.03V2011.27H2914.49V1910.81Z" stroke="#DDFFF0" stroke-width="2.28318"/>
<path d="M3014.95 1910.81H2914.49V2011.27H3014.95V1910.81Z" stroke="#DDFFF0" stroke-width="2.28318"/>
<path d="M3115.39 1910.81H3014.93V2011.27H3115.39V1910.81Z" stroke="#DDFFF0" stroke-width="2.28318"/>
<path d="M3215.86 1910.81H3115.4V2011.27H3215.86V1910.81Z" stroke="#DDFFF0" stroke-width="2.28318"/>
</g>
</g>
</g>
<defs>
<radialGradient id="paint0_radial_149_70" cx="0" cy="0" r="1" gradientUnits="userSpaceOnUse" gradientTransform="translate(1608.5 296.937) rotate(90) scale(1398.5 2191.34)">
<stop stop-color="#D9D9D9"/>
<stop offset="1" stop-color="#737373" stop-opacity="0"/>
</radialGradient>
<clipPath id="clip0_149_70">
<rect width="3217" height="2053.07" fill="white" transform="translate(0 0.928467)"/>
</clipPath>
</defs>
</svg>
